<svg xmlns="http://www.w3.org/2000/svg" viewBox="0 0 36 36" class="design-iconfont">
  <g fill="none" fill-rule="evenodd">
    <path d="M36,18 C36,27.9411 27.9411,36 18,36 C8.0589,36 0,27.9411 0,18 C0,8.0589 8.0589,0 18,0 C27.9411,0 36,8.0589 36,18" fill="#7347F4"/>
    <path d="M11.29272,19.67499 C12.89352,18.42459 15.05442,18.18279 17.71692,18.95889 C20.98392,19.91049 23.82432,19.54359 25.93482,17.89779 C26.13792,17.74029 26.33082,17.56989 26.51232,17.38809 C27.24642,16.67049 27.77322,15.76809 28.03722,14.77629 C28.39092,13.40619 28.09212,11.94939 27.22692,10.82949 C26.51322,9.84639 25.42692,9.19929 24.22212,9.03969 C22.84272,8.85879 21.35052,9.30189 20.12472,10.25589 C18.81342,11.27919 17.89872,12.69129 17.41092,14.45109 C17.26122,14.98389 17.57142,15.53739 18.10392,15.68769 C18.63762,15.83709 19.19142,15.52659 19.34202,14.99349 C19.65282,13.75209 20.35992,12.64599 21.35622,11.84319 C22.14852,11.22759 23.12142,10.92309 23.95872,11.03469 C24.62922,11.11779 25.23492,11.47569 25.63152,12.02289 C26.74482,13.49739 26.00952,15.29799 24.70902,16.31319 C23.10522,17.56329 20.94462,17.80539 18.28482,17.02929 C15.01632,16.07649 12.17322,16.44339 10.06542,18.08889 C9.03762,18.87099 8.29842,19.97169 7.96302,21.21879 C7.60872,22.58949 7.90812,24.04689 8.77452,25.16679 C9.48762,26.15289 10.57572,26.80119 11.78232,26.95929 C13.16172,27.14289 14.65512,26.69859 15.87972,25.74309 C17.21982,24.67719 18.17352,23.20119 18.59472,21.54129 C18.74412,21.00759 18.43332,20.45379 17.90022,20.30319 C17.36832,20.15199 16.81452,20.46069 16.66362,20.99289 C16.66302,20.99439 16.66272,20.99589 16.66242,20.99739 C16.35192,22.23879 15.64422,23.34459 14.64702,24.14619 C13.85472,24.76449 12.88152,25.06629 12.04302,24.95619 C11.37192,24.86589 10.76832,24.50049 10.37682,23.94789 C9.26112,22.48389 9.99612,20.68599 11.29272,19.67499" fill="#FFF"/>
  </g>
</svg>
