<svg xmlns="http://www.w3.org/2000/svg" viewBox="0 0 20 20" class="design-iconfont">
  <g fill="none" fill-rule="evenodd">
    <path fill="#FFF" d="M10 0A10 10 0 1 0 10 20A10 10 0 1 0 10 0Z"/>
    <path d="M10,5 C10.5522847,5 11,5.44771525 11,6 L11,9 L14,9 C14.5522847,9 15,9.44771525 15,10 C15,10.5522847 14.5522847,11 14,11 L11,11 L11,14 C11,14.5522847 10.5522847,15 10,15 C9.44771525,15 9,14.5522847 9,14 L9,11 L6,11 C5.44771525,11 5,10.5522847 5,10 C5,9.44771525 5.44771525,9 6,9 L9,9 L9,6 C9,5.44771525 9.44771525,5 10,5 Z" fill="#000" transform="rotate(45 10 10)"/>
  </g>
</svg>
