<svg xmlns="http://www.w3.org/2000/svg" viewBox="0 0 28 28" class="design-iconfont">
  <path fill="#7347F4" d="M23.8088743,9.3707832 C23.6934704,18.0746428 18.1275549,24.0363385 9.81893009,24.4107191 C6.39255679,24.5676067 3.91026811,23.4607953 1.75,22.0884301 C4.28240287,22.4926161 7.42256062,21.4803544 9.10199558,20.0426995 C6.6197069,19.8012402 5.15003287,18.5377338 4.46235837,16.5043874 C5.1796458,16.6283896 5.93530491,16.5955041 6.61675523,16.4511932 C4.37679208,15.7013733 2.77724466,14.3169447 2.69459795,11.4160004 C3.32317492,11.7021839 3.97844523,11.9712028 4.84899481,12.0242365 C3.17263984,11.0707194 1.93306759,7.58508818 3.35278785,5.28018833 C5.84075528,8.0072088 8.83349004,10.2325419 13.7476324,10.53358 C12.5138672,5.25952666 19.5028397,2.39955279 22.4278786,5.94424948 C23.6643709,5.70503604 24.6708255,5.23591331 25.6389726,4.72530682 C25.2404974,5.95008865 24.4730958,6.80600823 23.5376416,7.49073105 C24.5645334,7.3520989 25.4734867,7.10117503 26.25,6.71749027 C25.7683327,7.71804158 24.7150684,8.6152845 23.8088743,9.3707832 Z" fill="#9286B5" fill-rule="nonzero"/>
</svg>
