<svg xmlns="http://www.w3.org/2000/svg" viewBox="0 0 28 28" class="design-iconfont">
  <path fill="#7347F4" d="M9.65008671,13.3389055 C10.9594064,13.3389055 12.0196467,14.3208952 11.9976043,15.5211049 C11.9976043,16.7224167 10.9616106,17.7033043 9.65008671,17.7033043 C8.36280948,17.7033043 7.30256917,16.7224167 7.30256917,15.5211049 C7.30256917,14.3208952 8.33856283,13.3389055 9.65008671,13.3389055 Z M18.0482481,13.3389055 C19.359772,13.3389055 20.3957656,14.3208952 20.3957656,15.5211049 C20.3957656,16.7224167 19.359772,17.7033043 18.0482481,17.7033043 C16.7609708,17.7033043 15.7018327,16.7224167 15.7018327,15.5211049 C15.7018327,14.3208952 16.7378263,13.3389055 18.0493502,13.3389055 L18.0482481,13.3389055 Z M20.2238348,23.625 C25.184481,23.4651925 27.0944565,20.1422979 27.0944565,20.1422979 C27.0944565,12.7624963 23.8597316,6.7812861 23.8597317,6.7812861 C20.6305174,4.30812677 17.5533958,4.37517738 17.5533958,4.37517738 L17.2392913,4.74236239 C21.0559361,5.93375511 22.8270444,7.65416583 22.8270444,7.65416586 C20.7432176,6.48009986 18.446647,5.73230952 16.0710432,5.45433251 C14.5638849,5.28424373 13.0415851,5.2990485 11.5380198,5.49841735 C11.402459,5.49841735 11.2900426,5.52045976 11.156686,5.54250217 C10.3708738,5.61303792 8.46089826,5.90950844 6.06047891,6.98848482 C5.23058186,7.37643139 4.73572958,7.65416586 4.73572958,7.65416586 C4.73572958,7.65416586 6.59941603,5.84117695 10.6386892,4.65088636 L10.4138565,4.37517738 C10.4138565,4.37517738 7.33893916,4.30812674 4.10752066,6.7823882 C4.10752066,6.7823882 0.875,12.7624963 0.875,20.1411958 C0.875,20.1411958 2.75962676,23.4629882 7.72137513,23.6238979 C7.72137513,23.6238979 8.55017005,22.594517 9.22687228,21.7238414 C6.37458337,20.8509617 5.29891335,19.0170325 5.29891335,19.0170325 C5.29891335,19.0170325 5.52154178,19.1790442 5.92491803,19.4082854 C5.94696044,19.4303278 5.96900288,19.4545745 6.01418983,19.4755148 C6.08252132,19.5240081 6.1497507,19.5460505 6.21808219,19.5912375 C6.77795962,19.9119546 7.33893916,20.1643403 7.85473174,20.370437 C8.77500272,20.7374432 9.87491938,21.1044495 11.156686,21.3568352 C13.0756249,21.7330394 15.0486374,21.74052 16.9703738,21.3788776 C18.0895922,21.1790676 19.1815304,20.8487489 20.2238348,20.3946836 C21.1330105,20.0426703 21.9993082,19.5886312 22.8061041,19.0412791 C22.8061041,19.0412791 21.684145,20.9203953 18.7425842,21.7701305 C19.2293325,22.3945684 19.7238559,23.0129064 20.226039,23.625 L20.2238348,23.625 L20.2238348,23.625 Z" fill-rule="nonzero"/>
</svg>
