<svg xmlns="http://www.w3.org/2000/svg" viewBox="0 0 28 28" class="design-iconfont">
  <path d="M23.2379093,8.002267 L23.2379093,22.9992443 C23.2379093,23.3972695 23.0797944,23.7789926 22.7983481,24.0604388 C22.5169018,24.3418851 22.1351788,24.5 21.7371536,24.5 L6.75075567,24.5 C6.35273052,24.5 5.97100744,24.3418851 5.68956116,24.0604388 C5.40811488,23.7789926 5.25,23.3972695 5.25,22.9992443 L5.25,8.002267 L23.2379093,8.002267 Z M14.2960957,14.7503778 L9.74168764,14.7503778 C9.36318917,14.7726994 9.0612384,15.0746501 9.03891686,15.4531486 C9.02227312,15.8584836 9.33642772,16.2010135 9.74168764,16.2193955 L9.74168764,16.2193955 L14.2968514,16.2193955 C14.6753498,16.1970739 14.9773006,15.8951232 14.9996221,15.5166247 C15.0162588,15.1110077 14.7016554,14.768357 14.2960957,14.7503778 L14.2960957,14.7503778 Z M17.8847607,11.7382871 L9.69937025,11.7382871 C9.30378334,11.7561717 8.9922625,12.0820947 8.9922625,12.4780856 C8.9922625,12.8740766 9.30378334,13.1999996 9.69937025,13.2178841 L9.69937025,13.2178841 L17.8847607,13.2178841 C18.2562503,13.1927076 18.5521259,12.8971546 18.5777078,12.5256927 C18.5905388,12.3293133 18.5246763,12.1359028 18.3946628,11.9881666 C18.2646492,11.8404303 18.0811783,11.7505197 17.8847607,11.7382871 L17.8847607,11.7382871 Z M20.2363979,3.5 C20.6472107,3.50165652 20.9798296,3.83427545 20.9814861,4.24508817 L20.9814861,6.49093201 L22.4822418,6.49093201 C22.8930545,6.49258853 23.2256734,6.82520743 23.22733,7.23602015 L23.22733,7.98110832 L5.25,7.98110832 L5.25,5.00075567 C5.25,4.1717884 5.91120908,3.5 6.74017631,3.5 L20.2363979,3.5 Z M19.4913098,5.00075567 L7.4958438,5.00075567 C7.08503109,5.0024122 6.75241218,5.33503113 6.75075567,5.74584384 C6.75241218,6.15665655 7.08503109,6.48927547 7.4958438,6.49093201 L19.4913098,6.49093201 L19.4913098,5.00075567 Z" fill="#9286B5" fill-rule="nonzero"/>
</svg>
