<svg xmlns="http://www.w3.org/2000/svg" viewBox="0 0 32 32" class="design-iconfont">
  <g transform="translate(2 3)" fill="none" fill-rule="evenodd">
    <rect fill="#9286B5" x="6" width="4" height="6" rx="1"/>
    <rect fill="#9286B5" x="18" width="4" height="6" rx="1"/>
    <rect stroke="#9286B5" fill="#FFF" x=".5" y="4.5" width="27" height="21" rx="2"/>
    <path d="M10,8 L10,10 L6,10 L6,8 L10,8 Z M4,8 L4,10 L0,10 L0,8 L4,8 Z M16,8 L16,10 L12,10 L12,8 L16,8 Z M4,4 L4,6 L0,6 L0,4 L4,4 Z M10,4 L10,6 L6,6 L6,4 L10,4 Z M16,4 L16,6 L12,6 L12,4 L16,4 Z M4,0 L4,2 L0,2 L0,0 L4,0 Z M10,0 L10,2 L6,2 L6,0 L10,0 Z M16,0 L16,2 L12,2 L12,0 L16,0 Z" transform="translate(6 12)" fill="#9286B5"/>
    <path fill="#9286B5" d="M1 5H27V9H1z"/>
  </g>
</svg>
