<svg xmlns="http://www.w3.org/2000/svg" viewBox="0 0 24 24" class="design-iconfont">
  <path d="M24,12 C24,5.37272728 18.6272727,0 12,0 C5.37272728,0 0,5.37272728 0,12 C0,18.6272727 5.37272728,24 12,24 C18.6272727,24 24,18.6272727 24,12 Z M8.77745454,12 L8.77745454,9.70363636 L10.1847273,9.70363636 L10.1847273,8.3149091 C10.1847273,6.4418182 10.7443636,5.09236364 12.7952727,5.09236364 L15.2345455,5.09236364 L15.2345455,7.38327274 L13.5174546,7.38327274 C12.6567273,7.38327274 12.4614546,7.9549091 12.4614546,8.5538182 L12.4614546,9.70363638 L15.108,9.70363638 L14.7469091,12 L12.4614546,12 L12.4614546,18.9261818 L10.1847273,18.9261818 L10.1847273,12 L8.77745454,12 Z" fill="#fff" fill-rule="nonzero"/>
</svg>
