<svg xmlns="http://www.w3.org/2000/svg" viewBox="0 0 28 28" class="design-iconfont">
  <path fill="#7347F4" d="M14.3106777,2.625 C7.85431467,2.62239024 2.625,7.84909417 2.625,14.3002357 C2.625,19.4016241 5.89625875,23.7380653 10.4520022,25.3306174 C11.0655264,25.4846511 10.9715397,25.0486573 10.9715397,24.7510328 L10.9715397,22.7277084 C7.42876385,23.1428163 7.28517308,20.7983706 7.04759563,20.4067595 C6.56721925,19.5869867 5.43154682,19.3781274 5.77094317,18.9865162 C6.57766221,18.5714084 7.4000457,19.0909459 8.35296624,20.4981354 C9.04220193,21.5189352 10.3867337,21.3466263 11.0681371,21.1769281 C11.2169494,20.5634039 11.5354598,20.0151483 11.9740643,19.5895974 C8.30336216,18.9316907 6.7734678,16.6916747 6.7734678,14.0287186 C6.7734678,12.7364017 7.19901862,11.5485145 8.03445582,10.5903725 C7.50186461,9.01087401 8.0840599,7.65851006 8.16238214,7.45748298 C9.67922279,7.32172444 11.2561105,8.54355133 11.3788153,8.64014876 C12.2403599,8.40779279 13.2246094,8.28508795 14.3263422,8.28508795 C15.4332964,8.28508795 16.4201566,8.41301427 17.2895335,8.64798098 C17.5845472,8.42345724 19.0465623,7.37393926 20.4563626,7.50186558 C20.5320741,7.70289266 21.1012156,9.02392772 20.5999533,10.5825402 C21.4458335,11.543293 21.8766058,12.7416232 21.8766058,14.0365509 C21.8766058,16.7047284 20.3362685,18.9473551 16.6551233,19.5948189 C17.2686475,20.2005109 17.6498157,21.0411696 17.6498157,21.9705934 L17.6498157,24.9076773 C17.6707017,25.142644 17.6498157,25.375 18.0414269,25.375 C22.6650496,23.8163875 25.9937447,19.4486174 25.9937447,14.3028465 C25.9937447,7.84909417 20.7618193,2.625 14.3106777,2.625 Z" fill="#9286B5" fill-rule="nonzero"/>
</svg>
