<svg xmlns="http://www.w3.org/2000/svg" viewBox="0 0 90 70" class="design-iconfont">
  <g transform="translate(1 1)" fill="none" fill-rule="evenodd">
    <rect stroke="#9286B5" fill="#FFF" x="-.5" y="-.5" width="89" height="69" rx="8"/>
    <path d="M8,0 L16,0 L16,0 L16,68 L8,68 C3.581722,68 5.41083001e-16,64.418278 0,60 L0,8 C-5.41083001e-16,3.581722 3.581722,8.11624501e-16 8,0 Z" fill="#9286B5"/>
    <path d="M80,0 L88,0 L88,0 L88,68 L80,68 C75.581722,68 72,64.418278 72,60 L72,8 C72,3.581722 75.581722,8.11624501e-16 80,0 Z" fill="#9286B5" transform="matrix(-1 0 0 1 160 0)"/>
    <path d="M10,54 C10.5522847,54 11,54.4477153 11,55 L11,57 C11,57.5522847 10.5522847,58 10,58 L7,58 C6.44771525,58 6,57.5522847 6,57 L6,55 C6,54.4477153 6.44771525,54 7,54 L10,54 Z M10,43 C10.5522847,43 11,43.4477153 11,44 L11,46 C11,46.5522847 10.5522847,47 10,47 L7,47 C6.44771525,47 6,46.5522847 6,46 L6,44 C6,43.4477153 6.44771525,43 7,43 L10,43 Z M10,32 C10.5522847,32 11,32.4477153 11,33 L11,35 C11,35.5522847 10.5522847,36 10,36 L7,36 C6.44771525,36 6,35.5522847 6,35 L6,33 C6,32.4477153 6.44771525,32 7,32 L10,32 Z M10,21 C10.5522847,21 11,21.4477153 11,22 L11,24 C11,24.5522847 10.5522847,25 10,25 L7,25 C6.44771525,25 6,24.5522847 6,24 L6,22 C6,21.4477153 6.44771525,21 7,21 L10,21 Z M10,10 C10.5522847,10 11,10.4477153 11,11 L11,13 C11,13.5522847 10.5522847,14 10,14 L7,14 C6.44771525,14 6,13.5522847 6,13 L6,11 C6,10.4477153 6.44771525,10 7,10 L10,10 Z" fill="#FFF"/>
    <path d="M82,54 C82.5522847,54 83,54.4477153 83,55 L83,57 C83,57.5522847 82.5522847,58 82,58 L79,58 C78.4477153,58 78,57.5522847 78,57 L78,55 C78,54.4477153 78.4477153,54 79,54 L82,54 Z M82,43 C82.5522847,43 83,43.4477153 83,44 L83,46 C83,46.5522847 82.5522847,47 82,47 L79,47 C78.4477153,47 78,46.5522847 78,46 L78,44 C78,43.4477153 78.4477153,43 79,43 L82,43 Z M82,32 C82.5522847,32 83,32.4477153 83,33 L83,35 C83,35.5522847 82.5522847,36 82,36 L79,36 C78.4477153,36 78,35.5522847 78,35 L78,33 C78,32.4477153 78.4477153,32 79,32 L82,32 Z M82,21 C82.5522847,21 83,21.4477153 83,22 L83,24 C83,24.5522847 82.5522847,25 82,25 L79,25 C78.4477153,25 78,24.5522847 78,24 L78,22 C78,21.4477153 78.4477153,21 79,21 L82,21 Z M82,10 C82.5522847,10 83,10.4477153 83,11 L83,13 C83,13.5522847 82.5522847,14 82,14 L79,14 C78.4477153,14 78,13.5522847 78,13 L78,11 C78,10.4477153 78.4477153,10 79,10 L82,10 Z" fill="#FFF"/>
    <path d="M54.2013826,37.1731438 L38.7069763,45.6246381 C37.1003406,46.5009848 35.1466872,45.7905654 34.3433693,44.0378719 C34.1175598,43.5451965 34,43.0019335 34,42.4511057 L34,25.5481171 C34,23.5885461 35.4561673,22 37.2524407,22 C37.7573661,22 38.2553573,22.128247 38.7069763,22.3745847 L54.2013826,30.826079 C55.8080183,31.7024258 56.4592361,33.833684 55.6559182,35.5863776 C55.3412,36.2730355 54.8308189,36.8298148 54.2013826,37.1731438 Z" fill="#7347F4"/>
  </g>
</svg>
