<svg xmlns="http://www.w3.org/2000/svg" viewBox="0 0 24 24" class="design-iconfont">
  <path fill="#7347F4" d="M6.90117647,9.64705882 L3.8,9.64705882 C3.58142091,10.412233 3.47093889,11.2042188 3.47176011,12 C3.47176011,12.8164706 3.58588235,13.6058824 3.80117647,14.3529412 L6.90235294,14.3529412 C6.77294118,13.6 6.70705882,12.8152941 6.70705882,12 C6.70705882,11.1847059 6.77294118,10.4 6.90235294,9.64705882 L6.90117647,9.64705882 Z M8.09764706,9.64705882 C7.95149127,10.4227793 7.87940235,11.2106363 7.88235294,12 C7.88235294,12.8211765 7.95294118,13.6058824 8.09764706,14.3529412 L11.4117647,14.3529412 L11.4117647,9.64705882 L8.09764706,9.64705882 Z M9.82117647,20.2482353 C8.56638833,18.913795 7.65473317,17.2943756 7.16470588,15.5294118 L4.23294118,15.5294118 C5.29486583,17.8599697 7.34566524,19.5917079 9.82117647,20.2482353 L9.82117647,20.2482353 Z M11.4117647,20.1658824 L11.4117647,15.5294118 L8.39176471,15.5294118 C8.94470588,17.3011765 9.95058824,18.8435294 11.4117647,20.1670588 L11.4117647,20.1658824 Z M9.82117647,3.75294118 C7.34590099,4.40921056 5.29514475,6.14048056 4.23294118,8.47058824 L7.16470588,8.47058824 C7.65439165,6.7057382 8.56563732,5.08632908 9.82,3.75176471 L9.82117647,3.75294118 Z M11.4117647,3.83529412 C9.95058824,5.15529412 8.94588235,6.69764706 8.39176471,8.47058824 L11.4117647,8.47058824 L11.4117647,3.83294118 L11.4117647,3.83529412 Z M17.0988235,9.64705882 C17.2282353,10.4 17.2941176,11.1847059 17.2941176,12 C17.2941176,12.8152941 17.2282353,13.6 17.0988235,14.3529412 L20.2011765,14.3529412 C20.4152941,13.6058824 20.5294118,12.8164706 20.5294118,12 C20.5294118,11.1835294 20.4152941,10.3941176 20.2,9.64705882 L17.0988235,9.64705882 Z M15.9023529,9.64705882 L12.5882353,9.64705882 L12.5882353,14.3529412 L15.9023529,14.3529412 C16.0458824,13.6058824 16.1176471,12.8211765 16.1176471,12 C16.1176471,11.1788235 16.0470588,10.3941176 15.9023529,9.64705882 L15.9023529,9.64705882 Z M14.1788235,20.2482353 C16.6543348,19.5917079 18.7051342,17.8599697 19.7670588,15.5294118 L16.8352941,15.5294118 C16.3456084,17.2942618 15.4343627,18.9136709 14.18,20.2482353 L14.1788235,20.2482353 Z M12.5882353,20.1658824 C14.0494118,18.8435294 15.0541176,17.3011765 15.6082353,15.5294118 L12.5882353,15.5294118 L12.5882353,20.1670588 L12.5882353,20.1658824 Z M14.1788235,3.75294118 C15.4334469,5.08704617 16.3450919,6.70604363 16.8352941,8.47058824 L19.7682353,8.47058824 C18.7063106,6.14003033 16.6555112,4.40829213 14.18,3.75176471 L14.1788235,3.75294118 Z M12.5882353,3.83529412 L12.5882353,8.47058824 L15.6082353,8.47058824 C15.0552941,6.69882353 14.0494118,5.15647059 12.5882353,3.83294118 L12.5882353,3.83529412 Z M12,22 C6.4771525,22 2,17.5228475 2,12 C2,6.4771525 6.4771525,2 12,2 C17.5228475,2 22,6.4771525 22,12 C22,17.5228475 17.5228475,22 12,22 Z"  fill-rule="nonzero"/>
</svg>
