<svg xmlns="http://www.w3.org/2000/svg" viewBox="0 0 118 68" class="design-iconfont">
  <defs>
    <linearGradient x1="50%" y1="0%" x2="50%" y2="100%" id="2e8rlidec__cio4rme9da">
      <stop stop-color="#7347F4" offset="0%"/>
      <stop stop-color="#A03EFC" offset="100%"/>
    </linearGradient>
    <linearGradient x1="100%" y1="50%" x2="0%" y2="50%" id="2e8rlidec__8q3nf8eofb">
      <stop stop-color="#7347F4" offset="0%"/>
      <stop stop-color="#A03EFC" offset="100%"/>
    </linearGradient>
  </defs>
  <g fill="none" fill-rule="evenodd">
    <path d="M68.4834818,2.14255949 C69.1232703,2.13786002 69.7648516,2.37723164 70.2565794,2.86178826 C70.4992323,3.10090245 70.6904549,3.38708725 70.8185084,3.70277437 L70.8185084,3.70277437 L72.6590564,8.24023377 C73.2299473,9.64763761 74.3172551,10.6904034 75.6136912,11.2385955 C76.9134842,11.788207 78.4234898,11.8406803 79.8340262,11.2650678 L79.8340262,11.2650678 L84.4076741,9.33159114 C85.0435222,9.06272571 85.7281537,9.07704207 86.3210397,9.31753679 C86.9139256,9.55803152 87.4150659,10.0247046 87.6839314,10.6605526 C87.8166084,10.9743246 87.8837568,11.3119026 87.8812546,11.6525634 L87.8812546,11.6525634 L87.8452887,16.5489765 C87.834133,18.0677186 88.4396253,19.4472032 89.427592,20.4497913 C90.4181169,21.4549754 91.7930995,22.0813085 93.3165426,22.0893008 L93.3165426,22.0893008 L98.2819518,22.0532606 C98.9722891,22.0481898 99.5993276,22.3234136 100.055049,22.7724894 C100.510771,23.2215651 100.795176,23.8444929 100.800247,24.5348303 C100.802749,24.8754911 100.735601,25.213069 100.602924,25.526841 L100.602924,25.526841 L98.6959197,30.0367733 C98.1044157,31.435639 98.1359117,32.9418284 98.6650001,34.2461775 C99.1954585,35.553904 100.22609,36.6587434 101.630509,37.2491237 L101.630509,37.2491237 L106.231741,39.1160068 C106.87147,39.3755027 107.345454,39.8697335 107.594632,40.4590226 C107.843811,41.0483117 107.868183,41.7326592 107.608687,42.3723882 C107.480633,42.6880753 107.289411,42.9742601 107.046758,43.2133743 L107.046758,43.2133743 L103.559039,46.6502295 C102.477238,47.716254 101.929943,49.1198447 101.919604,50.5273795 C101.909238,51.9385588 102.438614,53.3537028 103.510199,54.4365911 L103.510199,54.4365911 L107.046758,57.9221813 C107.538486,58.406738 107.787256,59.0447337 107.791956,59.6845222 C107.796655,60.3243108 107.557284,60.9658921 107.072727,61.4576199 C106.833613,61.7002728 106.547428,61.8914954 106.231741,62.0195488 L106.231741,62.0195488 L101.694281,63.8600969 C101.030429,64.1293782 100.447885,64.5137431 99.9599752,64.9805897 L99.9599752,64.9805897 L18.774426,64.981461 C18.3024106,64.5296921 17.7414014,64.1548099 17.1029641,63.8864312 L17.1029641,63.8864312 L12.5017339,62.0195488 C11.8620049,61.7600529 11.3880205,61.2658221 11.1388422,60.676533 C10.889664,60.0872439 10.865292,59.4028965 11.1247879,58.7631674 C11.2528413,58.4474803 11.4440639,58.1612955 11.6867168,57.9221813 L11.6867168,57.9221813 L15.1744355,54.4853261 C16.2562366,53.4193016 16.8035318,52.0157109 16.8138707,50.6081762 C16.8242363,49.1969968 16.2948611,47.7818528 15.2232756,46.6989645 L15.2232756,46.6989645 L11.6867168,43.2133743 C11.1949891,42.7288177 10.9462185,42.0908219 10.941519,41.4510334 C10.9368196,40.8112448 11.1761912,40.1696635 11.6607478,39.6779358 C11.899862,39.4352828 12.1860468,39.2440602 12.5017339,39.1160068 L12.5017339,39.1160068 L17.0391933,37.2754588 C18.4465971,36.7045678 19.4893629,35.61726 20.037555,34.3208239 C20.5871665,33.021031 20.6396398,31.5110253 20.0640273,30.100489 L20.0640273,30.100489 L18.1305507,25.526841 C17.8616852,24.890993 17.8760016,24.2063614 18.1164963,23.6134755 C18.3569911,23.0205895 18.8236642,22.5194492 19.4595122,22.2505838 C19.7732841,22.1179067 20.1108621,22.0507583 20.4515229,22.0532606 L20.4515229,22.0532606 L25.347936,22.0892265 C26.8666781,22.1003822 28.2461628,21.4948899 29.2487508,20.5069232 C30.2539349,19.5163983 30.880268,18.1414156 30.8882603,16.6179726 L30.8882603,16.6179726 L30.8522201,11.6525634 C30.8471494,10.9622261 31.1223731,10.3351876 31.5714489,9.87946575 C32.0205247,9.42374391 32.6434525,9.1393387 33.3337898,9.13426793 C33.6744506,9.13176566 34.0120286,9.19891409 34.3258006,9.33159114 L34.3258006,9.33159114 L38.8357329,11.2385955 C40.2345985,11.8300994 41.740788,11.7986034 43.0451371,11.269515 C44.3528635,10.7390566 45.457703,9.70842563 46.0480833,8.30400628 L46.0480833,8.30400628 L47.9149663,3.70277437 C48.1744622,3.06304536 48.668693,2.58906092 49.2579822,2.3398827 C49.8472713,2.09070448 50.5316187,2.06633248 51.1713477,2.32582835 C51.4870348,2.4538818 51.7732196,2.64510436 52.0123338,2.88775731 L52.0123338,2.88775731 L55.449189,6.37547594 C56.5152136,7.45727704 57.9188042,8.00457229 59.326339,8.01491113 C60.7375184,8.02527674 62.1526623,7.49590161 63.2355506,6.42431607 L63.2355506,6.42431607 L66.7211409,2.88775731 C67.2056975,2.39602953 67.8436932,2.14725896 68.4834818,2.14255949 Z" stroke="#7347F4" stroke-width="3" fill="#FFF"/>
    <path fill="url(#2e8rlidec__cio4rme9da)" d="M46.1484245 22.90159023A3.18264997 3.18264997 0 1 0 46.1484245 29.26689017A3.18264997 3.18264997 0 1 0 46.1484245 22.90159023Z"/>
    <path fill="url(#2e8rlidec__cio4rme9da)" d="M58.8790244 22.90159023A3.18264997 3.18264997 0 1 0 58.8790244 29.26689017A3.18264997 3.18264997 0 1 0 58.8790244 22.90159023Z"/>
    <path fill="url(#2e8rlidec__cio4rme9da)" d="M71.6096242 22.90159023A3.18264997 3.18264997 0 1 0 71.6096242 29.26689017A3.18264997 3.18264997 0 1 0 71.6096242 22.90159023Z"/>
    <path d="M8.44595338,36.1735003 L109.394059,36.1735003 C111.603198,36.1735003 113.394059,37.9643613 113.394059,40.1735003 C113.394059,41.0871067 113.08131,41.9731834 112.507823,42.6843719 L106.812973,49.7466269 C105.619545,51.226613 105.632769,53.3421505 106.844607,54.8071011 L112.340081,61.4503974 C113.748187,63.1526109 113.509766,65.6740236 111.807553,67.0821302 C111.090361,67.6754062 110.188724,68 109.25795,68 L8.41628826,68 C6.20714926,68 4.41628826,66.209139 4.41628826,64 C4.41628826,63.0797457 4.73359828,62.1876362 5.3147208,61.4740785 L10.9329753,54.5754495 C12.1334708,53.1013665 12.1305883,50.9859694 10.9260801,49.5151635 L5.35128109,42.7078648 C3.95159023,40.9987245 4.20244858,38.4785189 5.91158889,37.078828 C6.6264555,36.493392 7.52195686,36.1735003 8.44595338,36.1735003 Z" fill="url(#2e8rlidec__8q3nf8eofb)"/>
    <text font-family="Galaxy-SemiBold-E, PROJECT GALAXY E" font-size="16" font-weight="500" fill="#FFF">
      <tspan x="23.4638921" y="57.8049262">Voting</tspan>
    </text>
  </g>
</svg>
