<svg xmlns="http://www.w3.org/2000/svg" viewBox="0 0 118 68" class="design-iconfont">
  <g fill="none" fill-rule="evenodd">
    <path d="M49.2579822,1.69844833 C49.8472713,1.44927011 50.5316187,1.42489811 51.1713477,1.68439398 C51.4870348,1.81244743 51.7732196,2.00367 52.0123338,2.24632294 L52.0123338,2.24632294 L55.449189,5.73404157 C56.5152136,6.81584267 57.9188042,7.36313792 59.326339,7.37347676 C60.7375184,7.38384237 62.1526623,6.85446724 63.2355506,5.7828817 L63.2355506,5.7828817 L66.7211409,2.24632294 C67.2056975,1.75459516 67.8436932,1.50582459 68.4834818,1.50112512 C69.1232703,1.49642565 69.7648516,1.73579727 70.2565794,2.22035389 C70.4992323,2.45946808 70.6904549,2.74565288 70.8185084,3.06134 L70.8185084,3.06134 L72.6590564,7.5987994 C73.2299473,9.00620324 74.3172551,10.048969 75.6136912,10.5971611 C76.9134842,11.1467726 78.4234898,11.1992459 79.8340262,10.6236334 L79.8340262,10.6236334 L84.4076741,8.69015677 C85.0435222,8.42129134 85.7281537,8.4356077 86.3210397,8.67610243 C86.9139256,8.91659715 87.4150659,9.38327024 87.6839314,10.0191183 C87.8166084,10.3328902 87.8837568,10.6704682 87.8812546,11.011129 L87.8812546,11.011129 L87.8452887,15.9075421 C87.834133,17.4262842 88.4396253,18.8057689 89.427592,19.8083569 C90.4181169,20.813541 91.7930995,21.4398741 93.3165426,21.4478664 L93.3165426,21.4478664 L98.2819518,21.4118262 C98.9722891,21.4067554 99.5993276,21.6819792 100.055049,22.131055 C100.510771,22.5801308 100.795176,23.2030586 100.800247,23.8933959 C100.802749,24.2340567 100.735601,24.5716347 100.602924,24.8854066 L100.602924,24.8854066 L98.6959197,29.395339 C98.1044157,30.7942046 98.1359117,32.3003941 98.6650001,33.6047432 C99.1954585,34.9124696 100.22609,36.0173091 101.630509,36.6076894 L101.630509,36.6076894 L106.231741,38.4745724 C106.87147,38.7340683 107.345454,39.2282991 107.594632,39.8175883 C107.843811,40.4068774 107.868183,41.0912248 107.608687,41.7309538 C107.480633,42.0466409 107.289411,42.3328257 107.046758,42.5719399 L107.046758,42.5719399 L103.559039,46.0087951 C102.477238,47.0748197 101.929943,48.4784103 101.919604,49.8859451 C101.909238,51.2971245 102.438614,52.7122684 103.510199,53.7951567 L103.510199,53.7951567 L107.046758,57.280747 C107.538486,57.7653036 107.787256,58.4032993 107.791956,59.0430879 C107.796655,59.6828764 107.557284,60.3244577 107.072727,60.8161855 C106.833613,61.0588384 106.547428,61.250061 106.231741,61.3781144 L106.231741,61.3781144 L101.694281,63.2186625 C101.030432,63.4879423 100.447892,63.8723044 99.9599834,64.3391475 L99.9599834,64.3391475 L18.7734019,64.3390472 C18.3015992,63.8877161 17.7409398,63.5131815 17.1029641,63.2449968 L17.1029641,63.2449968 L12.5017339,61.3781144 C11.8620049,61.1186186 11.3880205,60.6243877 11.1388422,60.0350986 C10.889664,59.4458095 10.865292,58.7614621 11.1247879,58.1217331 C11.2528413,57.8060459 11.4440639,57.5198612 11.6867168,57.280747 L11.6867168,57.280747 L15.1744355,53.8438918 C16.2562366,52.7778672 16.8035318,51.3742766 16.8138707,49.9667418 C16.8242363,48.5555624 16.2948611,47.1404185 15.2232756,46.0575302 L15.2232756,46.0575302 L11.6867168,42.5719399 C11.1949891,42.0873833 10.9462185,41.4493875 10.941519,40.809599 C10.9368196,40.1698105 11.1761912,39.5282292 11.6607478,39.0365014 C11.899862,38.7938484 12.1860468,38.6026259 12.5017339,38.4745724 L12.5017339,38.4745724 L17.0391933,36.6340244 C18.4465971,36.0631335 19.4893629,34.9758256 20.037555,33.6793896 C20.5871665,32.3795966 20.6396398,30.869591 20.0640273,29.4590546 L20.0640273,29.4590546 L18.1305507,24.8854066 C17.8616852,24.2495586 17.8760016,23.564927 18.1164963,22.9720411 C18.3569911,22.3791552 18.8236642,21.8780149 19.4595122,21.6091494 C19.7732841,21.4764724 20.1108621,21.4093239 20.4515229,21.4118262 L20.4515229,21.4118262 L25.347936,21.4477921 C26.8666781,21.4589478 28.2461628,20.8534555 29.2487508,19.8654888 C30.2539349,18.8749639 30.880268,17.4999813 30.8882603,15.9765382 L30.8882603,15.9765382 L30.8522201,11.011129 C30.8471494,10.3207917 31.1223731,9.69375322 31.5714489,9.23803138 C32.0205247,8.78230954 32.6434525,8.49790433 33.3337898,8.49283356 C33.6744506,8.49033129 34.0120286,8.55747973 34.3258006,8.69015677 L34.3258006,8.69015677 L38.8357329,10.5971611 C40.2345985,11.188665 41.740788,11.157169 43.0451371,10.6280806 C44.3528635,10.0976223 45.457703,9.06699126 46.0480833,7.66257191 L46.0480833,7.66257191 L47.9149663,3.06134 C48.1744622,2.42161099 48.668693,1.94762655 49.2579822,1.69844833 Z" stroke="#9286B5" stroke-width="3" fill="#F9F9F9"/>
    <path fill="#9286B5" d="M46.1484245 22.26015593A3.18264997 3.18264997 0 1 0 46.1484245 28.62545587A3.18264997 3.18264997 0 1 0 46.1484245 22.26015593Z"/>
    <path fill="#9286B5" d="M58.8790244 22.26015593A3.18264997 3.18264997 0 1 0 58.8790244 28.62545587A3.18264997 3.18264997 0 1 0 58.8790244 22.26015593Z"/>
    <path fill="#9286B5" d="M71.6096242 22.26015593A3.18264997 3.18264997 0 1 0 71.6096242 28.62545587A3.18264997 3.18264997 0 1 0 71.6096242 22.26015593Z"/>
    <path d="M109.394059,36.8585656 C110.084415,36.8585656 110.709415,37.1383877 111.161826,37.5907987 C111.614237,38.0432097 111.894059,38.6682097 111.894059,39.3585656 C111.894059,39.9295696 111.698591,40.4833675 111.340162,40.9278604 L111.340162,40.9278604 L105.645312,47.9901154 C104.82483,49.0076058 104.419135,50.243567 104.426845,51.476944 C104.434554,52.7103211 104.85567,53.9411138 105.688808,54.9482673 L105.688808,54.9482673 L111.184282,61.5915637 C111.624315,62.1235054 111.807078,62.783447 111.746848,63.4204115 C111.686618,64.057376 111.383394,64.6713634 110.851452,65.1113967 C110.403207,65.4821942 109.839684,65.6850653 109.25795,65.6850653 L109.25795,65.6850653 L8.41628826,65.6850653 C7.72593233,65.6850653 7.10093233,65.4052433 6.64852131,64.9528323 C6.19611029,64.5004212 5.91628826,63.8754212 5.91628826,63.1850653 C5.91628826,62.6099064 6.11460703,62.0523379 6.4778086,61.6063644 L6.4778086,61.6063644 L12.0960631,54.7077353 C12.9214037,53.6943033 13.3330832,52.4604195 13.3314027,51.227099 C13.3297222,49.9937785 12.9146816,48.7610212 12.0865822,47.7498421 L12.0865822,47.7498421 L6.5117832,40.9425434 C6.0743798,40.4084371 5.89487472,39.7476018 5.95824708,39.1109422 C6.02161944,38.4742827 6.32786923,37.8617988 6.86197558,37.4243954 C7.30876721,37.058498 7.86845556,36.8585656 8.44595338,36.8585656 L8.44595338,36.8585656 Z" stroke="#9286B5" stroke-width="3" fill="#FFF"/>
    <text font-family="Galaxy-SemiBold-E, PROJECT GALAXY E" font-size="16" font-weight="500" fill="#9286B5">
      <tspan x="28" y="56.3585656">finish</tspan>
    </text>
  </g>
</svg>
