<?xml version="1.0" standalone="no"?><!DOCTYPE svg PUBLIC "-//W3C//DTD SVG 1.1//EN" "http://www.w3.org/Graphics/SVG/1.1/DTD/svg11.dtd"><svg t="1658979037126" class="icon" viewBox="0 0 1024 1024" version="1.1" xmlns="http://www.w3.org/2000/svg" p-id="3568" xmlns:xlink="http://www.w3.org/1999/xlink" width="200" height="200"><defs><style type="text/css">@font-face { font-family: feedback-iconfont; src: url("//at.alicdn.com/t/font_1031158_u69w8yhxdu.woff2?t=1630033759944") format("woff2"), url("//at.alicdn.com/t/font_1031158_u69w8yhxdu.woff?t=1630033759944") format("woff"), url("//at.alicdn.com/t/font_1031158_u69w8yhxdu.ttf?t=1630033759944") format("truetype"); }
</style></defs><path d="M676.85548602 602.8818705c8.98251046-5.28382968 18.49340388-9.51089342 30.64621214-14.26634014 4.22706374-1.5851489 6.86897858-4.75544671 7.39736155-9.51089343 0.52838296-4.22706374-1.5851489-8.45412749-5.81221264-10.56765936-15.32310607-8.45412749-32.75974402-16.37987201-51.78153087-23.77723355 81.37097708-48.61123306 131.56735903-136.32280574 131.03897607-230.90335702 0-73.44523255-29.06106324-142.13501839-82.42774302-192.85978332-52.8382968-50.72476493-122.58484858-77.6722963-196.03008113-74.50199849-135.26603981 5.28382968-247.811612 115.18748702-256.26573947 249.92514387C247.808516 395.22736407 295.36298312 487.69438347 378.3191091 540.00429731c-163.79872008 56.00859461-281.62812195 213.46671908-293.25254724 394.17369413-0.52838296 8.98251046 2.64191484 16.90825497 8.45412748 23.77723355 5.81221265 6.34059562 14.79472311 10.03927639 23.24885059 10.03927639 16.37987201 0 30.11782918-13.2095742 31.17459512-29.5894462 13.2095742-200.25714487 172.78123054-357.18688637 364.05586495-357.18688637 43.32740338 0 86.12642378 7.92574452 126.28352936 23.77723356 12.68119123 5.28382968 26.94753137 4.22706374 38.57195666-2.11353187z m-5.81221265-149.53237995c-38.57195666 41.2138715-92.99540237 64.99110507-149.53237995 64.99110507-112.54557219 0-203.95582565-91.41025346-203.95582565-203.95582565 0-56.53697757 23.77723356-110.96042328 64.99110507-149.53237995 38.0435737-35.40165886 87.18318972-54.95182867 138.96472058-54.95182867 4.75544671 0 10.03927639 0 14.79472311 0.52838296 100.92114689 6.86897858 182.29212396 88.23995566 189.16110255 189.16110255 3.69868078 57.06536055-15.32310607 111.48880625-54.42344571 153.75944369zM795.21327085 589.14391333l-154.81620963 114.65910406 0.52838298 153.75944368c0 64.46272209 52.30991383 116.24425296 116.77263592 116.24425297h75.55876443c64.46272209 0 116.77263593-52.30991383 116.77263592-116.24425297v-153.75944368l-154.81620962-114.65910406z m90.88187049 146.36208214v122.0564656c0 29.06106324-23.77723356 52.8382968-52.83829679 52.8382968h-75.55876443c-29.06106324 0-52.8382968-23.77723356-52.8382968-52.8382968v-122.0564656l90.8818705-67.10463694 90.35348752 67.10463694z" p-id="3569"></path></svg>