<svg xmlns="http://www.w3.org/2000/svg" xmlns:xlink="http://www.w3.org/1999/xlink" viewBox="0 0 212 40" class="design-iconfont">
  <defs>
    <path id="bd5na69b5__ik5e6p0b8a" d="M0 0L11.6223682 0 11.6223682 14.110219 0 14.110219z"/>
  </defs>
  <g fill="none" fill-rule="evenodd">
    <path d="M36,18 C36,27.9411 27.9411,36 18,36 C8.0589,36 0,27.9411 0,18 C0,8.0589 8.0589,0 18,0 C27.9411,0 36,8.0589 36,18" fill="#7347F4" transform="translate(0 2)"/>
    <path d="M11.29272,19.67499 C12.89352,18.42459 15.05442,18.18279 17.71692,18.95889 C20.98392,19.91049 23.82432,19.54359 25.93482,17.89779 C26.13792,17.74029 26.33082,17.56989 26.51232,17.38809 C27.24642,16.67049 27.77322,15.76809 28.03722,14.77629 C28.39092,13.40619 28.09212,11.94939 27.22692,10.82949 C26.51322,9.84639 25.42692,9.19929 24.22212,9.03969 C22.84272,8.85879 21.35052,9.30189 20.12472,10.25589 C18.81342,11.27919 17.89872,12.69129 17.41092,14.45109 C17.26122,14.98389 17.57142,15.53739 18.10392,15.68769 C18.63762,15.83709 19.19142,15.52659 19.34202,14.99349 C19.65282,13.75209 20.35992,12.64599 21.35622,11.84319 C22.14852,11.22759 23.12142,10.92309 23.95872,11.03469 C24.62922,11.11779 25.23492,11.47569 25.63152,12.02289 C26.74482,13.49739 26.00952,15.29799 24.70902,16.31319 C23.10522,17.56329 20.94462,17.80539 18.28482,17.02929 C15.01632,16.07649 12.17322,16.44339 10.06542,18.08889 C9.03762,18.87099 8.29842,19.97169 7.96302,21.21879 C7.60872,22.58949 7.90812,24.04689 8.77452,25.16679 C9.48762,26.15289 10.57572,26.80119 11.78232,26.95929 C13.16172,27.14289 14.65512,26.69859 15.87972,25.74309 C17.21982,24.67719 18.17352,23.20119 18.59472,21.54129 C18.74412,21.00759 18.43332,20.45379 17.90022,20.30319 C17.36832,20.15199 16.81452,20.46069 16.66362,20.99289 C16.66302,20.99439 16.66272,20.99589 16.66242,20.99739 C16.35192,22.23879 15.64422,23.34459 14.64702,24.14619 C13.85472,24.76449 12.88152,25.06629 12.04302,24.95619 C11.37192,24.86589 10.76832,24.50049 10.37682,23.94789 C9.26112,22.48389 9.99612,20.68599 11.29272,19.67499" fill="#FFF" transform="translate(0 2)"/>
    <path d="M111.40448,14.8231049 L111.332814,14.9028268 L110.796149,15.5083798 C109.755876,16.6836527 108.594492,17.2561503 107.240331,17.2561503 C104.813119,17.2561503 103.04896,15.3736582 103.04896,12.7808912 C103.04896,10.2297907 104.851452,8.3086876 107.240331,8.3086876 C109.849487,8.3086876 111.40448,10.2353462 111.40448,13.4250552 L111.40448,14.8231049 Z M107.190887,5.62811349 C103.156181,5.62811349 100.22786,8.64174177 100.22786,12.7975578 C100.205082,14.6669944 100.906191,16.4728203 102.184796,17.8367035 C103.48868,19.2333643 105.324506,20.0108611 107.235053,19.9750279 C108.736714,19.9875278 110.200319,19.5039187 111.398925,18.5992003 L111.398925,19.7330844 L114.170302,19.7330844 L114.170302,13.4828327 L114.175858,13.4828327 C114.175858,11.5561741 113.873081,10.1803465 113.201695,9.06562889 C111.953922,6.93036001 109.663932,5.62092102 107.190887,5.62811349 L107.190887,5.62811349 Z" fill="#000" transform="translate(46 10)"/>
    <path d="M11.903006,0.0274998854 C11.5591185,0 11.2288421,0 10.9066212,0 C7.58774616,0 4.82997988,0.902774016 2.92554337,2.61165578 C1.02110686,4.32081533 0,6.84747147 0,9.86912555 C0,12.8910574 1.00166249,15.4202135 2.92832113,17.1485397 C4.85470199,18.8771436 7.60691275,19.7688065 10.909399,19.7688065 C11.2038422,19.7688065 11.5368964,19.7688065 11.8810616,19.7385289 L12.1560605,19.7163067 L12.662725,19.6751958 L12.662725,16.9560405 L12.070783,16.9999292 L11.7627288,17.0249291 C11.4571745,17.0496512 11.1185648,17.0496512 10.8213438,17.0496512 C5.71053176,17.0496512 2.89526571,14.4982729 2.89526571,9.86912555 C2.89526571,5.23997817 5.68303188,2.7135998 10.7443997,2.7135998 C11.0827316,2.7135998 11.4352301,2.7135998 11.7655065,2.73832192 L12.0930052,2.76304404 L12.6846694,2.80443276 L12.6846694,0.0936107211 L12.1782826,0.0494442384 L11.903006,0.0274998854 Z" fill="#000" transform="translate(46 10)"/>
    <path d="M20.7566913,17.2587892 C18.4228121,17.2587892 16.5650421,15.2882419 16.5650421,12.7838078 C16.5650421,10.2793738 18.4064233,8.31160426 20.7566913,8.31160426 C23.1069593,8.31160426 24.9208406,10.2710405 24.9208406,12.7838078 C24.9208406,15.2910196 23.0905705,17.2587892 20.7566913,17.2587892 M20.7566913,5.62826249 C18.8955879,5.62689322 17.1133731,6.37939009 15.8164341,7.71438452 C13.0578345,10.5385394 13.0578345,15.0485206 15.8164341,17.8723978 C18.4600342,20.6023864 22.8158494,20.6726639 25.5455602,18.0290638 C25.5986156,17.9776751 25.6508376,17.9254531 25.7022262,17.8723978 C28.4330482,15.0349096 28.4330482,10.5465949 25.7022262,7.70882899 C24.4033428,6.37466788 22.6189058,5.62383768 20.7566913,5.62826249" fill="#000" transform="translate(46 10)"/>
    <path d="M31.3390361,1.69779848 C31.3270917,1.69779848 31.3148695,1.69779848 31.3029251,1.69807626 C30.4259843,1.68890963 29.707654,2.39251781 29.6984874,3.2694586 C29.6982096,3.28056966 29.6982096,3.29140295 29.6984874,3.30251402 C29.6615431,4.19556585 30.3557069,4.9494516 31.2487587,4.98611811 C32.1415327,5.0230624 32.8954185,4.32889863 32.9323628,3.43612457 C32.9340294,3.39168031 32.9340294,3.34695828 32.9323628,3.30251402 C32.9354183,2.41946214 32.222088,1.70085402 31.3390361,1.69779848" fill="#000" transform="translate(46 10)"/>
    <path fill="#000" d="M30.4800674 5.87036443L29.9295142 5.87036443 29.9295142 6.42091769 29.9295142 19.1908645 29.9295142 19.74114 30.4800674 19.74114 32.150616 19.74114 32.7011693 19.74114 32.7011693 19.1908645 32.7011693 6.42091769 32.7011693 5.87036443 32.150616 5.87036443z" transform="translate(46 10)"/>
    <path d="M41.3318,5.62817099 C39.6062516,5.62817099 38.1420911,6.23900178 37.1018176,7.39233031 C36.0615442,8.54538106 35.5301575,10.1250967 35.5301575,11.9967556 L35.5301575,19.7303345 L38.2823683,19.7303345 L38.2823683,11.682868 C38.2823683,9.63815429 39.4823633,8.31704868 41.3401333,8.31704868 C43.1979033,8.31704868 44.3976206,9.63815429 44.3976206,11.682868 L44.3976206,19.749501 L47.1498313,19.749501 L47.1498313,12.0075889 C47.1498313,10.1362078 46.5995558,8.54260329 45.578449,7.40344137 C44.5573421,6.26400168 43.0573484,5.62817099 41.3318,5.62817099" fill="#000" transform="translate(46 10)"/>
    <path d="M58.13373,6.2308907 L54.4734675,16.1386272 L50.8129272,6.2308907 L50.6809833,5.87033665 L47.7140512,5.87033665 L47.9893278,6.61338911 L52.3156987,18.2027853 C52.5084757,18.7366719 52.9651404,20 54.4843008,20 C56.0034611,20 56.4492926,18.6927832 56.6281807,18.2000075 L60.9520516,6.61338911 L61.232606,5.87033665 L58.2684517,5.87033665 L58.13373,6.2308907 Z" fill="#000" transform="translate(46 10)"/>
    <path d="M64.7829302,12.7700023 C64.7829302,10.2464018 66.6435001,8.27029887 69.0240457,8.27029887 C69.9370975,8.25529894 70.8212605,8.59001976 71.4954243,9.20585053 L64.8518409,13.6094433 C64.8048966,13.3319445 64.782119,13.0511123 64.7829302,12.7700023 L64.7829302,12.7700023 Z M73.7165262,12.103894 L73.2018061,12.103894 L73.1687507,12.6158363 L73.1495841,12.891113 C72.9787515,15.4919355 71.3054251,17.2422059 68.982657,17.2422059 C67.8854394,17.2444281 66.8343326,16.8002633 66.0710025,16.0119333 L74.9576321,10.0866802 L75.3926303,9.79501474 L75.1173537,9.3464055 L74.9659654,9.09307322 C73.6090266,6.83363819 71.5643129,5.62808766 69.0598789,5.62808766 C67.1715535,5.60392109 65.3568388,6.3583624 64.0426776,7.71419008 C61.2788002,10.5386228 61.2788002,15.0538817 64.0426776,17.8780366 C65.3368389,19.2163644 67.1182203,19.9727501 68.9798793,19.9752501 C72.8026411,19.9752501 75.7420733,17.0441512 75.9648501,13.0094458 L75.9842945,12.6847249 L76.0173499,12.103894 L73.7193039,12.103894 L73.7165262,12.103894 Z" fill="#000" transform="translate(46 10)"/>
    <path d="M85.5810045,5.87583663 C85.306839,5.84333676 85.0312846,5.82500351 84.7554524,5.82083686 C83.5390686,5.80222582 82.3496291,6.17777981 81.3646332,6.89138795 L81.3646332,5.8702811 L78.6124224,5.8702811 L78.6124224,19.7413344 L81.3646332,19.7413344 L81.3646332,12.4452537 C81.3646332,10.1252634 82.6665722,8.56471431 84.6040641,8.56471431 C84.774619,8.56471431 85.0223957,8.5838809 85.3057279,8.60610303 L85.7435038,8.63888067 L86.335168,8.68304715 L86.335168,5.95833628 L85.8535034,5.90333651 L85.5810045,5.87583663 Z" fill="#000" transform="translate(46 10)"/>
    <path d="M94.9686043,11.6195905 L92.5247256,10.9259823 C90.6752889,10.4059844 90.6752889,9.82515351 90.6752889,9.61320994 C90.6752889,9.27210026 90.6752889,8.5646032 92.2136158,8.5646032 L97.9380364,8.5646032 L97.9380364,5.87044776 L92.6016697,5.87044776 C89.6625153,5.87044776 87.9066893,7.24655314 87.9066893,9.56098794 C87.9066893,11.4873688 89.1394619,12.825141 91.5725073,13.5048604 L93.9199976,14.1598577 C95.810823,14.6718 96.069433,15.277353 96.069433,15.8579061 C96.069433,16.8817908 94.7841606,17.033179 94.016386,17.033179 L87.8789116,17.033179 L87.8789116,19.7523344 L93.2430559,19.7523344 C96.9583182,19.7523344 98.8408104,18.4173399 98.8408104,15.780962 C98.8408104,13.1443063 96.416376,12.0215332 94.9686043,11.6195905" fill="#000" transform="translate(46 10)"/>
    <path d="M119.069226,2.41912881 L116.300627,2.41912881 L116.300627,14.6360223 C116.300627,16.964346 117.2859,19.7412789 121.975603,19.7412789 L123.373653,19.7412789 L123.373653,17.0496234 L121.793937,17.0496234 C119.760057,17.0496234 119.072004,16.4137927 119.072004,14.5313006 L119.072004,8.58938088 L123.373653,8.58938088 L123.373653,5.87022554 L119.069226,5.87022554 L119.069226,2.41912881 Z" fill="#000" transform="translate(46 10)"/>
    <path fill="#000" d="M126.505556 5.87036443L125.955003 5.87036443 125.955003 6.42091769 125.955003 19.1908645 125.955003 19.74114 126.505556 19.74114 128.173327 19.74114 128.72388 19.74114 128.72388 19.1908645 128.72388 6.42091769 128.72388 5.87036443 128.173327 5.87036443z" transform="translate(46 10)"/>
    <path d="M127.361747,1.69779848 C127.349803,1.69779848 127.337858,1.69779848 127.325636,1.69807626 C126.448695,1.68890963 125.730365,2.39251781 125.721198,3.2694586 C125.721198,3.28056966 125.721198,3.29140295 125.721198,3.30251402 C125.684254,4.19556585 126.378418,4.9494516 127.27147,4.98611811 C128.164244,5.0230624 128.91813,4.32889863 128.955074,3.43612457 C128.95674,3.39168031 128.95674,3.34695828 128.955074,3.30251402 C128.958129,2.41946214 128.244799,1.70085402 127.361747,1.69779848" fill="#000" transform="translate(46 10)"/>
    <path d="M138.174702,17.2560114 L138.174702,17.2449004 C135.824434,17.2449004 133.983053,15.2771308 133.983053,12.769919 C133.983053,10.2627072 135.824434,8.29771543 138.174702,8.29771543 C140.52497,8.29771543 142.338574,10.2710405 142.338574,12.7838078 C142.338574,15.2965752 140.508581,17.2560114 138.174702,17.2560114 M138.174702,5.62825455 C136.308876,5.62300435 134.520828,6.37605677 133.220834,7.71438452 C130.459179,10.5371505 130.459179,15.0496317 133.220834,17.8723978 C135.864989,20.601553 140.220805,20.6704417 142.94996,18.026286 C143.001904,17.9760084 143.053293,17.9246198 143.103848,17.8723978 C145.834392,15.0349096 145.834392,10.5463172 143.103848,7.70882899 C141.810242,6.37661232 140.031639,5.62578211 138.174702,5.62825455" fill="#000" transform="translate(46 10)"/>
    <g transform="translate(193.441163 15.639143)">
      <mask id="bd5na69b5__zdv3h3086b" fill="#fff">
        <use xlink:href="#bd5na69b5__ik5e6p0b8a"/>
      </mask>
      <path d="M10.0344026,1.76415932 C8.99135142,0.611108565 7.52719086,0 5.80164249,0 C4.07609413,0 2.61471133,0.611108565 1.57166012,1.76415932 C0.528608909,2.91721007 0,4.49692571 0,6.36858458 L0,14.1021635 L2.75221075,14.1021635 L2.75221075,6.04386371 C2.75221075,3.99887223 3.95220575,2.67776662 5.80997579,2.67776662 C7.66746805,2.67776662 8.87024082,3.99887223 8.87024082,6.04386371 L8.87024082,14.110219 L11.6224516,14.110219 L11.6224516,6.36858458 C11.605785,4.49692571 11.061065,2.90359901 10.0344026,1.76415932" fill="#000" mask="url(#bd5na69b5__zdv3h3086b)"/>
    </g>
  </g>
</svg>
