<svg xmlns="http://www.w3.org/2000/svg" viewBox="0 0 445 106" class="design-iconfont">
  <defs>
    <linearGradient x1="50%" y1="100%" x2="50%" y2="0%" id="qm32el4ad__d6jdypurwa">
      <stop stop-color="#A03EFC" offset="0%"/>
      <stop stop-color="#7347F4" offset="100%"/>
    </linearGradient>
  </defs>
  <path d="M105.917686,98.0498447 C107.07885,98.6304269 108.020385,99.5719619 108.600967,100.733126 L110.734404,105 L95.7344041,105 L97.8678409,100.733126 C99.3497764,97.7692553 102.953815,96.5679092 105.917686,98.0498447 Z M196.041274,83.5463034 C196.987347,83.6719498 197.841047,84.1799983 198.401738,84.9527486 C199.081619,85.8327701 199.316523,86.9769967 199.038413,88.0531855 C198.830823,88.8328885 198.417134,89.541574 197.840551,90.1052446 C197.697522,90.248273 197.546051,90.3818654 197.386634,90.5060219 C195.7284,91.7987397 193.497059,92.0867829 190.930495,91.3393606 C188.838705,90.7300003 187.141237,90.9197115 185.883283,91.902038 C184.864703,92.6961431 184.287127,94.1090445 185.163672,95.2587339 C185.471084,95.6932818 185.945362,95.9803317 186.472779,96.0513492 C187.131801,96.1377622 187.896109,95.9008715 188.518382,95.4146745 C189.302058,94.7849526 189.858279,93.9163535 190.101626,92.9409798 C190.102122,92.9399866 190.102619,92.9384967 190.102619,92.9375034 C190.221313,92.5193442 190.656357,92.2769907 191.074516,92.3956843 C191.493172,92.5138813 191.737512,92.9489258 191.620308,93.3680783 C191.289059,94.6722185 190.53965,95.8318405 189.486803,96.6696487 C188.524838,97.4200508 187.35131,97.769179 186.267672,97.6251574 C185.320109,97.5005043 184.465416,96.9914625 183.904725,96.2167257 C183.224347,95.3367042 182.988946,94.1914844 183.267554,93.114799 C183.530765,92.1349556 184.111818,91.2703295 184.919332,90.656003 C186.575084,89.3632852 188.808908,89.0747454 191.376465,89.823161 C193.466268,90.4330179 195.163736,90.2433067 196.423676,89.2609802 C197.445236,88.4633987 198.022812,87.0485108 197.148254,85.8903787 C196.836869,85.4603005 196.361101,85.1792101 195.834181,85.1136555 C195.176151,85.0262493 194.411844,85.2656231 193.789571,85.7493369 C193.006889,86.3800521 192.451164,87.2486512 192.20732,88.2240249 C192.088627,88.6426807 191.653582,88.8870208 191.23443,88.7693204 C190.816271,88.6511233 190.572427,88.2165755 190.690128,87.7979197 C191.073026,86.4153125 191.791644,85.3058498 192.822144,84.5018121 C193.785102,83.7524033 194.957636,83.4042683 196.041274,83.5463034 Z M272.734404,83 C276.600397,83 279.734404,86.1340068 279.734404,90 C279.734404,93.8659932 276.600397,97 272.734404,97 C268.868411,97 265.734404,93.8659932 265.734404,90 C265.734404,86.1340068 268.868411,83 272.734404,83 Z M118.112064,64.5504092 L118.411504,64.5526668 C120.225942,64.6131337 121.989001,65.1613849 123.516586,66.1401502 C123.902544,66.3813236 124.272089,66.6457819 124.624969,66.9324364 C128.298335,69.9135422 130.059192,74.6595942 129.719634,80.6646561 C129.442451,85.5589754 130.717518,89.1843698 133.507805,91.4450287 C135.764291,93.276167 139.154176,93.8272804 141.231023,91.3236983 C142.028103,90.4298079 142.417361,89.2447455 142.306108,88.0525273 C142.161996,86.5639929 141.255807,85.0082762 139.874944,83.8901315 C138.097735,82.4907803 135.911951,81.7109909 133.65044,81.6711693 C133.648011,81.6705833 133.644493,81.6702486 133.642316,81.6707513 C132.665496,81.6221824 131.913983,80.791085 131.962552,79.8142653 C132.009781,78.8366083 132.839873,78.0807402 133.818116,78.1255401 C136.844883,78.1916721 139.766466,79.2476946 142.136109,81.1318381 C144.268129,82.8609766 145.627503,85.2570316 145.860232,87.7056221 C146.06655,89.8460865 145.383156,91.9775054 143.968463,93.5988516 C142.383529,95.53588 139.991972,96.6315982 137.490505,96.5657519 C135.209141,96.4846417 133.019499,95.6484029 131.263976,94.1889986 C127.591867,91.2133366 125.828664,86.4620921 126.169897,80.45435 C126.449173,75.5641343 125.174107,71.93874 122.382815,69.673726 C120.117198,67.8378146 116.722959,67.2877066 114.626597,69.7912069 C113.841327,70.6915452 113.465888,71.8768576 113.588866,73.065222 C113.730298,74.5520816 114.641931,76.1065415 116.01735,77.225943 C117.796234,78.6226139 119.981767,79.4013145 122.243529,79.4422249 C123.221438,79.4905424 123.977306,80.3206344 123.931417,81.2991289 C123.883937,82.2756971 123.054682,83.0302251 122.077277,82.984085 C118.852342,82.8444362 116.056309,81.8305299 113.772014,79.9782883 C111.641669,78.2464697 110.284975,75.8520894 110.047891,73.4045044 C109.844505,71.2668035 110.526224,69.1380649 111.936562,67.5177242 C113.394932,65.7366597 115.534185,64.6681057 117.813951,64.5591576 L118.112064,64.5504092 Z M327.951589,79.718523 C329.346373,80.6415108 330.3002,82.0978551 330.587766,83.7465642 C330.982817,85.6526923 330.474522,87.6345843 329.210325,89.1143582 C328.044635,90.4536207 326.467406,91.3678279 324.725996,91.7146116 C321.129973,92.477705 317.395061,91.217869 313.930724,88.0709938 C311.111547,85.5085652 308.29608,84.5047481 305.560741,85.0832765 C303.342076,85.554095 301.348182,87.33647 301.835306,89.8290012 C301.995145,90.7443453 302.527837,91.5514544 303.306334,92.0587913 C304.274288,92.7010787 305.660095,92.9109084 307.009942,92.627456 C308.724869,92.2358454 310.265307,91.2959588 311.397104,89.948868 C311.904967,89.3814244 312.77669,89.3308486 313.345676,89.8375309 C313.91272,90.3442324 313.962895,91.2147926 313.456594,91.7829982 C311.79367,93.6639459 309.81224,94.8577209 307.574561,95.3318365 C305.485026,95.771841 303.373687,95.4199097 301.778206,94.3651917 C300.386528,93.4417845 299.433501,91.9877645 299.144411,90.3421799 C298.750141,88.4364328 299.258455,86.4564841 300.52149,84.9771104 C301.446155,83.909976 302.640511,83.1126537 303.979832,82.6683873 C304.314523,82.5531437 304.655256,82.4592184 305.001248,82.3862306 C308.601176,81.6250421 312.331801,82.8837543 315.795338,86.0283052 C318.618021,88.5914767 321.433488,89.5952938 324.165702,89.0152415 C326.377013,88.547605 328.369383,86.7683545 327.872658,84.2875788 C327.722497,83.3682523 327.19672,82.5529124 326.421633,82.036602 C325.451354,81.395115 324.067452,81.1813796 322.715701,81.4687377 C320.999974,81.8580241 319.458754,82.7975297 318.327739,84.1450014 L318.32351,84.1497074 C317.816027,84.7163699 316.945829,84.7638211 316.379166,84.2563385 C315.811341,83.749256 315.760766,82.8775337 316.266667,82.308166 C317.788157,80.5110155 319.856497,79.2619667 322.155234,78.7518782 C324.243969,78.3095494 326.357632,78.6606804 327.951589,79.718523 Z M242.181274,58.1126641 L242.483971,58.1221679 C244.722613,58.1734108 246.810826,59.2557749 248.142482,61.0547139 C249.099545,62.367594 249.684309,63.9129967 249.835728,65.5295419 C249.878302,65.9346042 249.895412,66.3409209 249.887686,66.7477148 C249.809296,70.9807262 247.432504,74.8374488 243.010572,77.9066119 C239.406316,80.4077746 237.552169,83.3044599 237.495295,86.5177663 C237.447216,89.117976 238.926296,91.8122133 241.83614,91.8974274 C242.905692,91.9670294 243.955883,91.5886021 244.735353,90.8532659 C245.705685,89.931495 246.30351,88.4352815 246.331223,86.845413 C246.338869,84.8210984 245.68448,82.8500136 244.466532,81.2332268 C244.465607,81.231191 244.463905,81.2285259 244.462351,81.2272673 C243.958401,80.5116416 244.130439,79.5237534 244.846064,79.0198041 C245.561542,78.5144483 246.551948,78.6833771 247.059339,79.39793 C248.680368,81.5688817 249.545359,84.2110581 249.522245,86.920271 C249.477519,89.3765058 248.536769,91.655314 246.938219,93.1685436 C245.542412,94.4933786 243.662777,95.1857934 241.739927,95.0814514 C239.500655,95.0309856 237.410259,93.94814 236.078455,92.1477945 C234.878686,90.494258 234.26198,88.4893504 234.323925,86.4472418 C234.399168,82.2181162 236.77833,78.3568785 241.203075,75.2874197 C244.805591,72.7899949 246.659738,69.8933097 246.719129,66.6768946 C246.765545,64.0676168 245.283355,61.3708623 242.362818,61.2718412 C241.295226,61.2141202 240.252472,61.6024307 239.48218,62.3439123 C238.511553,63.2628703 237.917613,64.7622304 237.886015,66.3489523 C237.881181,68.3729712 238.5362,70.3432789 239.753518,71.9608428 C240.258245,72.6770978 240.089316,73.6675033 239.373986,74.1742656 C238.659137,74.6788442 237.670138,74.5097675 237.164153,73.7950669 C235.485785,71.4438594 234.660267,68.9134274 234.707908,66.2819798 C234.755447,63.8254493 235.696493,61.5494541 237.291934,60.0337073 C238.540515,58.8515407 240.174442,58.1730233 241.879675,58.1162119 L242.181274,58.1126641 Z M375.547576,73.9214456 C379.385005,74.8087461 382.441308,77.7232903 384.380411,82.3477149 C385.957675,86.1124845 388.237084,88.3620933 391.155179,89.0388925 C393.522789,89.5863303 396.266017,88.7584114 396.92163,86.1174817 C397.180892,85.1562662 397.029088,84.1313219 396.502857,83.2861678 C395.853762,82.2241836 394.603095,81.392929 393.163985,81.056956 C391.321393,80.6606995 389.399973,80.8758519 387.690979,81.6714531 C386.94088,81.9925025 386.071498,81.6468933 385.748415,80.8972423 C385.427228,80.1484526 385.7727,79.2803805 386.521627,78.9578838 C388.988102,77.8843813 391.452706,77.6223754 393.840273,78.175221 C396.06854,78.6941099 397.959387,79.9918759 399.031087,81.7384958 C399.964345,83.2653242 400.231388,85.1087774 399.766978,86.8376139 C399.286899,88.8667059 397.896772,90.5591558 396.000441,91.4237839 C394.619347,92.0413255 393.098543,92.2747499 391.596837,92.0997006 C391.219654,92.060057 390.846258,91.9969771 390.477235,91.9111845 C386.636876,91.0202658 383.584226,88.1087539 381.644848,83.4869486 C380.064516,79.7198704 377.785108,77.4702616 374.869357,76.796357 C372.510328,76.2491591 369.769995,77.074734 369.129028,79.7085962 C368.858565,80.6692965 368.999928,81.6991019 369.518784,82.5514258 C370.170498,83.6136853 371.417547,84.4478698 372.860275,84.7809128 C374.702592,85.1797887 376.624598,84.9653599 378.333006,84.1690351 C378.335039,84.1685867 378.337796,84.1675524 378.339243,84.1663804 C379.088619,83.8459169 379.955106,84.1938701 380.27557,84.9432459 C380.597343,85.6927593 380.251734,86.562141 379.502669,86.8859474 C377.211476,87.9421212 374.63745,88.218447 372.174304,87.6728852 C369.945762,87.1566157 368.052296,85.8585744 366.98349,84.1096105 C366.047028,82.5817831 365.780259,80.7357106 366.247564,79.00453 C366.727057,76.9747144 368.118046,75.2803688 370.015686,74.4158783 C371.754047,73.6432258 373.699564,73.4696679 375.547576,73.9214456 Z M433.917686,85.0498447 C435.07885,85.6304269 436.020385,86.5719619 436.600967,87.7331263 L438.734404,92 L423.734404,92 L425.867841,87.7331263 C427.349776,84.7692553 430.953815,83.5679092 433.917686,85.0498447 Z M-1.20792265e-13,74.919079 L14.8153251,77.2655959 L5.06114558,90.9076626 L-1.20792265e-13,74.919079 Z M79.0412741,73.5463034 C79.9873469,73.6719498 80.8410472,74.1799983 81.4017381,74.9527486 C82.0816193,75.8327701 82.3165234,76.9769967 82.0384128,78.0531855 C81.8308231,78.8328885 81.4171335,79.541574 80.8405506,80.1052446 C80.6975223,80.248273 80.5460513,80.3818654 80.3866343,80.5060219 C78.7283997,81.7987397 76.4970585,82.0867829 73.9304947,81.3393606 C71.8387055,80.7300003 70.1412374,80.9197115 68.8832834,81.902038 C67.8647032,82.6961431 67.287127,84.1090445 68.1636721,85.2587339 C68.4710837,85.6932818 68.9453617,85.9803317 69.4727786,86.0513492 C70.1318015,86.1377622 70.8961091,85.9008715 71.5183816,85.4146745 C72.3020576,84.7849526 72.8582789,83.9163535 73.1016257,82.9409798 C73.1021223,82.9399866 73.102619,82.9384967 73.102619,82.9375034 C73.2213126,82.5193442 73.6563571,82.2769907 74.0745163,82.3956843 C74.4931721,82.5138813 74.7375122,82.9489258 74.6203084,83.3680783 C74.2890588,84.6722185 73.5396499,85.8318405 72.4868026,86.6696487 C71.5248378,87.4200508 70.3513102,87.769179 69.267672,87.6251574 C68.3201094,87.5005043 67.4654158,86.9914625 66.9047249,86.2167257 C66.2243471,85.3367042 65.9889463,84.1914844 66.2675536,83.114799 C66.5307655,82.1349556 67.111818,81.2703295 67.9193321,80.656003 C69.5750836,79.3632852 71.8089079,79.0747454 74.376465,79.823161 C76.4662677,80.4330179 78.1637358,80.2433067 79.4236763,79.2609802 C80.4452362,78.4633987 81.0228124,77.0485108 80.1482538,75.8903787 C79.8368692,75.4603005 79.3611014,75.1792101 78.8341811,75.1136555 C78.1761514,75.0262493 77.4118438,75.2656231 76.7895713,75.7493369 C76.0068885,76.3800521 75.4511639,77.2486512 75.2073205,78.2240249 C75.0886268,78.6426807 74.6535823,78.8870208 74.2344299,78.7693204 C73.8162707,78.6511233 73.5724273,78.2165755 73.6901277,77.7979197 C74.0730264,76.4153125 74.7916444,75.3058498 75.8221436,74.5018121 C76.7851017,73.7524033 77.9576359,73.4042683 79.0412741,73.5463034 Z M158.734404,63 C160.943543,63 162.734404,64.790861 162.734404,67 C162.734404,69.209139 160.943543,71 158.734404,71 C156.525265,71 154.734404,69.209139 154.734404,67 C154.734404,64.790861 156.525265,63 158.734404,63 Z M326.123915,31.0115165 C328.132056,32.0036111 329.568968,33.8684422 330.015133,36.062954 C330.403679,38.0686113 330.115294,40.146306 329.19612,41.9709057 C327.340621,45.771996 323.552539,48.2659888 318.245148,49.177885 C313.924703,49.9188317 311.020083,51.7605236 309.60694,54.6504858 C308.462145,56.9956785 308.665767,60.0661684 311.270825,61.3901845 C312.213998,61.8936814 313.323161,61.9824393 314.334646,61.6359683 C315.602702,61.2133143 316.774651,60.1054424 317.473866,58.6807379 C318.333635,56.8483966 318.572674,54.7858685 318.153021,52.8053967 C317.998286,51.9429426 318.569951,51.1167229 319.432427,50.9597518 C320.293544,50.8045563 321.118426,51.3757608 321.274959,52.2373382 C321.802414,55.0775649 321.48118,57.7197939 320.325906,60.0845616 C319.244646,62.2908435 317.429891,63.9558924 315.343349,64.6553631 C313.520238,65.2630652 311.526757,65.0971589 309.829913,64.1935564 C307.822671,63.2010235 306.387534,61.3375515 305.940908,59.144377 C305.628362,57.5500312 305.751501,55.9022889 306.29745,54.3732088 C306.430052,53.9881052 306.586262,53.6126264 306.765182,53.2472108 C308.625176,49.4439286 312.409202,46.9530265 317.713918,46.0402095 C322.03752,45.2966105 324.94214,43.4549186 326.351688,40.5667098 C327.494159,38.2304389 327.29229,35.1635442 324.69109,33.8565611 C323.751161,33.341468 322.639434,33.2406095 321.622228,33.5776321 C320.353252,34.0029605 319.179111,35.1063384 318.482087,36.5355369 C317.670377,38.2592268 317.410089,40.1880231 317.732892,42.0597427 L317.800258,42.4099572 C317.955826,43.2786808 317.382408,44.1013054 316.520852,44.2556022 C315.658837,44.4112361 314.832617,43.8395711 314.674747,42.9775333 C314.12308,40.3249066 314.455764,37.5647204 315.621675,35.119108 C316.70026,32.9119053 318.515936,31.2441821 320.604232,30.5483065 C322.429162,29.9374917 324.425317,30.1043188 326.123915,31.0115165 Z M65.031003,44.4791747 C66.6358709,45.5411841 67.733365,47.2168848 68.0642445,49.1139245 C68.5187986,51.307156 67.9339432,53.587563 66.4793311,55.2902223 C65.1380639,56.8312062 63.3232707,57.8831124 61.3195665,58.2821292 C57.1819071,59.1601607 52.8844378,57.7105666 48.8982979,54.0897051 C45.6544923,51.1413203 42.4149565,49.986307 39.2676179,50.651974 C36.7147745,51.1937078 34.4205576,53.2445464 34.9810524,56.1125057 C35.1649668,57.1657201 35.7778935,58.0943971 36.673649,58.6781497 C37.7873978,59.4171792 39.3819367,59.6586137 40.9350991,59.3324673 C42.9083299,58.8818718 44.6807916,57.8004183 45.9830604,56.250427 C46.567419,55.5975144 47.5704412,55.5393208 48.2251294,56.1223203 C48.8775817,56.7053417 48.9353148,57.7070268 48.3527537,58.3608162 C46.4393583,60.5250747 44.1594821,61.8986575 41.5847616,62.4441849 C39.1804979,62.9504635 36.751147,62.5455238 34.9153525,61.3319429 C33.3140577,60.269451 32.2174845,58.5964247 31.8848515,56.7029801 C31.4311961,54.510187 32.0160737,52.2320159 33.4693486,50.5298171 C34.5332872,49.3019496 35.9075383,48.3845336 37.4485894,47.8733513 C37.833693,47.7407495 38.225747,47.6326771 38.6238527,47.5486957 C42.7660061,46.6728561 47.058543,48.1211571 51.0437621,51.7393442 C54.2916012,54.6885838 57.531137,55.843597 60.6748805,55.1761765 C63.2192625,54.6381041 65.5117259,52.5908606 64.9401836,49.7364273 C64.7674049,48.6786308 64.1624351,47.7404834 63.2706029,47.1464057 C62.1541798,46.408297 60.5618327,46.1623686 59.0064784,46.4930089 C57.0323268,46.9409301 55.2589663,48.0219452 53.9575963,49.5723749 C53.9558207,49.5737341 53.9536068,49.5759921 53.9527301,49.5777897 C53.3688098,50.2298035 52.3675411,50.2844019 51.7155272,49.7004816 C51.0621762,49.1170218 51.0039826,48.1139996 51.5860833,47.458873 C53.3367415,45.3910334 55.7166184,43.9538514 58.3615939,43.3669326 C60.7649368,42.8579797 63.196962,43.2619985 65.031003,44.4791747 Z M182.290464,47.2119 C185.488321,47.951317 188.035241,50.3801039 189.65116,54.233791 C190.965547,57.371099 192.865054,59.245773 195.296799,59.8097724 C197.269809,60.2659706 199.555832,59.5760381 200.102176,57.3752633 C200.318227,56.5742504 200.191724,55.7201302 199.753198,55.0158351 C199.212286,54.1308483 198.170063,53.4381361 196.970805,53.1581586 C195.435311,52.8279448 193.834128,53.0072385 192.409967,53.6702395 C191.784884,53.9377807 191.060399,53.6497731 190.791163,53.0250639 C190.523508,52.4010724 190.8114,51.677679 191.435507,51.4089318 C193.490903,50.5143464 195.544739,50.2960081 197.534378,50.7567128 C199.391268,51.1891202 200.966973,52.2705918 201.860057,53.7261084 C202.637771,54.9984654 202.860307,56.5346764 202.473299,57.9753736 C202.073233,59.6662835 200.914794,61.0766584 199.334518,61.7971819 C198.183606,62.3117998 196.91627,62.5063202 195.664848,62.3604458 C195.350529,62.3274094 195.039365,62.2748429 194.731846,62.2033491 C191.531548,61.4609168 188.987672,59.0346568 187.371524,55.1831524 C186.054581,52.0439206 184.155074,50.1692466 181.725282,49.6076594 C179.759424,49.1516612 177.475813,49.8396403 176.941674,52.0345255 C176.716289,52.835109 176.83409,53.6932802 177.26647,54.4035501 C177.809566,55.2887663 178.848774,55.9839201 180.051047,56.2614559 C181.586311,56.5938525 183.187982,56.4151619 184.611656,55.7515578 C184.61335,55.7511842 184.615647,55.7503222 184.616854,55.7493456 C185.241333,55.4822927 185.963406,55.7722537 186.230459,56.3967335 C186.498603,57.021328 186.210595,57.7458128 185.586374,58.0156514 C183.677047,58.8957963 181.532026,59.1260677 179.479404,58.671433 C177.622286,58.2412084 176.044398,57.1595073 175.153726,55.7020373 C174.37334,54.4288479 174.151034,52.8904541 174.540454,51.4478036 C174.940032,49.7562906 176.099189,48.344336 177.680556,47.6239272 C179.12919,46.9800501 180.750454,46.8354186 182.290464,47.2119 Z M285.920481,34.609784 C287.263762,35.3251078 288.331398,36.466096 288.956793,37.8536124 C290.287477,40.7097818 289.955442,44.0720001 287.995229,47.5720909 C286.398735,50.4206708 286.103237,52.9656275 287.113824,55.138563 C287.934832,56.9007544 289.807879,58.2223345 291.795652,57.3349035 C292.529305,57.0249176 293.10067,56.4244041 293.374279,55.6764009 C293.724065,54.7441475 293.632104,53.5462988 293.135101,52.4735953 C292.477374,51.1168412 291.395385,50.0115306 290.052102,49.326023 C289.480264,49.0112801 289.269943,48.2929918 289.583402,47.7200926 C289.897251,47.1488127 290.614646,46.9390501 291.186819,47.2523413 C293.078376,48.2784973 294.457436,49.7031594 295.284863,51.4805944 C296.055238,53.1408811 296.168412,54.9720746 295.595172,56.5079451 C295.092303,57.8482861 294.0617,58.9245871 292.743091,59.4833213 C291.227481,60.1800624 289.475868,60.1372953 287.996801,59.3676866 C286.927268,58.8011902 286.031075,57.9574308 285.401794,56.9245257 C285.241012,56.6672203 285.09687,56.4007595 284.969199,56.1258691 C283.639354,53.2660705 283.971276,49.907649 285.929702,46.4086747 C287.526141,43.5570239 287.821639,41.0120671 286.810381,38.842035 C285.993449,37.0853718 284.123305,35.7644619 282.147201,36.6576451 C281.408357,36.960316 280.828784,37.5566411 280.547023,38.3035268 C280.198354,39.237567 280.286685,40.4345779 280.787317,41.5081193 C281.443258,42.8659899 282.525079,43.9720263 283.86853,44.6568081 C283.869814,44.6578691 283.871824,44.6590977 283.873276,44.6594328 C284.444388,44.9740081 284.651805,45.6916262 284.33723,46.2627385 C284.023213,46.8347442 283.304925,47.0450651 282.731858,46.7323321 C280.937558,45.808141 279.495577,44.3215514 278.626332,42.5000582 C277.854171,40.840888 277.73988,39.0079078 278.316024,37.4727075 C278.817944,36.1298538 279.850333,35.0524363 281.171846,34.4943724 C282.687623,33.7969054 284.440856,33.8392819 285.920481,34.609784 Z M98.7344041,39 C102.600397,39 105.734404,42.1340068 105.734404,46 C105.734404,49.8659932 102.600397,53 98.7344041,53 C94.8684108,53 91.7344041,49.8659932 91.7344041,46 C91.7344041,42.1340068 94.8684108,39 98.7344041,39 Z M440.430328,33.0392151 C441.603078,33.2579499 442.635505,33.9479892 443.284855,34.9492836 C444.07597,36.0922807 444.294343,37.5359712 443.876777,38.8611697 C443.566637,39.8208822 443.003872,40.6784615 442.247255,41.3443642 C442.059358,41.5135477 441.861539,41.6704001 441.654419,41.814954 C439.499897,43.3201551 436.695699,43.5337414 433.540787,42.4328395 C430.969498,41.5353383 428.83816,41.661104 427.203609,42.805034 C425.880178,43.7296697 425.066766,45.4555909 426.085733,46.9480768 C426.441043,47.510628 427.014299,47.8999759 427.668021,48.0231297 C428.485017,48.1741111 429.45459,47.9284046 430.263171,47.3622003 C431.209802,46.6798808 431.925092,45.7276206 432.316748,44.6329752 L432.401343,44.3778953 C432.57833,43.859403 433.137245,43.5853368 433.651463,43.7608565 C434.166333,43.9357887 434.442879,44.4948338 434.269154,45.0103888 C433.770343,46.6166596 432.759003,48.0151743 431.389938,48.9921222 C430.140039,49.8659076 428.6523,50.2249476 427.30903,49.9742758 C426.134355,49.7566834 425.100754,49.0653392 424.451534,48.0615651 C423.659798,46.9185355 423.440871,45.4735727 423.859089,44.1477868 C424.251754,42.9418805 425.033638,41.9005915 426.081837,41.1865632 C428.233259,39.6811997 431.040589,39.4671559 434.196676,40.5693627 C436.765452,41.4673539 438.896791,41.3415882 440.533822,40.1977881 C441.861199,39.2690079 442.674742,37.5406069 441.658807,36.0377122 C441.298245,35.4804804 440.722739,35.0984742 440.06928,34.9821721 C439.253588,34.8300159 438.283853,35.0788221 437.475434,35.6419267 C436.45716,36.3780371 435.706633,37.4259425 435.338437,38.6275366 C435.162885,39.1423742 434.60384,39.4189201 434.088318,39.2445753 C433.574067,39.0696756 433.298109,38.511283 433.472421,37.9963803 C434.040839,36.2955391 435.010461,34.9576232 436.34942,34.0213687 C437.600494,33.1488881 439.086928,32.791023 440.430328,33.0392151 Z M254.734404,32 C257.495828,32 259.734404,34.2385763 259.734404,37 C259.734404,39.7614237 257.495828,42 254.734404,42 C251.97298,42 249.734404,39.7614237 249.734404,37 C249.734404,34.2385763 251.97298,32 254.734404,32 Z M155.123915,4.01151652 C157.132056,5.0036111 158.568968,6.86844224 159.015133,9.06295395 C159.403679,11.0686113 159.115294,13.146306 158.19612,14.9709057 C156.340621,18.771996 152.552539,21.2659888 147.245148,22.177885 C142.924703,22.9188317 140.020083,24.7605236 138.60694,27.6504858 C137.462145,29.9956785 137.665767,33.0661684 140.270825,34.3901845 C141.213998,34.8936814 142.323161,34.9824393 143.334646,34.6359683 C144.602702,34.2133143 145.774651,33.1054424 146.473866,31.6807379 C147.333635,29.8483966 147.572674,27.7858685 147.153021,25.8053967 C146.998286,24.9429426 147.569951,24.1167229 148.432427,23.9597518 C149.293544,23.8045563 150.118426,24.3757608 150.274959,25.2373382 C150.802414,28.0775649 150.48118,30.7197939 149.325906,33.0845616 C148.244646,35.2908435 146.429891,36.9558924 144.343349,37.6553631 C142.520238,38.2630652 140.526757,38.0971589 138.829913,37.1935564 C136.822671,36.2010235 135.387534,34.3375515 134.940908,32.144377 C134.628362,30.5500312 134.751501,28.9022889 135.29745,27.3732088 C135.430052,26.9881052 135.586262,26.6126264 135.765182,26.2472108 C137.625176,22.4439286 141.409202,19.9530265 146.713918,19.0402095 C151.03752,18.2966105 153.94214,16.4549186 155.351688,13.5667098 C156.494159,11.2304389 156.29229,8.16354423 153.69109,6.85656109 C152.751161,6.34146804 151.639434,6.24060953 150.622228,6.57763214 C149.353252,7.00296048 148.179111,8.10633844 147.482087,9.53553686 C146.670377,11.2592268 146.410089,13.1880231 146.732892,15.0597427 L146.800258,15.4099572 C146.955826,16.2786808 146.382408,17.1013054 145.520852,17.2556022 C144.658837,17.4112361 143.832617,16.8395711 143.674747,15.9775333 C143.12308,13.3249066 143.455764,10.5647204 144.621675,8.11910804 C145.70026,5.91190532 147.515936,4.24418209 149.604232,3.54830652 C151.429162,2.93749168 153.425317,3.10431883 155.123915,4.01151652 Z M229.951589,19.718523 C231.346373,20.6415108 232.3002,22.0978551 232.587766,23.7465642 C232.982817,25.6526923 232.474522,27.6345843 231.210325,29.1143582 C230.044635,30.4536207 228.467406,31.3678279 226.725996,31.7146116 C223.129973,32.477705 219.395061,31.217869 215.930724,28.0709938 C213.111547,25.5085652 210.29608,24.5047481 207.560741,25.0832765 C205.342076,25.554095 203.348182,27.33647 203.835306,29.8290012 C203.995145,30.7443453 204.527837,31.5514544 205.306334,32.0587913 C206.274288,32.7010787 207.660095,32.9109084 209.009942,32.627456 C210.724869,32.2358454 212.265307,31.2959588 213.397104,29.948868 C213.904967,29.3814244 214.77669,29.3308486 215.345676,29.8375309 C215.91272,30.3442324 215.962895,31.2147926 215.456594,31.7829982 C213.79367,33.6639459 211.81224,34.8577209 209.574561,35.3318365 C207.485026,35.771841 205.373687,35.4199097 203.778206,34.3651917 C202.386528,33.4417845 201.433501,31.9877645 201.144411,30.3421799 C200.750141,28.4364328 201.258455,26.4564841 202.52149,24.9771104 C203.446155,23.909976 204.640511,23.1126537 205.979832,22.6683873 C206.314523,22.5531437 206.655256,22.4592184 207.001248,22.3862306 C210.601176,21.6250421 214.331801,22.8837543 217.795338,26.0283052 C220.618021,28.5914767 223.433488,29.5952938 226.165702,29.0152415 C228.377013,28.547605 230.369383,26.7683545 229.872658,24.2875788 C229.722497,23.3682523 229.19672,22.5529124 228.421633,22.036602 C227.451354,21.395115 226.067452,21.1813796 224.715701,21.4687377 C222.999974,21.8580241 221.458754,22.7975297 220.327739,24.1450014 L220.32351,24.1497074 C219.816027,24.7163699 218.945829,24.7638211 218.379166,24.2563385 C217.811341,23.749256 217.760766,22.8775337 218.266667,22.308166 C219.788157,20.5110155 221.856497,19.2619667 224.155234,18.7518782 C226.243969,18.3095494 228.357632,18.6606804 229.951589,19.718523 Z M90.9204812,0.609783993 C92.2637616,1.3251078 93.3313976,2.46609596 93.956793,3.85361237 C95.2874767,6.70978176 94.9554418,10.0720001 92.9952292,13.5720909 C91.3987348,16.4206708 91.1032372,18.9656275 92.1138241,21.138563 C92.934832,22.9007544 94.807879,24.2223345 96.7956522,23.3349035 C97.5293047,23.0249176 98.1006705,22.4244041 98.3742791,21.6764009 C98.7240648,20.7441475 98.6321045,19.5462988 98.1351013,18.4735953 C97.4773743,17.1168412 96.3953852,16.0115306 95.052102,15.326023 C94.4802638,15.0112801 94.269943,14.2929918 94.5834017,13.7200926 C94.8972512,13.1488127 95.6146461,12.9390501 96.1868194,13.2523413 C98.0783757,14.2784973 99.4574359,15.7031594 100.284863,17.4805944 C101.055238,19.1408811 101.168412,20.9720746 100.595172,22.5079451 C100.092303,23.8482861 99.0617004,24.9245871 97.7430914,25.4833213 C96.2274815,26.1800624 94.4758684,26.1372953 92.996801,25.3676866 C91.9272684,24.8011902 91.0310754,23.9574308 90.4017941,22.9245257 C90.2410119,22.6672203 90.0968695,22.4007595 89.9691994,22.1258691 C88.6393536,19.2660705 88.9712765,15.907649 90.9297022,12.4086747 C92.5261411,9.55702385 92.8216386,7.01206711 91.8103814,4.84203501 C90.993449,3.08537176 89.1233054,1.76446188 87.1472013,2.65764506 C86.4083568,2.96031601 85.8287836,3.5566411 85.5470231,4.30352682 C85.1983539,5.23756702 85.286685,6.43457791 85.7873174,7.50811928 C86.4432575,8.86598989 87.5250791,9.97202633 88.8685299,10.6568081 C88.869814,10.6578691 88.871824,10.6590977 88.8732756,10.6594328 C89.444388,10.9740081 89.6518054,11.6916262 89.3372301,12.2627385 C89.0232131,12.8347442 88.3049248,13.0450651 87.731858,12.7323321 C85.9375577,11.808141 84.4955767,10.3215514 83.6263324,8.50005819 C82.854171,6.84088802 82.7398803,5.00790775 83.3160241,3.47270752 C83.8179444,2.1298538 84.8503333,1.05243629 86.1718458,0.494372433 C87.6876232,-0.203094551 89.4408556,-0.160718149 90.9204812,0.609783993 Z M24.6046533,10.1320353 L39.7332618,17.369107 L24.8664394,25.1297508 L24.6046533,10.1320353 Z M367.234404,4 C372.481109,4 376.734404,8.25329488 376.734404,13.5 C376.734404,18.7467051 372.481109,23 367.234404,23 C361.987699,23 357.734404,18.7467051 357.734404,13.5 C357.734404,8.25329488 361.987699,4 367.234404,4 Z M331.488281,8.30710453 C332.63809,9.15994154 333.388625,10.4472886 333.562257,11.868825 C333.814248,13.5177706 333.290328,15.189741 332.142846,16.3993788 C331.303492,17.271332 330.245394,17.9002364 329.079049,18.2204332 C328.787393,18.304064 328.491524,18.369176 328.192091,18.4161303 C325.076521,18.9061928 321.93969,17.6614217 319.116075,14.814414 C316.81493,12.493797 314.450011,11.5082614 312.085302,11.8822022 C310.171512,12.1832861 308.386291,13.6168913 308.700185,15.7626392 C308.787478,16.5562895 309.20095,17.2777805 309.841239,17.7544958 C310.64299,18.3471144 311.817978,18.592146 312.987925,18.4068154 C314.473996,18.1505651 315.835377,17.4155164 316.863937,16.3128601 C316.865311,16.3119182 316.867046,16.3103248 316.867768,16.3090217 C317.327577,15.846742 318.074568,15.8451618 318.536847,16.3049709 C319.00014,16.7644897 319.004326,17.512925 318.545749,17.9775912 C317.162783,19.4476418 315.336318,20.4240033 313.34579,20.7575029 C311.538057,21.0424229 309.74458,20.6470483 308.427658,19.6700648 C307.275172,18.8174474 306.524057,17.5280749 306.35187,16.1039324 C306.099226,14.4546256 306.623217,12.780991 307.771712,11.5710628 C308.829583,10.4769888 310.220652,9.76521007 311.726801,9.54649284 C314.839113,9.05462453 317.979563,10.3005499 320.803759,13.149583 C323.101936,15.469407 325.466855,16.4549425 327.83417,16.0824463 C329.754398,15.7789686 331.541064,14.3427572 331.235915,12.1873778 C331.14016,11.3967021 330.720399,10.6819461 330.076789,10.2127589 C329.277063,9.61955952 328.100269,9.37778555 326.932128,9.55985848 C325.446638,9.81813416 324.085909,10.553544 323.056698,11.6558392 C322.596527,12.1187704 321.848092,12.1229567 321.383787,11.6637284 C320.921146,11.2045708 320.91725,10.4571481 321.376117,9.99349462 C322.883905,8.45806095 324.633499,7.52511333 326.570149,7.21966641 C328.378463,6.93677182 330.169914,7.33272718 331.488281,8.30710453 Z M262.226014,1.04516104 C263.239201,1.58470351 264.04448,2.44530895 264.516192,3.4918616 C265.519878,5.64616522 265.269436,8.18216294 263.79092,10.8221528 C262.586743,12.970732 262.36386,14.8902993 263.126109,16.5292647 C263.745365,17.8584209 265.158135,18.8552403 266.65744,18.1858837 C267.210807,17.9520727 267.641767,17.4991274 267.84814,16.9349361 C268.11197,16.2317716 268.042608,15.3282783 267.667737,14.5191775 C267.171637,13.4958278 266.355533,12.6621326 265.342344,12.1450794 C264.911027,11.9076804 264.75239,11.3659019 264.98882,10.9337851 C265.225545,10.5028897 265.76665,10.3446735 266.198219,10.5809775 C267.624951,11.3549693 268.665125,12.4295395 269.289223,13.7701935 C269.870289,15.0224867 269.955652,16.4036886 269.523278,17.5621393 C269.143982,18.5731093 268.366636,19.3849236 267.372058,19.8063562 C266.228889,20.3318825 264.907712,20.2996248 263.792106,19.7191373 C262.985397,19.2918499 262.309431,18.6554332 261.834787,17.8763507 C261.713515,17.6822748 261.604794,17.4812932 261.508497,17.2739534 C260.505443,15.1169124 260.7558,12.5837785 262.232969,9.94463078 C263.437104,7.79373531 263.659987,5.87416795 262.897233,4.23739247 C262.281051,2.91240593 260.87047,1.91609215 259.379968,2.5897874 C258.822684,2.81808098 258.385534,3.26786708 258.173012,3.83121553 C257.910024,4.53572774 257.976648,5.43858907 258.354257,6.24832188 C258.810951,7.19372979 259.541353,7.97728745 260.44802,8.49848639 L260.678302,8.62326216 C261.112651,8.8625145 261.269098,9.4037874 261.031826,9.83455643 C260.794974,10.2659993 260.253196,10.4246366 259.820953,10.1887537 C258.467578,9.49167026 257.379945,8.37039037 256.724306,6.99650495 C256.141892,5.74505386 256.055687,4.36250419 256.490251,3.20455906 C256.868831,2.19169384 257.647524,1.37903741 258.644293,0.958110344 C259.787588,0.432036626 261.109987,0.463999589 262.226014,1.04516104 Z M417.825631,6.73219584 L428.002208,13.091227 L426.793683,13.8299265 C423.966318,15.5581254 420.273303,14.6670754 418.545104,11.8397105 C417.868043,10.7320255 417.568513,9.43462103 417.691475,8.14223607 L417.825631,6.73219584 Z M192.734404,2 C196.048113,2 198.734404,4.6862915 198.734404,8 C198.734404,11.3137085 196.048113,14 192.734404,14 C189.420696,14 186.734404,11.3137085 186.734404,8 C186.734404,4.6862915 189.420696,2 192.734404,2 Z" fill="url(#qm32el4ad__d6jdypurwa)" opacity=".12" transform="translate(.847119 .48433)" fill-rule="evenodd"/>
</svg>
