<svg xmlns="http://www.w3.org/2000/svg" xmlns:xlink="http://www.w3.org/1999/xlink" viewBox="0 0 375 104" class="design-iconfont">
  <defs>
    <linearGradient x1="97.0016083%" y1="52.9983917%" x2="2.99839166%" y2="52.9983917%" id="78j10o33g__pfv7sfv32b">
      <stop stop-color="#EDE7FF" offset="0%"/>
      <stop stop-color="#EBE4FF" offset="100%"/>
    </linearGradient>
    <linearGradient x1="14.2628736%" y1="64.1352219%" x2="92.9160886%" y2="37.730056%" id="78j10o33g__vcgf1g62rf">
      <stop stop-color="#FBF9FF" offset="0%"/>
      <stop stop-color="#CAC0E9" offset="100%"/>
    </linearGradient>
    <linearGradient x1="50%" y1="0%" x2="50%" y2="100%" id="78j10o33g__d9wuc32l3g">
      <stop stop-color="#7347F4" offset="0%"/>
      <stop stop-color="#A03EFC" offset="100%"/>
    </linearGradient>
    <path id="78j10o33g__p6ob05stsa" d="M0 0H375V104H0z"/>
    <path d="M90.9336845,1.50533684 C91.09634,2.08854664 91.2868263,2.66309796 91.3870172,3.26176931 L91.3870172,3.26176931 C91.5416327,4.19069944 91.6158482,5.13570958 91.6164666,6.0893782 L91.6164666,6.0893782 C91.6164666,6.32934151 91.5923466,6.5711602 91.5824512,6.81174197 L91.5824512,6.81174197 C91.5521466,7.57183194 91.472365,8.33501421 91.3437248,9.10005188 L91.3437248,9.10005188 C91.2967217,9.3789783 91.2528109,9.65728626 91.1928201,9.93621269 L91.1928201,9.93621269 C90.9806876,10.9177121 90.7147489,11.89983 90.3368685,12.8701971 L90.3368685,12.8701971 C89.952185,13.8232472 89.4889569,14.7509404 88.9892395,15.6625536 L88.9892395,15.6625536 C88.8476117,15.9210708 88.6948515,16.1752587 88.5439468,16.4300651 L88.5439468,16.4300651 C88.2433742,16.938441 87.9050754,17.428263 87.5698689,17.9193219 L87.5698689,17.9193219 C87.0311884,18.7097166 86.4436493,19.4722804 85.8183841,20.213198 L85.8183841,20.213198 C85.5215223,20.5644845 85.2395036,20.9250479 84.9240879,21.2633467 L84.9240879,21.2633467 C84.4917828,21.7290487 84.0211332,22.1669199 83.5535758,22.6078834 L83.5535758,22.6078834 C83.0068552,23.1236808 82.479307,23.6555583 81.8868203,24.1348664 L81.8868203,24.1348664 C80.936244,24.9209318 79.9368092,25.6581387 78.8903713,26.3217485 L78.8903713,26.3217485 C77.9033057,26.9723707 76.885317,27.564239 75.8512483,28.1220918 L75.8512483,28.1220918 C75.5921127,28.2618643 75.326174,28.3861751 75.0645645,28.519763 L75.0645645,28.519763 C73.9538065,29.0887481 72.8176915,29.6076379 71.6562197,30.0721029 L71.6562197,30.0721029 C71.4100717,30.1698199 71.1701084,30.2817616 70.9214866,30.3757678 L70.9214866,30.3757678 C70.4984585,30.5353311 70.0642981,30.6726297 69.6350854,30.8192052 L69.6350854,30.8192052 C69.1075372,30.9985592 68.5818444,31.1810055 68.0444008,31.3399503 L68.0444008,31.3399503 C67.6015819,31.4710643 67.1494861,31.5823875 66.7004826,31.6992768 L66.7004826,31.6992768 C66.2069498,31.8279169 65.7140354,31.9559386 65.2136996,32.0678802 L65.2136996,32.0678802 C63.7646428,32.3907175 62.2840444,32.6374839 60.7780891,32.8180748 L60.7780891,32.8180748 C60.4682396,32.8545641 60.1552978,32.8817764 59.8435928,32.913318 L59.8435928,32.913318 C58.2764098,33.0691704 56.6900544,33.1755459 55.0672098,33.1786382 L55.0672098,33.1786382 C50.0174664,33.1891521 44.7054951,32.4612222 39.2055113,30.9880454 L39.2055113,30.9880454 C34.4835529,29.7245272 30.0448502,29.0974066 25.9030093,29.1066835 L25.9030093,29.1066835 C24.355617,29.1097758 22.8614125,29.2241913 21.3981311,29.4047823 L21.3981311,29.4047823 C20.9330475,29.4629177 20.4871363,29.5593978 20.0307113,29.6354687 L20.0307113,29.6354687 C19.3522583,29.7474103 18.6583438,29.8253365 17.9990631,29.9768598 L17.9990631,29.9768598 C17.7275583,30.0399429 17.4776996,30.1487922 17.2086685,30.2186785 L17.2086685,30.2186785 C16.5364002,30.3918479 15.8845411,30.6058358 15.232682,30.821679 L15.232682,30.821679 C14.7645062,30.9762946 14.2715919,31.0777224 13.8145483,31.2539841 L13.8145483,31.2539841 C13.4725388,31.386335 13.1521754,31.5644521 12.8163504,31.7085537 L12.8163504,31.7085537 C12.4013623,31.8866708 11.991322,32.0728279 11.5862293,32.2688804 L11.5862293,32.2688804 C11.2689582,32.422259 10.9362255,32.5416222 10.6257576,32.7061332 L10.6257576,32.7061332 C9.79825522,33.1446228 8.9899252,33.6226941 8.20200444,34.1409653 L8.20200444,34.1409653 C8.0981028,34.2096146 7.99481963,34.2788824 7.89153645,34.3500055 L7.89153645,34.3500055 C7.58292384,34.5615196 7.3027605,34.807049 7.00466175,35.0334062 L7.00466175,35.0334062 C6.66388911,35.2919234 6.314458,35.5386898 5.9910023,35.8139054 L5.9910023,35.8139054 C5.94461764,35.8528685 5.89204836,35.885647 5.84690063,35.9252286 L5.84690063,35.9252286 C5.6186881,36.1218995 5.42696484,36.3457828 5.2086477,36.5504938 L5.2086477,36.5504938 C4.82705656,36.9092018 4.44299158,37.2629622 4.09356047,37.6433164 L4.09356047,37.6433164 C4.03789888,37.7039257 3.9704865,37.756495 3.91544337,37.8177227 L3.91544337,37.8177227 C3.76886785,37.9809967 3.66311082,38.1634431 3.52271992,38.3304278 L3.52271992,38.3304278 C3.11206106,38.8196314 2.7242853,39.3144011 2.37423573,39.8295801 L2.37423573,39.8295801 C2.29445411,39.9483248 2.1868417,40.0559372 2.1101524,40.1746819 L2.1101524,40.1746819 C1.96852457,40.3948544 1.86957063,40.6261593 1.7409305,40.8500426 L1.7409305,40.8500426 C1.56899803,41.1475229 1.39892094,41.4425293 1.24987157,41.7468127 L1.24987157,41.7468127 C1.06124061,42.1314961 0.90971739,42.5205088 0.760049553,42.9119953 L0.760049553,42.9119953 C0.644397133,43.2168972 0.522560093,43.5187067 0.431646158,43.8273193 L0.431646158,43.8273193 C0.312901428,44.2311751 0.242396745,44.6375047 0.170036675,45.0456897 L0.170036675,45.0456897 C0.116230469,45.3487362 0.0469627095,45.6493088 0.0197503755,45.9535921 L0.0197503755,45.9535921 C-0.0179758148,46.380331 0.00676267063,46.805833 0.0246980726,47.2325718 L0.0246980726,47.2325718 C0.0370673153,47.5189198 0.0228426862,47.8046493 0.0618058008,48.0903788 L0.0618058008,48.0903788 C0.0692273464,48.1429481 0.0605688765,48.1961358 0.0686088843,48.2487051 L0.0686088843,48.2487051 C0.158285894,48.8337703 0.306716807,49.4169801 0.516375471,49.9927683 L0.516375471,49.9927683 C0.534310873,50.0410084 0.552246275,50.0892484 0.570181677,50.1374885 L0.570181677,50.1374885 L18.2000633,96.1813761 C17.9421646,95.5066339 17.7856937,94.8219963 17.6916875,94.1342664 L17.6916875,94.1342664 C17.6527244,93.8491554 17.6675674,93.5628074 17.6545797,93.2764594 L17.6545797,93.2764594 C17.6366443,92.850339 17.6125243,92.4236002 17.649632,91.9974797 L17.649632,91.9974797 C17.6762259,91.6938148 17.7461121,91.3926238 17.7999183,91.0901958 L17.7999183,91.0901958 C17.8722784,90.6826292 17.9427831,90.2744442 18.0615278,89.8712069 L18.0615278,89.8712069 C18.1524418,89.5632128 18.2748973,89.2601663 18.3905497,88.9552645 L18.3905497,88.9552645 C18.5389806,88.5643964 18.6917407,88.1747653 18.8797532,87.7907003 L18.8797532,87.7907003 C19.0281841,87.4876538 19.2001166,87.1901736 19.3714306,86.8926933 L19.3714306,86.8926933 C19.5693385,86.5488283 19.7777603,86.2080557 20.0041174,85.8734677 L20.0041174,85.8734677 C20.35293,85.3601441 20.7419427,84.863519 21.1507462,84.3761708 L21.1507462,84.3761708 C21.3437064,84.1467214 21.5187312,83.9092319 21.7234421,83.6865855 L21.7234421,83.6865855 C22.0722548,83.3074683 22.4557013,82.9537079 22.8360555,82.5968553 L22.8360555,82.5968553 C23.097665,82.3500889 23.3450499,82.0921902 23.6202655,81.857793 L23.6202655,81.857793 C23.9455766,81.5813404 24.2968631,81.3333371 24.6388726,81.073583 L24.6388726,81.073583 C25.03407,80.7736289 25.4175165,80.4594501 25.8318861,80.1848529 L25.8318861,80.1848529 C26.9141948,79.4723845 28.054639,78.8749501 29.2130186,78.314005 L29.2130186,78.314005 C29.6199667,78.1167155 30.0324809,77.92994 30.448706,77.7518229 L30.448706,77.7518229 C31.231679,77.4153795 32.0431013,77.1364531 32.8594714,76.8661851 L32.8594714,76.8661851 C33.5125674,76.6503418 34.1669003,76.4357355 34.8410241,76.2619476 L34.8410241,76.2619476 C35.7594403,76.0250766 36.7013582,75.8370641 37.6581191,75.6793563 L37.6581191,75.6793563 C38.1151626,75.6039039 38.5623107,75.5061869 39.0280127,75.4486699 L39.0280127,75.4486699 C40.4912941,75.2680789 41.9861171,75.1542819 43.5328909,75.1505711 L43.5328909,75.1505711 C47.6753503,75.1412942 52.1134346,75.7684148 56.835393,77.031933 L56.835393,77.031933 C62.3353768,78.5044913 67.6473481,79.2330397 72.6970914,79.2225258 L72.6970914,79.2225258 C74.3199361,79.2188151 75.9062915,79.113058 77.472856,78.9572056 L77.472856,78.9572056 C77.7851794,78.925664 78.0981213,78.8990701 78.4079708,78.8619624 L78.4079708,78.8619624 C79.9145446,78.6813715 81.3945245,78.4339866 82.8441997,78.1111494 L82.8441997,78.1111494 C82.9388244,78.0895032 83.0402522,78.0833186 83.1354954,78.0616724 L83.1354954,78.0616724 C83.5387327,77.9689031 83.9289823,77.8470661 84.3272719,77.7437829 L84.3272719,77.7437829 C84.7775123,77.6262751 85.2314636,77.5149519 85.6755194,77.3832195 L85.6755194,77.3832195 C86.2111076,77.2255116 86.7361819,77.0424468 87.2631117,76.8637113 L87.2631117,76.8637113 C87.6929429,76.7171357 88.1271033,76.5798371 88.5513683,76.419037 L88.5513683,76.419037 C88.6435192,76.3844031 88.7387623,76.3578092 88.8309132,76.3231753 L88.8309132,76.3231753 C88.9861472,76.2631845 89.1296304,76.1778367 89.2842459,76.116609 L89.2842459,76.116609 C90.4469547,75.6515255 91.5830697,75.1326357 92.6956831,74.5630321 L92.6956831,74.5630321 C92.8577202,74.4801582 93.0321265,74.4214043 93.1935451,74.336675 L93.1935451,74.336675 C93.2912621,74.2847241 93.3827945,74.2191672 93.4805115,74.1659794 L93.4805115,74.1659794 C94.5151987,73.6081266 95.5325689,73.0162583 96.5196345,72.3656361 L96.5196345,72.3656361 C96.7756778,72.2029806 97.0298657,72.0359958 97.2803429,71.8653003 L97.2803429,71.8653003 C98.0534206,71.3377521 98.7992859,70.7718592 99.516702,70.178754 L99.516702,70.178754 C99.7708899,69.9728061 100.021367,69.7637659 100.266897,69.5503965 L100.266897,69.5503965 C100.593445,69.2683778 100.869279,68.9486328 101.180365,68.6542449 L101.180365,68.6542449 C101.649778,68.2120444 102.119809,67.7741732 102.554588,67.3066159 L102.554588,67.3066159 C102.670859,67.181068 102.808776,67.0722187 102.921955,66.945434 L102.921955,66.945434 C103.117389,66.7283538 103.260253,66.479732 103.447647,66.2577041 L103.447647,66.2577041 C104.073531,65.516168 104.659215,64.7548411 105.199132,63.963828 L105.199132,63.963828 C105.341378,63.7560247 105.524443,63.571723 105.659886,63.3608274 L105.659886,63.3608274 C105.846043,63.0713871 106.000041,62.7677222 106.174447,62.4727158 L106.174447,62.4727158 C106.325352,62.2179094 106.477493,61.9649584 106.619121,61.7064412 L106.619121,61.7064412 C107.118839,60.7942096 107.582067,59.8671348 107.96675,58.9140847 L107.96675,58.9140847 C108.344631,57.9430991 108.609951,56.9622182 108.822083,55.9801003 L108.822083,55.9801003 C108.882693,55.6999369 108.926603,55.4228659 108.973607,55.1420841 L108.973607,55.1420841 C109.102865,54.3776649 109.182028,53.6169565 109.211714,52.857485 L109.211714,52.857485 C109.222228,52.6150478 109.246348,52.3738476 109.246348,52.1332658 L109.246348,52.1332658 C109.245111,51.2340219 109.195016,50.341581 109.057717,49.4646017 L109.057717,49.4646017 C109.049677,49.410177 109.025557,49.3594631 109.01628,49.3050385 L109.01628,49.3050385 C108.916708,48.7063671 108.726222,48.1318158 108.562948,47.548606 L108.562948,47.548606 C108.446058,47.1299071 108.387304,46.6963652 108.237637,46.2881801 L108.237637,46.2881801 C108.20795,46.2059247 108.177027,46.1249061 108.146723,46.0438876 L108.146723,46.0438876 L90.5162225,0 C90.7029981,0.487966626 90.7932935,1.00376405 90.9336845,1.50533684" id="78j10o33g__6q27zlm5dd"/>
  </defs>
  <g fill="none" fill-rule="evenodd">
    <g>
      <mask id="78j10o33g__c5h14p9brc" fill="#fff">
        <use xlink:href="#78j10o33g__p6ob05stsa"/>
      </mask>
      <use fill="url(#78j10o33g__pfv7sfv32b)" xlink:href="#78j10o33g__p6ob05stsa"/>
      <g mask="url(#78j10o33g__c5h14p9brc)">
        <path d="M41.7152711,6.731379 C41.4035662,5.91748283 40.9687873,5.11657436 40.3991837,4.33731207 C38.744179,1.98839287 36.0266564,0.450896 32.8613672,0.0897141126 C32.332582,0.0284863611 31.7889538,-0.00119982149 31.2341933,0 C30.4345217,0.00189248919 29.6070194,0.0897141126 28.7714771,0.215880388 C28.5445015,0.250514268 28.3199997,0.292569693 28.0911687,0.335862043 C27.8382177,0.383483627 27.5889775,0.410077499 27.3347895,0.468831402 C27.0577185,0.532533002 26.780029,0.648803884 26.5023395,0.724874727 C26.0044775,0.861554859 25.5134185,1.00689346 25.016175,1.18253671 C24.8164117,1.25304139 24.6166484,1.29014912 24.4175036,1.36683842 C24.108891,1.48558315 23.8089369,1.65009408 23.5021797,1.78430037 C23.1304839,1.94633745 22.7637359,2.10466375 22.3976063,2.28772855 C22.2343323,2.36936555 22.0661106,2.42688253 21.9040735,2.51284876 C21.2788083,2.84372601 20.6634384,3.20552636 20.0629117,3.59639443 C20.0369363,3.61371137 20.0109609,3.63164677 19.9849855,3.64958217 C18.9843137,4.33174591 18.0325005,5.065242 17.1326381,5.84326737 C17.0089457,5.94964286 16.9075179,6.07457221 16.7856808,6.18342154 C16.4115113,6.5173911 16.0769232,6.87795452 15.7213075,7.22738563 C15.2729225,7.66834913 14.7911405,8.08457415 14.374297,8.54903922 C14.2128784,8.7290117 14.0953706,8.93619651 13.9382812,9.11987977 C13.3940345,9.75627731 12.9110156,10.4229795 12.4286151,11.0971032 C12.1484517,11.4879713 11.808916,11.8448239 11.5503989,12.2468243 C11.4013495,12.4781292 11.2832232,12.7236586 11.1415954,12.9580558 C10.9882168,13.2128622 10.8447336,13.4682871 10.7000134,13.7268042 C10.0698005,14.8536422 9.49215687,16.0033633 9.03511335,17.193903 C8.84524548,17.6565126 8.57435906,18.0752115 8.25275875,18.450618 C8.2372972,18.4691719 8.22492795,18.4908181 8.20884794,18.5087535 C7.8860107,18.8755015 7.50689341,19.1927726 7.09190532,19.4587113 C7.06098221,19.4785021 7.02820372,19.4964375 6.99666215,19.5162283 C6.60579408,19.7555731 6.18152905,19.9429672 5.74180248,20.0815027 C5.67810088,20.1019119 5.61501774,20.1223212 5.55069768,20.1402566 C5.07881107,20.2707521 4.59208136,20.3523891 4.10164089,20.3530076 C3.67552048,20.3542445 3.2487816,20.3035306 2.83131966,20.1959182 C1.43297677,19.8409209 0.436015806,18.9255969 0,17.7870082 L17.6298817,63.8308958 C18.0658975,64.9694845 19.06224,65.88419 20.4612013,66.2398058 C20.8786633,66.3474182 21.3054021,66.3981321 21.7315226,66.3969172 C22.1384706,66.3969172 22.5454187,66.3480367 22.941853,66.2571227 C23.022253,66.2385689 23.0995608,66.2064088 23.1793424,66.1841442 C23.2455179,66.1662088 23.3073641,66.1457995 23.3729211,66.1247718 C23.4842442,66.0895195 23.5992782,66.0641625 23.708746,66.0221071 C23.9190231,65.9410886 24.1243526,65.8477008 24.3228789,65.7425622 C24.4267805,65.6875191 24.5244976,65.6219621 24.6253069,65.5607344 C24.6580854,65.5409436 24.6902454,65.5230082 24.7224054,65.5019804 C24.7669347,65.4735312 24.8139378,65.4500296 24.8572302,65.4203434 C25.0279257,65.304691 25.1911997,65.1791432 25.3458153,65.0449369 C25.5103262,64.9026906 25.6661787,64.750549 25.8108988,64.5891303 C25.8207942,64.577998 25.8282157,64.5643918 25.8381111,64.5532595 C25.8548096,64.5340872 25.8671789,64.5130595 25.8832589,64.4938872 C26.0255052,64.3269024 26.1640407,64.1555884 26.2827854,63.9706682 C26.4312163,63.7393634 26.559238,63.4944524 26.664995,63.2371721 C27.1214201,62.047251 27.6996822,60.8969114 28.3298951,59.7706918 C28.4739968,59.5134116 28.6187169,59.2555129 28.7714771,59.0019434 C29.1580159,58.3599797 29.6175333,57.7551237 30.0584968,57.1403724 C30.5396603,56.4687225 31.0251531,55.798928 31.5681628,55.1637674 C32.1278711,54.5081975 32.7296347,53.8829323 33.3511892,53.2712732 C33.705568,52.9218421 34.0420114,52.5606602 34.4155625,52.2266907 C35.445302,51.307656 36.5263738,50.4306766 37.6927934,49.640282 C38.4473172,49.1486046 39.2346195,48.7274319 40.0274879,48.3309977 C40.3917621,48.1491698 40.7616025,47.9896066 41.1308244,47.828188 C41.6330156,47.6086339 42.1376808,47.4057783 42.6454382,47.2264243 C43.1414448,47.0507811 43.6380699,46.9042055 44.134695,46.7681439 C44.6640986,46.6228053 45.1935022,46.4793221 45.7185765,46.3797496 C45.9474075,46.3364573 46.17562,46.2937834 46.4032141,46.2591495 C47.2375195,46.1336017 48.0656403,46.0457801 48.8640749,46.0439247 C49.4188355,46.0426878 49.9624637,46.072374 50.4912488,46.1336017 C53.656538,46.4941651 56.3734422,48.0322805 58.0290653,50.3805812 C58.598669,51.160462 59.0334479,51.9613704 59.3451528,52.7752666 L41.7152711,6.731379 Z" fill="#FFF" transform="translate(320.978355 30.287905)"/>
        <g transform="translate(281.288216 33.59189)">
          <mask id="78j10o33g__abjhxipote" fill="#fff">
            <use xlink:href="#78j10o33g__6q27zlm5dd"/>
          </mask>
        </g>
        <path d="M118.730487,61.4410452 C118.721828,61.3866206 118.698327,61.3359067 118.68905,61.281482 C118.589477,60.6828107 118.398991,60.1088778 118.235717,59.5250495 C118.118828,59.1069691 118.060074,58.6728087 117.910406,58.2646237 C117.88072,58.1829867 117.850415,58.1013497 117.818874,58.0203312 L100.18961,11.9764436 C100.375768,12.4644102 100.466063,12.9802076 100.606454,13.4817804 C100.769109,14.0649902 100.959596,14.6395415 101.059787,15.2382129 C101.214402,16.167143 101.288618,17.1121531 101.289236,18.0658218 C101.289855,18.3057851 101.265116,18.5476038 101.255221,18.7881855 C101.224916,19.5482755 101.145753,20.3120762 101.016494,21.0764954 C100.969491,21.3554219 100.92558,21.6337298 100.86559,21.9126562 C100.652839,22.8947741 100.387518,23.8762735 100.009638,24.8466406 C99.625573,25.7996908 99.1617264,26.7267655 98.662009,27.6389972 C98.5203812,27.8975143 98.367621,28.1517023 98.2173347,28.4065087 C97.9167621,28.9148846 97.5784633,29.4040881 97.2426384,29.8957655 C96.7039579,30.6855417 96.1164188,31.4487239 95.4911536,32.19026 C95.1942918,32.5415465 94.9122731,32.900873 94.5968574,33.2397903 C94.1639339,33.7054923 93.6939027,34.1433635 93.2263453,34.584327 C92.6796247,35.1007428 92.1520765,35.6320018 91.5602083,36.11131 C90.609632,36.8973753 89.6095787,37.6345822 88.5631408,38.2981921 C87.5760752,38.9488143 86.5580865,39.5406825 85.5240178,40.0991538 C85.2648822,40.2383078 84.9989435,40.3626187 84.737334,40.4962065 C83.6259575,41.0651917 82.490461,41.5840814 81.3289892,42.0485465 C81.0828412,42.146882 80.8428779,42.2588236 80.5942561,42.3522114 C80.1706096,42.5117746 79.7376861,42.6490732 79.3078549,42.7956487 C78.7803067,42.9750028 78.2539954,43.1574491 77.7177887,43.3163939 C77.2743514,43.4475078 76.8222556,43.558831 76.3732521,43.6757204 C75.8797193,43.8043605 75.3868049,43.9323822 74.8864691,44.0437053 C73.4374123,44.3665426 71.9574324,44.6139274 70.4508586,44.7945184 C70.1416276,44.8316261 69.8280673,44.8588384 69.5163623,44.8897615 C67.9491793,45.045614 66.3634424,45.1519895 64.7399793,45.1550818 C59.6902359,45.1655957 54.3782646,44.4376657 48.8782809,42.9644889 C44.1563224,41.7009708 39.7182381,41.0744686 35.5757788,41.0831271 C34.029005,41.0862194 32.534182,41.2006349 31.0709006,41.3812258 C30.605817,41.4387428 30.1599058,41.5364598 29.7034808,41.6112938 C29.0250278,41.7232354 28.3311133,41.8023986 27.6724511,41.9539218 C27.4003278,42.0163865 27.1504691,42.1258543 26.8820565,42.195122 C26.2097882,42.3682914 25.5573106,42.5822793 24.9054515,42.7981226 C24.4378941,42.9521197 23.9443614,43.0541659 23.4873178,43.2304276 C23.1453083,43.3627785 22.8255633,43.5408956 22.4891199,43.6856158 C22.0741319,43.8631144 21.6640915,44.0492715 21.2583803,44.245324 C20.9423461,44.3987026 20.6089951,44.5180658 20.2985271,44.6825767 C19.4704063,45.1210664 18.6626947,45.5991376 17.8753924,46.1174089 C17.7708723,46.1860582 17.6675891,46.2559444 17.5649244,46.3264491 C17.2550749,46.5379631 16.97553,46.7834926 16.6774312,47.0098497 C16.3366586,47.2683669 15.987846,47.5151333 15.6637718,47.790349 C15.6173871,47.8299305 15.5654363,47.8620906 15.5196701,47.9016721 C15.2920761,48.0983431 15.0997343,48.3222264 14.8814172,48.5269374 C14.4998261,48.8856454 14.1157611,49.2394057 13.76633,49.61976 C13.7106684,49.6803693 13.643256,49.7329385 13.5882129,49.7941663 C13.4416373,49.9574403 13.3358803,50.1398866 13.1954894,50.3068714 C12.7848306,50.7960749 12.3964363,51.2908447 12.0476237,51.8060236 C11.9672236,51.9247683 11.8596112,52.0317623 11.7829219,52.1517439 C11.6419125,52.371298 11.5429586,52.6026028 11.4137,52.8264861 C11.242386,53.1239664 11.0716904,53.4195913 10.9226411,53.7232562 C10.7346286,54.1079397 10.5824869,54.4969524 10.4334375,54.8890574 C10.3171666,55.1939592 10.1953296,55.4957687 10.1044157,55.8037629 C9.98567093,56.2082371 9.91516625,56.6145667 9.84280618,57.0221333 C9.78899997,57.3251797 9.71973221,57.6257523 9.69251988,57.9300357 C9.65479369,58.3567746 9.67953217,58.7822765 9.69808604,59.2090154 C9.71045528,59.4953634 9.69561219,59.7817113 9.7345753,60.0668224 C9.74199685,60.1193917 9.73333838,60.1725794 9.74137839,60.2251487 C9.83167386,60.8108323 9.97948631,61.3934237 10.189145,61.9692119 C10.2070804,62.017452 10.2250158,62.065692 10.2435696,62.113932 L27.8734513,108.158438 C27.6149341,107.483077 27.4584632,106.79844 27.364457,106.11071 C27.3254939,105.825599 27.3403369,105.539251 27.3279677,105.252903 C27.3094138,104.826164 27.2846754,104.400044 27.3224015,103.973923 C27.3496139,103.670258 27.4188816,103.369067 27.4726878,103.066639 C27.5450479,102.659073 27.6155526,102.251506 27.7342973,101.84765 C27.8252113,101.539656 27.9476668,101.23661 28.0633192,100.931708 C28.2123686,100.54084 28.3645102,100.151209 28.5525227,99.7677623 C28.7009536,99.4640974 28.8722677,99.1666171 29.0442001,98.8691368 C29.242108,98.5252719 29.4505298,98.1844992 29.6768869,97.8499112 C30.0250811,97.3365876 30.4147122,96.840581 30.8241342,96.3526144 C31.0164759,96.1231649 31.1915007,95.8856755 31.3968301,95.6630291 C31.7450243,95.2839118 32.1284708,94.9301515 32.508825,94.5726804 C32.771053,94.3265324 33.0178194,94.0686337 33.2936535,93.8342366 C33.6183461,93.557784 33.9696326,93.3097807 34.3116421,93.0500266 C34.7068395,92.7506909 35.0896675,92.4352752 35.5046556,92.1612965 C36.5869643,91.4488281 37.7274085,90.8513937 38.8857881,90.2904485 C39.2927362,90.0937776 39.704632,89.907002 40.1214755,89.7282664 C40.905067,89.3924415 41.7158708,89.1128966 42.5316224,88.8426287 C43.1853369,88.6267854 43.8396698,88.412179 44.5137936,88.2383912 C45.4322098,88.0015202 46.3747461,87.8135077 47.3308886,87.6557998 C47.7885506,87.5803474 48.2350802,87.4826304 48.7007822,87.4251134 C50.1640636,87.2445225 51.6588866,87.1307255 53.2056604,87.1270147 C57.3481198,87.1177378 61.7855856,87.7448584 66.5081625,89.0083765 C72.0081463,90.4809349 77.3201176,91.2094833 82.3698609,91.1989694 C83.9927056,91.1958771 85.579061,91.0895016 87.1456256,90.9336491 C87.4579489,90.902726 87.7708908,90.8755137 88.0801218,90.838406 C89.5873141,90.657815 91.067294,90.4104302 92.5163507,90.0875929 C92.6122124,90.0665652 92.7136402,90.0603806 92.8088833,90.038116 C93.2115022,89.9453467 93.6017518,89.8235096 94.0000414,89.7202264 C94.4502818,89.6027186 94.9036146,89.4913954 95.3482889,89.3602815 C95.8838771,89.2013367 96.4089514,89.0188904 96.9352627,88.8401548 C97.3657124,88.6935793 97.7998728,88.5556622 98.2241378,88.3954805 C98.3162887,88.3608467 98.4121503,88.3348712 98.5036827,88.2990004 C98.6589167,88.2396281 98.8023999,88.1542803 98.9570154,88.0930526 C100.119724,87.627969 101.256458,87.1090793 102.368453,86.5394757 C102.531108,86.4566017 102.704896,86.3984663 102.866315,86.3131185 C102.964032,86.2611677 103.055564,86.1956107 103.153281,86.1430414 C104.187968,85.5845701 105.205338,84.9927019 106.193022,84.3420797 C106.449066,84.1794242 106.702635,84.0124394 106.953112,83.8417438 C107.72619,83.3141956 108.472055,82.7489212 109.19009,82.1551976 C109.443659,81.9492497 109.694137,81.7402095 109.939666,81.5274585 C110.266214,81.2454398 110.542048,80.9250764 110.853135,80.6313069 C111.322547,80.188488 111.793197,79.7506168 112.227976,79.282441 C112.343628,79.1581301 112.481545,79.0486623 112.595342,78.922496 C112.790158,78.7047973 112.933023,78.456794 113.120417,78.2341476 C113.746919,77.4926115 114.332603,76.7312846 114.871902,75.94089 C115.013529,75.7330868 115.197213,75.5481666 115.332656,75.337271 C115.518813,75.0478307 115.673429,74.7441658 115.847216,74.4491594 C115.998121,74.194353 116.150263,73.9420204 116.291891,73.6828848 C116.791608,72.7706531 117.254836,71.8441968 117.63952,70.8905282 C118.0174,69.9195427 118.28272,68.9386617 118.495471,67.9565438 C118.556081,67.6763805 118.599373,67.3993095 118.646376,67.1185277 C118.775635,66.3547269 118.854798,65.5934 118.885102,64.8339285 C118.894379,64.5914914 118.919118,64.3502911 118.919118,64.1097094 C118.919118,63.2110839 118.867785,62.3180245 118.730487,61.4410452 Z" stroke="#7347F4" stroke-width="4" fill="url(#78j10o33g__vcgf1g62rf)" transform="translate(271.615385 21.615385)"/>
        <path d="M69.8106885,98.4039296 C69.8051223,98.258591 69.8267685,98.1076862 69.8045039,97.9660584 C69.7667777,97.7260951 69.7067868,97.4923164 69.6245314,97.2671962 C69.6177283,97.2486423 69.6109252,97.2300885 69.6035037,97.2115346 L51.9742405,51.167647 C52.1171052,51.5418166 52.1641083,51.9487647 52.1808068,52.360042 C52.1857545,52.4837344 52.1937945,52.6061899 52.186373,52.7317377 C52.1603976,53.176412 52.0849452,53.6291263 51.8994065,54.0818406 C51.5048277,55.1072508 51.0459288,56.1103964 50.552396,57.0999358 C50.3977805,57.4104038 50.2246111,57.7128318 50.0607186,58.019589 C49.694589,58.7023712 49.310524,59.3771134 48.8992467,60.0394863 C48.673508,60.4025236 48.4440586,60.7637055 48.2053322,61.1199397 C47.9103258,61.5609032 47.6035685,61.9950636 47.2887713,62.4255133 C47.0110818,62.8040121 46.7290631,63.1800371 46.4365305,63.5498774 C46.1025609,63.9722871 45.7556037,64.3866567 45.4024618,64.7973156 C45.1396154,65.1028359 44.8724397,65.4058823 44.5996979,65.7045995 C43.6015001,66.7955667 42.5389821,67.8420047 41.4109072,68.832781 C41.1894977,69.0263597 40.9594298,69.2118983 40.7336911,69.4011477 C39.846198,70.1476315 38.9234525,70.8631922 37.9648361,71.5422636 C37.6611712,71.7574884 37.3723494,71.9881748 37.061263,72.1959781 C36.2300498,72.7414617 35.3759536,73.2349945 34.513199,73.7025519 C34.3029218,73.8163489 34.0901709,73.9227244 33.8786568,74.0321922 C32.8025327,74.5869527 31.710947,75.0940917 30.6045183,75.5245413 C30.5142228,75.5597937 30.4239273,75.587006 30.3336318,75.6210214 C28.975489,76.1355819 27.6031215,76.5623208 26.2276617,76.8826842 C26.0872708,76.9148442 25.9462614,76.9364904 25.8058705,76.966795 C25.0024882,77.1424383 24.2003428,77.2797369 23.4000528,77.3861124 C23.1483387,77.4201278 22.8972431,77.4522878 22.6461475,77.4795001 C21.7135066,77.5778356 20.783958,77.6464849 19.8661602,77.6483403 C18.8772392,77.6508141 17.8988321,77.595771 16.9383604,77.481974 C11.2534565,76.8078503 6.35894712,74.0253891 3.4076458,69.7926342 C2.44160794,68.5080884 1.67718874,67.1196409 1.11933589,65.6631626 L1.12057282,65.6662549 C1.12057282,65.6650179 1.11933589,65.6643995 1.11933589,65.6631626 L18.7492176,111.70705 C19.3070704,113.163528 20.0714896,114.551976 21.0375275,115.836522 C23.9888288,120.069277 28.8833381,122.851738 34.5682421,123.525862 C35.5287138,123.639659 36.5071209,123.694702 37.4960418,123.692308 C38.4150766,123.690373 39.3452436,123.621723 40.2791215,123.522769 C40.5277432,123.496175 40.776365,123.464015 41.0262237,123.430618 C41.8289876,123.324243 42.6323699,123.186326 43.4376076,123.010064 C43.5501677,122.985944 43.6621093,122.977286 43.774051,122.951929 C43.8018818,122.945126 43.8297126,122.932756 43.8575434,122.925953 C45.2317662,122.606208 46.6035153,122.180088 47.9610397,121.665527 C48.0222674,121.642644 48.0847321,121.632749 48.1459598,121.608629 C48.1762645,121.596878 48.2053322,121.579561 48.2350184,121.568429 C49.3408287,121.137979 50.4299405,120.631459 51.5054462,120.076698 C51.6173878,120.019181 51.7348956,119.980837 51.8462188,119.921464 C51.9476466,119.867658 52.0441267,119.799627 52.144936,119.745203 C53.0076907,119.277645 53.86055,118.784731 54.6911446,118.239866 C54.8525632,118.131635 55.0121265,118.023404 55.1716897,117.913318 C55.3195022,117.811271 55.4481423,117.690053 55.5947178,117.586151 C56.5539526,116.906461 57.4754612,116.192138 58.3635728,115.445035 C58.5107668,115.321343 58.6771331,115.216204 58.8224717,115.090657 C58.8997795,115.023244 58.9634811,114.944081 59.0407888,114.87605 C60.1688638,113.885892 61.2295263,112.841928 62.2271058,111.750961 C62.313072,111.656955 62.4163552,111.576555 62.5010845,111.48193 C62.6884785,111.27289 62.8529894,111.049625 63.0348173,110.837492 C63.3867223,110.42807 63.7324426,110.016175 64.0657937,109.594384 C64.3583263,109.223925 64.640345,108.848518 64.918653,108.468782 C65.2340687,108.038333 65.5402074,107.604172 65.8352139,107.163209 C65.9644725,106.970249 66.111048,106.787184 66.2359773,106.592368 C66.3423528,106.427239 66.4246083,106.251596 66.5278915,106.084611 C66.9404057,105.421001 67.3257076,104.74564 67.6918372,104.061003 C67.8557297,103.754864 68.0276621,103.454291 68.1822777,103.14506 C68.675192,102.154902 69.1340909,101.151138 69.5292882,100.125728 C69.7154453,99.6723954 69.7902792,99.2209181 69.8162546,98.7756253 C69.8236762,98.6488406 69.8156362,98.528859 69.8106885,98.4039296" fill="#FFF" transform="translate(271.615385 21.615385)"/>
        <path d="M69.8106885,98.4039296 C69.8051223,98.258591 69.8267685,98.1076862 69.8045039,97.9660584 C69.7667777,97.7260951 69.7067868,97.4923164 69.6245314,97.2671962 C69.6177283,97.2486423 69.6109252,97.2300885 69.6035037,97.2115346 L51.9742405,51.167647 C52.1171052,51.5418166 52.1641083,51.9487647 52.1808068,52.360042 C52.1857545,52.4837344 52.1937945,52.6061899 52.186373,52.7317377 C52.1603976,53.176412 52.0849452,53.6291263 51.8994065,54.0818406 C51.5048277,55.1072508 51.0459288,56.1103964 50.552396,57.0999358 C50.3977805,57.4104038 50.2246111,57.7128318 50.0607186,58.019589 C49.694589,58.7023712 49.310524,59.3771134 48.8992467,60.0394863 C48.673508,60.4025236 48.4440586,60.7637055 48.2053322,61.1199397 C47.9103258,61.5609032 47.6035685,61.9950636 47.2887713,62.4255133 C47.0110818,62.8040121 46.7290631,63.1800371 46.4365305,63.5498774 C46.1025609,63.9722871 45.7556037,64.3866567 45.4024618,64.7973156 C45.1396154,65.1028359 44.8724397,65.4058823 44.5996979,65.7045995 C43.6015001,66.7955667 42.5389821,67.8420047 41.4109072,68.832781 C41.1894977,69.0263597 40.9594298,69.2118983 40.7336911,69.4011477 C39.846198,70.1476315 38.9234525,70.8631922 37.9648361,71.5422636 C37.6611712,71.7574884 37.3723494,71.9881748 37.061263,72.1959781 C36.2300498,72.7414617 35.3759536,73.2349945 34.513199,73.7025519 C34.3029218,73.8163489 34.0901709,73.9227244 33.8786568,74.0321922 C32.8025327,74.5869527 31.710947,75.0940917 30.6045183,75.5245413 C30.5142228,75.5597937 30.4239273,75.587006 30.3336318,75.6210214 C28.975489,76.1355819 27.6031215,76.5623208 26.2276617,76.8826842 C26.0872708,76.9148442 25.9462614,76.9364904 25.8058705,76.966795 C25.0024882,77.1424383 24.2003428,77.2797369 23.4000528,77.3861124 C23.1483387,77.4201278 22.8972431,77.4522878 22.6461475,77.4795001 C21.7135066,77.5778356 20.783958,77.6464849 19.8661602,77.6483403 C18.8772392,77.6508141 17.8988321,77.595771 16.9383604,77.481974 C11.2534565,76.8078503 6.35894712,74.0253891 3.4076458,69.7926342 C2.44160794,68.5080884 1.67718874,67.1196409 1.11933589,65.6631626 L1.12057282,65.6662549 C1.12057282,65.6650179 1.11933589,65.6643995 1.11933589,65.6631626 L18.7492176,111.70705 C19.3070704,113.163528 20.0714896,114.551976 21.0375275,115.836522 C23.9888288,120.069277 28.8833381,122.851738 34.5682421,123.525862 C35.5287138,123.639659 36.5071209,123.694702 37.4960418,123.692308 C38.4150766,123.690373 39.3452436,123.621723 40.2791215,123.522769 C40.5277432,123.496175 40.776365,123.464015 41.0262237,123.430618 C41.8289876,123.324243 42.6323699,123.186326 43.4376076,123.010064 C43.5501677,122.985944 43.6621093,122.977286 43.774051,122.951929 C43.8018818,122.945126 43.8297126,122.932756 43.8575434,122.925953 C45.2317662,122.606208 46.6035153,122.180088 47.9610397,121.665527 C48.0222674,121.642644 48.0847321,121.632749 48.1459598,121.608629 C48.1762645,121.596878 48.2053322,121.579561 48.2350184,121.568429 C49.3408287,121.137979 50.4299405,120.631459 51.5054462,120.076698 C51.6173878,120.019181 51.7348956,119.980837 51.8462188,119.921464 C51.9476466,119.867658 52.0441267,119.799627 52.144936,119.745203 C53.0076907,119.277645 53.86055,118.784731 54.6911446,118.239866 C54.8525632,118.131635 55.0121265,118.023404 55.1716897,117.913318 C55.3195022,117.811271 55.4481423,117.690053 55.5947178,117.586151 C56.5539526,116.906461 57.4754612,116.192138 58.3635728,115.445035 C58.5107668,115.321343 58.6771331,115.216204 58.8224717,115.090657 C58.8997795,115.023244 58.9634811,114.944081 59.0407888,114.87605 C60.1688638,113.885892 61.2295263,112.841928 62.2271058,111.750961 C62.313072,111.656955 62.4163552,111.576555 62.5010845,111.48193 C62.6884785,111.27289 62.8529894,111.049625 63.0348173,110.837492 C63.3867223,110.42807 63.7324426,110.016175 64.0657937,109.594384 C64.3583263,109.223925 64.640345,108.848518 64.918653,108.468782 C65.2340687,108.038333 65.5402074,107.604172 65.8352139,107.163209 C65.9644725,106.970249 66.111048,106.787184 66.2359773,106.592368 C66.3423528,106.427239 66.4246083,106.251596 66.5278915,106.084611 C66.9404057,105.421001 67.3257076,104.74564 67.6918372,104.061003 C67.8557297,103.754864 68.0276621,103.454291 68.1822777,103.14506 C68.675192,102.154902 69.1340909,101.151138 69.5292882,100.125728 C69.7154453,99.6723954 69.7902792,99.2209181 69.8162546,98.7756253 C69.8236762,98.6488406 69.8156362,98.528859 69.8106885,98.4039296 Z" stroke="#7347F4" stroke-width="4" transform="translate(271.615385 21.615385)"/>
        <path d="M81.5170016,0 C82.4818026,-0.00180741178 83.4348527,0.0501434077 84.3705859,0.157755819 C90.0548714,0.831261086 94.9493808,3.6143407 97.9013006,7.84709556 C101.52487,12.6661525 102.309699,18.9367401 100.009638,24.8467643 C98.2890763,29.1141531 95.3847781,33.0160307 91.5602083,36.1114337 C90.609632,36.897499 89.6095787,37.6347059 88.5631408,38.2983158 C81.6728541,42.8403017 73.6074894,45.1366516 64.7399793,45.1552055 C59.6902359,45.1663378 54.3788831,44.4377894 48.8782809,42.9646126 C44.1563224,41.7010945 39.7182381,41.0745923 35.5757788,41.0832508 C28.8765969,41.0980939 22.953585,42.7759817 17.8753924,46.1175326 C11.2566106,50.4931522 6.91933566,58.2449566 11.5843956,64.5322427 C13.209714,66.9052819 15.9241444,68.4675173 19.0869597,68.8528192 C19.6194556,68.9140469 20.1661762,68.9437331 20.724029,68.9424962 C24.325334,68.9350746 28.3781164,67.6455811 31.8854152,65.3467573 C36.9976232,61.8808955 40.8871316,57.1193555 42.9132135,51.7486303 C43.7215436,49.8313977 45.7680348,48.593855 47.862766,48.5895257 C48.2907418,48.5882888 48.7218099,48.6390027 49.1442196,48.7466151 C51.627345,49.4028034 52.8457155,51.7770796 51.8994684,54.082088 C49.1436011,61.2426426 43.9200699,67.5998149 37.0613248,72.1962255 C31.6949288,75.7171304 25.5888522,77.6368369 19.866222,77.6486675 C18.8773011,77.6510615 17.898894,77.5960184 16.9384223,77.4822214 C11.2535183,76.8080976 6.35900896,74.0256365 3.40770765,69.7928816 C-0.215862012,64.9738247 -1.00069046,58.7026186 1.29875176,52.7925944 C3.46027693,47.4224877 7.48337313,42.6850677 12.7508151,39.2921844 C19.6200741,34.7675154 27.6885311,32.4668363 36.5585151,32.4482824 C41.6144431,32.4371501 46.9307436,33.1681724 52.4332012,34.6506261 C57.1551596,35.9141442 61.5932439,36.5406464 65.7357033,36.5319879 C72.4348852,36.5177633 78.3572786,34.8392571 83.4360897,31.4977061 C90.0845576,27.097348 94.3946203,19.3455436 89.7623389,13.009399 C88.1067157,10.6610983 85.3898115,9.12298295 82.2245223,8.76241953 C81.6957372,8.70119177 81.152109,8.67150559 80.5973484,8.67274252 C77.0127419,8.68016406 72.9562488,9.96965762 69.4260669,12.2690998 C64.3138589,15.7343432 60.449089,20.5206217 58.3982685,25.8666084 C57.6128216,27.7801302 55.5496319,29.0213837 53.4647961,29.025713 C53.0386756,29.0269499 52.6119368,28.9756175 52.1944748,28.8686236 C49.7088755,28.2371737 48.4929789,25.8381591 49.4367522,23.5578892 C52.5643152,15.9551342 57.5423169,9.86822983 64.2742773,5.4437517 C69.636344,1.9302683 75.785713,0.0124172174 81.5170016,0" fill="#FFF" transform="translate(271.615385 21.615385)"/>
        <path d="M81.5170016,0 C82.4818026,-0.00180741178 83.4348527,0.0501434077 84.3705859,0.157755819 C90.0548714,0.831261086 94.9493808,3.6143407 97.9013006,7.84709556 C101.52487,12.6661525 102.309699,18.9367401 100.009638,24.8467643 C98.2890763,29.1141531 95.3847781,33.0160307 91.5602083,36.1114337 C90.609632,36.897499 89.6095787,37.6347059 88.5631408,38.2983158 C81.6728541,42.8403017 73.6074894,45.1366516 64.7399793,45.1552055 C59.6902359,45.1663378 54.3788831,44.4377894 48.8782809,42.9646126 C44.1563224,41.7010945 39.7182381,41.0745923 35.5757788,41.0832508 C28.8765969,41.0980939 22.953585,42.7759817 17.8753924,46.1175326 C11.2566106,50.4931522 6.91933566,58.2449566 11.5843956,64.5322427 C13.209714,66.9052819 15.9241444,68.4675173 19.0869597,68.8528192 C19.6194556,68.9140469 20.1661762,68.9437331 20.724029,68.9424962 C24.325334,68.9350746 28.3781164,67.6455811 31.8854152,65.3467573 C36.9976232,61.8808955 40.8871316,57.1193555 42.9132135,51.7486303 C43.7215436,49.8313977 45.7680348,48.593855 47.862766,48.5895257 C48.2907418,48.5882888 48.7218099,48.6390027 49.1442196,48.7466151 C51.627345,49.4028034 52.8457155,51.7770796 51.8994684,54.082088 C49.1436011,61.2426426 43.9200699,67.5998149 37.0613248,72.1962255 C31.6949288,75.7171304 25.5888522,77.6368369 19.866222,77.6486675 C18.8773011,77.6510615 17.898894,77.5960184 16.9384223,77.4822214 C11.2535183,76.8080976 6.35900896,74.0256365 3.40770765,69.7928816 C-0.215862012,64.9738247 -1.00069046,58.7026186 1.29875176,52.7925944 C3.46027693,47.4224877 7.48337313,42.6850677 12.7508151,39.2921844 C19.6200741,34.7675154 27.6885311,32.4668363 36.5585151,32.4482824 C41.6144431,32.4371501 46.9307436,33.1681724 52.4332012,34.6506261 C57.1551596,35.9141442 61.5932439,36.5406464 65.7357033,36.5319879 C72.4348852,36.5177633 78.3572786,34.8392571 83.4360897,31.4977061 C90.0845576,27.097348 94.3946203,19.3455436 89.7623389,13.009399 C88.1067157,10.6610983 85.3898115,9.12298295 82.2245223,8.76241953 C81.6957372,8.70119177 81.152109,8.67150559 80.5973484,8.67274252 C77.0127419,8.68016406 72.9562488,9.96965762 69.4260669,12.2690998 C64.3138589,15.7343432 60.449089,20.5206217 58.3982685,25.8666084 C57.6128216,27.7801302 55.5496319,29.0213837 53.4647961,29.025713 C53.0386756,29.0269499 52.6119368,28.9756175 52.1944748,28.8686236 C49.7088755,28.2371737 48.4929789,25.8381591 49.4367522,23.5578892 C52.5643152,15.9551342 57.5423169,9.86822983 64.2742773,5.4437517 C69.636344,1.9302683 75.785713,0.0124172174 81.5170016,0 Z" stroke="#7347F4" stroke-width="4" transform="translate(271.615385 21.615385)"/>
      </g>
    </g>
    <path d="M294.955128,18.0384615 C296.059698,18.0384615 296.955128,18.933892 296.955128,20.0384615 L296.954538,24.9094615 L301.826923,24.9102564 C302.931493,24.9102564 303.826923,25.8056869 303.826923,26.9102564 L303.826923,29.7820513 C303.826923,30.8866208 302.931493,31.7820513 301.826923,31.7820513 L296.954538,31.7814615 L296.955128,36.6538462 C296.955128,37.7584157 296.059698,38.6538462 294.955128,38.6538462 L292.083333,38.6538462 C290.978764,38.6538462 290.083333,37.7584157 290.083333,36.6538462 L290.082538,31.7814615 L285.211538,31.7820513 C284.106969,31.7820513 283.211538,30.8866208 283.211538,29.7820513 L283.211538,26.9102564 C283.211538,25.8056869 284.106969,24.9102564 285.211538,24.9102564 L290.082538,24.9094615 L290.083333,20.0384615 C290.083333,18.933892 290.978764,18.0384615 292.083333,18.0384615 L294.955128,18.0384615 Z" fill="url(#78j10o33g__d9wuc32l3g)"/>
    <text font-family="Galaxy-SemiBold-E, PROJECT GALAXY E" font-size="20" font-weight="500" fill="#000">
      <tspan x="20" y="35">Create a </tspan> <tspan x="20" y="59">meaningful </tspan> <tspan x="20" y="83">Grant</tspan>
    </text>
  </g>
</svg>
