<svg xmlns="http://www.w3.org/2000/svg" xmlns:xlink="http://www.w3.org/1999/xlink" viewBox="0 0 260 80" class="design-iconfont">
  <defs>
    <linearGradient x1="97.0016083%" y1="52.9983917%" x2="2.99839166%" y2="52.9983917%" id="rehocn44t__ed7ea2rpkb">
      <stop stop-color="#EDE7FF" offset="0%"/>
      <stop stop-color="#EBE4FF" offset="100%"/>
    </linearGradient>
    <linearGradient x1="14.2628736%" y1="64.1352219%" x2="92.9160886%" y2="37.730056%" id="rehocn44t__qa535ahp3f">
      <stop stop-color="#FBF9FF" offset="0%"/>
      <stop stop-color="#CAC0E9" offset="100%"/>
    </linearGradient>
    <linearGradient x1="50%" y1="0%" x2="50%" y2="100%" id="rehocn44t__o1ejhdj1ig">
      <stop stop-color="#7347F4" offset="0%"/>
      <stop stop-color="#A03EFC" offset="100%"/>
    </linearGradient>
    <rect id="rehocn44t__xtpot6ec4a" x="0" y="0" width="260" height="80" rx="12"/>
    <path d="M70.5753969,1.16832113 C70.701637,1.62096157 70.8494772,2.066882 70.9272372,2.53152245 L70.9272372,2.53152245 C71.0472373,3.25248315 71.1048374,3.98592385 71.1053174,4.72608457 L71.1053174,4.72608457 C71.1053174,4.91232475 71.0865974,5.10000493 71.0789174,5.28672511 L71.0789174,5.28672511 C71.0553974,5.87664568 70.9934773,6.46896626 70.8936372,7.06272683 L70.8936372,7.06272683 C70.8571572,7.27920704 70.8230771,7.49520725 70.7765171,7.71168746 L70.7765171,7.71168746 C70.6118769,8.47344819 70.4054767,9.23568893 70.1121964,9.98880966 L70.1121964,9.98880966 C69.8136362,10.7284904 69.4541158,11.4484911 69.0662754,12.1560118 L69.0662754,12.1560118 C68.9563553,12.3566519 68.8377952,12.5539321 68.7206751,12.7516923 L68.7206751,12.7516923 C68.4873949,13.1462527 68.2248346,13.5264131 67.9646744,13.9075334 L67.9646744,13.9075334 C67.546594,14.520974 67.0905935,15.1128146 66.605313,15.6878552 L66.605313,15.6878552 C66.3749128,15.9604954 66.1560326,16.2403357 65.9112324,16.502896 L65.9112324,16.502896 C65.5757121,16.8643363 65.2104317,17.2041766 64.8475513,17.546417 L64.8475513,17.546417 C64.4232309,17.9467374 64.0137905,18.3595378 63.5539501,18.7315381 L63.5539501,18.7315381 C62.8161894,19.3416187 62.0405086,19.9137793 61.2283478,20.4288198 L61.2283478,20.4288198 C60.4622671,20.9337802 59.6721863,21.3931407 58.8696256,21.8261011 L58.8696256,21.8261011 C58.6685054,21.9345812 58.4621052,22.0310613 58.259065,22.1347414 L58.259065,22.1347414 C57.3969841,22.5763418 56.5152233,22.9790622 55.6137824,23.3395426 L55.6137824,23.3395426 C55.4227422,23.4153826 55.2365021,23.5022627 55.0435419,23.5752228 L55.0435419,23.5752228 C54.7152215,23.6990629 54.3782612,23.805623 54.0451409,23.9193831 L54.0451409,23.9193831 C53.6357005,24.0585833 53.2277001,24.2001834 52.8105797,24.3235435 L52.8105797,24.3235435 C52.4668994,24.4253036 52.116019,24.5117037 51.7675387,24.6024238 L51.7675387,24.6024238 C51.3844983,24.7022639 51.001938,24.801624 50.6136176,24.8885041 L50.6136176,24.8885041 C49.4889765,25.1390643 48.3398554,25.3305845 47.1710543,25.4707446 L47.1710543,25.4707446 C46.930574,25.4990647 46.6876938,25.5201847 46.4457736,25.5446647 L46.4457736,25.5446647 C45.2294524,25.6656248 43.9982512,25.7481849 42.73873,25.7505849 L42.73873,25.7505849 C38.8195262,25.7587449 34.6968022,25.1937844 30.4281581,24.0504233 L30.4281581,24.0504233 C26.7633545,23.0697823 23.3183912,22.5830618 20.1038281,22.5902618 L20.1038281,22.5902618 C18.9028669,22.5926618 17.7431858,22.6814619 16.6075047,22.8216221 L16.6075047,22.8216221 C16.2465443,22.8667421 15.900464,22.9416222 15.5462237,23.0006622 L15.5462237,23.0006622 C15.0196632,23.0875423 14.4811026,23.1480224 13.9694221,23.2656225 L13.9694221,23.2656225 C13.7587019,23.3145825 13.5647818,23.3990626 13.3559816,23.4533027 L13.3559816,23.4533027 C12.834221,23.5877028 12.3283006,23.753783 11.8223801,23.9213031 L11.8223801,23.9213031 C11.4590197,24.0413032 11.0764593,24.1200233 10.721739,24.2568235 L10.721739,24.2568235 C10.4562987,24.3595436 10.2076585,24.4977837 9.94701825,24.6096238 L9.94701825,24.6096238 C9.62493794,24.7478639 9.30669764,24.8923441 8.99229733,25.0445042 L8.99229733,25.0445042 C8.74605709,25.1635443 8.48781684,25.2561844 8.24685661,25.3838645 L8.24685661,25.3838645 C7.60461599,25.7241849 6.97725538,26.0952252 6.36573479,26.4974656 L6.36573479,26.4974656 C6.28509471,26.5507457 6.20493464,26.6045057 6.12477456,26.6597058 L6.12477456,26.6597058 C5.88525433,26.8238659 5.66781412,27.0144261 5.43645389,27.1901063 L5.43645389,27.1901063 C5.17197364,27.3907465 4.90077337,27.5822667 4.64973313,27.7958669 L4.64973313,27.7958669 C4.6137331,27.8261069 4.57293306,27.8515469 4.53789302,27.882267 L4.53789302,27.882267 C4.36077285,28.0349071 4.21197271,28.2086673 4.04253254,28.3675474 L4.04253254,28.3675474 C3.74637226,28.6459477 3.44829197,28.920508 3.17709171,29.2157083 L3.17709171,29.2157083 C3.13389167,29.2627483 3.08157161,29.3035483 3.03885157,29.3510684 L3.03885157,29.3510684 C2.92509146,29.4777885 2.84301138,29.6193886 2.73405128,29.7489888 L2.73405128,29.7489888 C2.41533097,30.1286691 2.11437068,30.5126695 1.84269042,30.9125099 L1.84269042,30.9125099 C1.78077036,31.00467 1.69725028,31.0881901 1.63773022,31.1803502 L1.63773022,31.1803502 C1.52781011,31.3512303 1.45101004,31.5307505 1.35116994,31.7045107 L1.35116994,31.7045107 C1.21772981,31.9353909 1.08572968,32.1643511 0.970049573,32.4005113 L0.970049573,32.4005113 C0.823649431,32.6990716 0.706049318,33.0009919 0.589889205,33.3048322 L0.589889205,33.3048322 C0.500129118,33.5414724 0.405569027,33.7757127 0.335008959,34.0152329 L0.335008959,34.0152329 C0.24284887,34.3286732 0.188128817,34.6440335 0.131968762,34.9608338 L0.131968762,34.9608338 C0.0902087221,35.196034 0.0364486701,35.4293143 0.0153286496,35.6654745 L0.0153286496,35.6654745 C-0.0139513787,35.9966748 0.00524863989,36.3269151 0.0191686534,36.6581155 L0.0191686534,36.6581155 C0.0287686626,36.8803557 0.017728652,37.1021159 0.0479686812,37.3238761 L0.0479686812,37.3238761 C0.0537286868,37.3646761 0.0470086803,37.4059562 0.0532486863,37.4467562 L0.0532486863,37.4467562 C0.122848754,37.9008367 0.238048865,38.3534771 0.400769022,38.8003575 L0.400769022,38.8003575 C0.414689036,38.8377976 0.428609049,38.8752376 0.442529063,38.9126776 L0.442529063,38.9126776 L14.1254223,74.6482322 C13.9252621,74.1245517 13.803822,73.5931912 13.7308619,73.0594307 L13.7308619,73.0594307 C13.7006219,72.8381504 13.7121419,72.6159102 13.7020619,72.39367 L13.7020619,72.39367 C13.6881419,72.0629497 13.6694219,71.7317494 13.6982219,71.4010291 L13.6982219,71.4010291 C13.7188619,71.1653488 13.773102,70.9315886 13.814862,70.6968684 L13.814862,70.6968684 C13.871022,70.3805481 13.9257421,70.0637478 14.0179022,69.7507875 L14.0179022,69.7507875 C14.0884623,69.5117472 14.1835024,69.276547 14.2732624,69.0399068 L14.2732624,69.0399068 C14.3884625,68.7365465 14.5070227,68.4341462 14.6529428,68.1360659 L14.6529428,68.1360659 C14.7681429,67.9008657 14.901583,67.6699854 15.0345432,67.4391052 L15.0345432,67.4391052 C15.1881433,67.172225 15.3499035,66.9077447 15.5255836,66.6480645 L15.5255836,66.6480645 C15.7963039,66.2496641 16.0982242,65.8642237 16.4155045,65.4859833 L16.4155045,65.4859833 C16.5652647,65.3079032 16.7011048,65.123583 16.8599849,64.9507828 L16.8599849,64.9507828 C17.1307052,64.6565425 17.4283055,64.3819823 17.7235058,64.105022 L17.7235058,64.105022 C17.926546,63.9135018 18.1185462,63.7133416 18.3321464,63.5314214 L18.3321464,63.5314214 C18.5846266,63.3168612 18.8572669,63.124381 19.1227071,62.9227809 L19.1227071,62.9227809 C19.4294274,62.6899806 19.7270277,62.4461404 20.048628,62.2330202 L20.048628,62.2330202 C20.8886288,61.6800596 21.7737497,61.2163792 22.6727906,60.7810188 L22.6727906,60.7810188 C22.9886309,60.6278986 23.3087912,60.4829385 23.6318315,60.3446984 L23.6318315,60.3446984 C24.2395121,60.0835781 24.8692727,59.8670979 25.5028733,59.6573377 L25.5028733,59.6573377 C26.0097538,59.4898175 26.5175943,59.3232574 27.0407948,59.1883772 L27.0407948,59.1883772 C27.7535955,59.0045371 28.4846362,58.8586169 29.2271969,58.7362168 L29.2271969,58.7362168 C29.5819172,58.6776567 29.9289576,58.6018167 30.2903979,58.5571766 L30.2903979,58.5571766 C31.426079,58.4170165 32.5862401,58.3286964 33.7867213,58.3258164 L33.7867213,58.3258164 C37.0017644,58.3186164 40.4462477,58.8053369 44.1110513,59.7859778 L44.1110513,59.7859778 C48.3796954,60.9288589 52.5024194,61.4942995 56.4216232,61.4861395 L56.4216232,61.4861395 C57.6811444,61.4832595 58.9123456,61.4011794 60.1281868,61.2802193 L60.1281868,61.2802193 C60.370587,61.2557392 60.6134673,61.2350992 60.8539475,61.2062992 L60.8539475,61.2062992 C62.0232286,61.0661391 63.1718697,60.8741389 64.2969908,60.6235786 L64.2969908,60.6235786 C64.3704309,60.6067786 64.449151,60.6019786 64.523071,60.5851786 L64.523071,60.5851786 C64.8360313,60.5131785 65.1389116,60.4186184 65.4480319,60.3384584 L65.4480319,60.3384584 C65.7974723,60.2472583 66.1497926,60.1608582 66.4944329,60.0586181 L66.4944329,60.0586181 C66.9101133,59.936218 67.3176337,59.7941378 67.7265941,59.6554177 L67.7265941,59.6554177 C68.0601945,59.5416576 68.3971548,59.4350975 68.7264351,59.3102974 L68.7264351,59.3102974 C68.7979552,59.2834173 68.8718752,59.2627773 68.9433953,59.2358973 L68.9433953,59.2358973 C69.0638754,59.1893372 69.1752355,59.1230972 69.2952356,59.0755771 L69.2952356,59.0755771 C70.1976365,58.7146168 71.0793974,58.3118964 71.9429182,57.869816 L71.9429182,57.869816 C72.0686783,57.8054959 72.2040385,57.7598959 72.3293186,57.6941358 L72.3293186,57.6941358 C72.4051587,57.6538158 72.4761987,57.6029357 72.5520388,57.5616557 L72.5520388,57.5616557 C73.3550796,57.1286952 74.1446803,56.6693348 74.9107611,56.1643743 L74.9107611,56.1643743 C75.1094813,56.0381342 75.3067615,55.9085341 75.5011617,55.7760539 L75.5011617,55.7760539 C76.1011622,55.3666135 76.6800428,54.9274131 77.2368433,54.4670927 L77.2368433,54.4670927 C77.4341235,54.3072525 77.6285237,54.1450124 77.8190839,53.9794122 L77.8190839,53.9794122 C78.0725241,53.760532 78.2866043,53.5123718 78.5280446,53.2838915 L78.5280446,53.2838915 C78.8923649,52.9406912 79.2571653,52.6008509 79.5946056,52.2379705 L79.5946056,52.2379705 C79.6848457,52.1405304 79.7918858,52.0560503 79.8797259,51.9576502 L79.8797259,51.9576502 C80.031406,51.7891701 80.1422861,51.5962099 80.2877263,51.4238897 L80.2877263,51.4238897 C80.7734867,50.8483692 81.2280472,50.2574886 81.6470876,49.643568 L81.6470876,49.643568 C81.7574877,49.4822879 81.8995678,49.3392477 82.0046879,49.1755676 L82.0046879,49.1755676 C82.1491681,48.9509273 82.2686882,48.7152471 82.4040483,48.4862869 L82.4040483,48.4862869 C82.5211684,48.2885267 82.6392486,48.0922065 82.7491687,47.8915663 L82.7491687,47.8915663 C83.137009,47.1835656 83.4965294,46.4640449 83.7950897,45.7243642 L83.7950897,45.7243642 C84.08837,44.9707635 84.2942902,44.2094828 84.4589303,43.447242 L84.4589303,43.447242 C84.5059704,43.2298018 84.5400504,43.0147616 84.5765304,42.7968414 L84.5765304,42.7968414 C84.6768505,42.2035608 84.7382906,41.6131602 84.7613306,41.0237197 L84.7613306,41.0237197 C84.7694906,40.8355595 84.7882106,40.6483593 84.7882106,40.4616391 L84.7882106,40.4616391 C84.7872506,39.7637185 84.7483706,39.0710778 84.6418105,38.3904371 L84.6418105,38.3904371 C84.6355705,38.3481971 84.6168505,38.308837 84.6096505,38.266597 L84.6096505,38.266597 C84.5323704,37.8019566 84.3845302,37.3560361 84.2578101,36.9033957 L84.2578101,36.9033957 C84.16709,36.5784354 84.12149,36.241955 84.0053299,35.9251547 L84.0053299,35.9251547 C83.9822899,35.8613147 83.9582898,35.7984346 83.9347698,35.7355546 L83.9347698,35.7355546 L70.2513966,0 C70.3963567,0.378720366 70.4664368,0.779040753 70.5753969,1.16832113" id="rehocn44t__f9vava2byd"/>
  </defs>
  <g fill="none" fill-rule="evenodd">
    <g>
      <mask id="rehocn44t__i6bdun0e7c" fill="#fff">
        <use xlink:href="#rehocn44t__xtpot6ec4a"/>
      </mask>
      <use fill="url(#rehocn44t__ed7ea2rpkb)" xlink:href="#rehocn44t__xtpot6ec4a"/>
      <g mask="url(#rehocn44t__i6bdun0e7c)">
        <path d="M32.3760313,5.22435385 C32.1341111,4.59267324 31.7966708,3.97107264 31.3545903,3.36627205 C30.0701091,1.54323029 27.960987,0.349949135 25.5043447,0.0696288635 C25.0939443,0.0221088175 24.6720239,-0.000931204739 24.2414634,0 C23.6208228,0.00146879758 22.9785822,0.0696288635 22.3301016,0.167548958 C22.1539414,0.194428984 21.9797013,0.227069016 21.8021011,0.260669048 C21.6057809,0.297629084 21.4123407,0.318269104 21.2150605,0.363869148 C21.0000203,0.413309196 20.7845001,0.503549283 20.5689799,0.56258934 C20.1825795,0.668669443 19.8014591,0.781469552 19.4155388,0.917789684 C19.2604986,0.972509737 19.1054585,1.00130976 18.9508983,1.06082982 C18.7113781,1.15298991 18.4785779,1.28067003 18.2404976,1.38483014 C17.9520174,1.51059026 17.6673771,1.63347038 17.3832168,1.77555051 C17.2564967,1.83891057 17.1259366,1.88355062 17.0001764,1.95027068 C16.514896,2.20707093 16.0372955,2.4878712 15.5712151,2.7912315 C15.551055,2.80467151 15.530895,2.81859152 15.510735,2.83251154 C14.7340942,3.36195205 13.9953735,3.9312326 13.2969729,4.53507318 C13.2009728,4.61763326 13.1222527,4.71459336 13.0276926,4.79907344 C12.7372923,5.05827369 12.4776121,5.33811396 12.2016118,5.60931422 C11.8536115,5.95155455 11.4796911,6.27459486 11.1561708,6.63507521 C11.0308907,6.77475535 10.9396906,6.9355555 10.8177705,7.07811564 C10.3953701,7.57203612 10.0204897,8.08947662 9.64608933,8.61267713 C9.42864912,8.91603742 9.16512886,9.19299769 8.96448867,9.50499799 C8.84880856,9.68451816 8.75712847,9.87507835 8.64720836,10.0569985 C8.52816825,10.2547587 8.41680814,10.4529989 8.30448803,10.6536391 C7.81536756,11.5281999 7.36704712,12.4205208 7.01232678,13.3445217 C6.86496664,13.703562 6.65472644,14.0285224 6.40512619,14.3198826 C6.39312618,14.3342827 6.38352617,14.3510827 6.37104616,14.3650027 C6.12048592,14.649643 5.82624563,14.8958832 5.50416532,15.1022834 C5.4801653,15.1176434 5.45472528,15.1315634 5.43024525,15.1469234 C5.12688496,15.3326836 4.79760464,15.4781238 4.45632431,15.5856439 C4.40688426,15.6014839 4.35792421,15.6173239 4.30800417,15.6312439 C3.94176381,15.732524 3.56400345,15.7958841 3.18336308,15.7963641 C2.85264276,15.7973241 2.52144244,15.757964 2.19744213,15.674444 C1.11216108,15.3989237 0.338400327,14.688523 0,13.8048421 L13.6828932,49.5403967 C14.0212936,50.4240776 14.7945743,51.1339982 15.8803354,51.4099985 C16.2043357,51.4935186 16.535536,51.5328786 16.8662563,51.5319358 C17.1820966,51.5319358 17.4979369,51.4939986 17.8056172,51.4234385 C17.8680173,51.4090385 17.9280173,51.3840785 17.9899374,51.3667985 C18.0412974,51.3528785 18.0892975,51.3370384 18.1401775,51.3207184 C18.2265776,51.2933584 18.3158577,51.2736784 18.4008178,51.2410384 C18.564018,51.1781583 18.7233781,51.1056782 18.8774583,51.0240781 C18.9580983,50.9813581 19.0339384,50.9304781 19.1121785,50.882958 C19.1376185,50.867598 19.1625785,50.853678 19.1875386,50.837358 C19.2220986,50.8152779 19.2585786,50.7970379 19.2921787,50.7739979 C19.4246588,50.6842378 19.5513789,50.5867977 19.671379,50.4826376 C19.7990591,50.3722375 19.9200193,50.2541574 20.0323394,50.1288773 C20.0400194,50.1202373 20.0457794,50.1096773 20.0534594,50.1010372 C20.0664194,50.0861572 20.0760194,50.0698372 20.0884994,50.0549572 C20.1988995,49.9253571 20.3064196,49.7923969 20.3985797,49.6488768 C20.5137798,49.4693566 20.6131399,49.2792765 20.69522,49.0795963 C21.0494604,48.1560754 21.4982608,47.2632745 21.9873813,46.3891937 C22.0992214,46.1895135 22.2115415,45.9893533 22.3301016,45.7925531 C22.6301019,45.2943126 22.9867422,44.8248721 23.3289826,44.3477517 C23.7024229,43.8264712 24.0792233,43.3066307 24.5006637,42.8136702 C24.9350641,42.3048697 25.4021046,41.8195892 25.884505,41.3448688 C26.1595453,41.0736685 26.4206656,40.7933482 26.7105858,40.534148 C27.5097866,39.8208673 28.3488274,39.1402266 29.2541083,38.5267861 C29.8397089,38.1451857 30.4507494,37.8183054 31.06611,37.5106251 C31.3488303,37.3695049 31.6358706,37.2456648 31.9224309,37.1203847 C32.3121912,36.9499845 32.7038716,36.7925444 33.097952,36.6533442 C33.4829124,36.5170241 33.8683528,36.403264 34.2537931,36.2976639 C34.6646735,36.1848638 35.0755539,36.0735037 35.4830743,35.9962236 C35.6606745,35.9626236 35.8377947,35.9295035 36.0144348,35.9026235 C36.6619555,35.8051834 37.3046761,35.7370234 37.9243567,35.7355834 C38.3549171,35.7346234 38.7768375,35.7576634 39.1872379,35.8051834 C41.6438803,36.0850237 43.7525223,37.2787848 45.0374836,39.1013466 C45.479564,39.7066272 45.8170043,40.3282278 46.0589245,40.9599084 L32.3760313,5.22435385 Z" fill="#FFF" transform="translate(210.311559 22.730911)"/>
        <g transform="translate(179.507272 25.295198)">
          <mask id="rehocn44t__f94brkqsne" fill="#fff">
            <use xlink:href="#rehocn44t__f9vava2byd"/>
          </mask>
        </g>
        <path d="M92.1490346,47.6855873 C92.1423146,47.6433473 92.1240746,47.6039873 92.1168746,47.5617472 C92.0395945,47.0971068 91.8917543,46.6516664 91.7650342,46.1985459 C91.6743141,45.8740656 91.6287141,45.5371053 91.512554,45.220305 C91.4895139,45.1569449 91.4659939,45.0935848 91.4415139,45.0307048 L77.7591007,9.29515022 C77.9035808,9.67387059 77.9736609,10.074191 78.082621,10.4634714 C78.2088611,10.9161118 78.3567012,11.3620322 78.4344613,11.8266727 C78.5544614,12.5476334 78.6120615,13.2810741 78.6125415,14.0212348 C78.6130215,14.207475 78.5938215,14.3951552 78.5861415,14.5818753 C78.5626214,15.1717959 78.5011814,15.7645965 78.4008613,16.3578771 C78.3643813,16.5743573 78.3303012,16.7903575 78.2837412,17.0068377 C78.118621,17.7690784 77.9127008,18.5308392 77.6194205,19.2839599 C77.3213402,20.0236406 76.9613399,20.7431613 76.5734995,21.451162 C76.4635794,21.6518022 76.3450193,21.8490824 76.2283792,22.0468426 C75.995099,22.4414029 75.7325387,22.8210833 75.4718985,23.2026837 C75.053818,23.8156443 74.5978176,24.4079648 74.1125371,24.9834854 C73.8821369,25.2561257 73.6632567,25.5350059 73.4184565,25.7980462 C73.0824561,26.1594865 72.7176558,26.4993269 72.3547754,26.8415672 C71.930455,27.2423676 71.5210146,27.654688 71.0616542,28.0266883 C70.3238935,28.6367689 69.5477327,29.2089295 68.7355719,29.72397 C67.9694912,30.2289305 67.1794104,30.6882909 66.3768497,31.1217313 C66.1757295,31.2297314 65.9693293,31.3262115 65.7662891,31.4298916 C64.9037282,31.8714921 64.0224474,32.2742124 63.1210065,32.6346928 C62.9299663,32.7110129 62.7437261,32.797893 62.550766,32.870373 C62.2219656,32.9942131 61.8859653,33.1007732 61.552365,33.2145334 C61.1429246,33.3537335 60.7344442,33.4953336 60.3182838,33.6186937 C59.9741235,33.7204538 59.6232431,33.8068539 59.2747628,33.897574 C58.8917224,33.9974141 58.509162,34.0967742 58.1208417,34.1831743 C56.9962006,34.4337345 55.8475595,34.6257347 54.6782783,34.7658949 C54.4382781,34.7946949 54.1949179,34.8158149 53.9529976,34.8398149 C52.7366765,34.960775 51.5059553,35.0433351 50.2459541,35.0457351 C46.3267503,35.0538951 42.2040263,34.4889346 37.9353822,33.3455735 C34.2705786,32.3649325 30.8260953,31.8786921 27.6110522,31.8854121 C26.410571,31.8878121 25.2504099,31.9766122 24.1147288,32.1167723 C23.7537684,32.1614123 23.4076881,32.2372524 23.0534478,32.2953325 C22.5268873,32.3822126 21.9883267,32.4436526 21.4771262,32.5612527 C21.265926,32.6097328 21.0720058,32.6946929 20.8636856,32.7484529 C20.3419251,32.882853 19.8355246,33.0489332 19.3296042,33.2164534 C18.9667238,33.3359735 18.5836834,33.4151735 18.2289631,33.5519737 C17.9635228,33.6546938 17.7153626,33.7929339 17.4542423,33.905254 C17.132162,34.0430142 16.8139217,34.1874943 16.4990414,34.3396544 C16.2537612,34.4586946 15.9950409,34.5513346 15.7540807,34.6790148 C15.1113601,35.0193351 14.4844795,35.3903755 13.8734389,35.7926158 C13.7923188,35.8458959 13.7121587,35.900136 13.6324786,35.954856 C13.3919984,36.1190162 13.1750382,36.3095763 12.943678,36.4852565 C12.6791977,36.6858967 12.4084775,36.8774169 12.1569572,37.0910171 C12.1209572,37.1217371 12.0806371,37.1466972 12.0451171,37.1774172 C11.8684769,37.3300573 11.7191968,37.5038175 11.5497566,37.6626977 C11.2535963,37.9410979 10.9555161,38.2156582 10.6843158,38.5108585 C10.6411158,38.5578985 10.5887957,38.5986986 10.5460757,38.6462186 C10.4323156,38.7729387 10.3502355,38.9145389 10.2412754,39.044139 C9.92255506,39.4238194 9.62111477,39.8078197 9.35039451,40.2076601 C9.28799445,40.2998202 9.20447437,40.3828603 9.14495431,40.4759804 C9.0355142,40.6463805 8.95871413,40.8259007 8.85839403,40.9996609 C8.7254339,41.2305411 8.59295378,41.4599813 8.47727366,41.6956616 C8.33135352,41.9942218 8.21327341,42.2961421 8.0975933,42.6004624 C8.00735321,42.8371027 7.91279312,43.0713429 7.84223305,43.3103831 C7.75007296,43.6243034 7.69535291,43.9396637 7.63919285,44.255984 C7.59743281,44.4911843 7.54367276,44.7244645 7.52255274,44.9606247 C7.49327271,45.291825 7.51247273,45.6220654 7.52687275,45.9532657 C7.53647275,46.1755059 7.52495274,46.3977461 7.55519277,46.6190263 C7.56095278,46.6598264 7.55423277,46.7011064 7.56047278,46.7419064 C7.63055285,47.1964669 7.74527296,47.6486273 7.90799311,48.0955077 C7.92191313,48.1329478 7.93583314,48.1703878 7.95023315,48.2078279 L21.6331264,83.9438624 C21.4324862,83.4197019 21.3110461,82.8883414 21.238086,82.3545809 C21.207846,82.1333007 21.219366,81.9110604 21.209766,81.6888202 C21.195366,81.3576199 21.1761659,81.0268996 21.205446,80.6961793 C21.226566,80.460499 21.280326,80.2267388 21.3220861,79.9920186 C21.3782461,79.6756983 21.4329662,79.359378 21.5251263,79.0459377 C21.5956864,78.8068974 21.6907264,78.5716972 21.7804865,78.335057 C21.8961666,78.0316967 22.0142468,77.7292964 22.1601669,77.4316961 C22.275367,77.1960159 22.4083271,76.9651357 22.5417673,76.7342554 C22.6953674,76.4673752 22.8571276,76.2028949 23.0328077,75.9432147 C23.303048,75.5448143 23.6054483,75.1598539 23.9232086,74.7811336 C24.0724887,74.6030534 24.2083289,74.4187332 24.367689,74.245933 C24.6379293,73.9516928 24.9355296,73.6771325 25.2307299,73.3996922 C25.4342501,73.208652 25.6257702,73.0084918 25.8398505,72.8265717 C26.0918507,72.6120115 26.364491,72.4195313 26.6299312,72.2179311 C26.9366515,71.9856109 27.2337718,71.7408106 27.5558521,71.5281704 C28.3958529,70.9752099 29.2809738,70.5115294 30.1800147,70.076169 C30.495855,69.9235289 30.8155353,69.7785687 31.1390556,69.6398486 C31.7472162,69.3792083 32.3764968,69.1622481 33.0096174,68.9524879 C33.5169779,68.7849678 34.0248184,68.6184076 34.5480189,68.4835275 C35.2608196,68.2996873 35.9923403,68.1537671 36.734421,68.031367 C37.0896213,67.972807 37.4361817,67.8969669 37.797622,67.8523269 C38.9333031,67.7121667 40.0934642,67.6238466 41.2939454,67.6209666 C44.5089885,67.6137666 47.9529918,68.1004871 51.6182754,69.081128 C55.8869195,70.2240091 60.0096435,70.7894497 63.9288473,70.7812897 C65.1883685,70.7788897 66.4195697,70.6963296 67.6354109,70.5753695 C67.8778111,70.5513695 68.1206913,70.5302494 68.3606916,70.5014494 C69.5304527,70.3612893 70.6790938,70.1692891 71.8037349,69.9187289 C71.878135,69.9024088 71.9568551,69.8976088 72.0307751,69.8803288 C72.3432554,69.8083287 72.6461357,69.7137687 72.955256,69.6336086 C73.3046964,69.5424085 73.6565367,69.4560084 74.001657,69.3542483 C74.4173374,69.2308882 74.8248578,69.089288 75.2333382,68.9505679 C75.5674185,68.8368078 75.9043789,68.7297677 76.2336592,68.6054476 C76.3051793,68.5785676 76.3795793,68.5584075 76.4506194,68.5305675 C76.5710995,68.4844875 76.6824596,68.4182474 76.8024597,68.3707274 C77.7048606,68.009767 78.5871015,67.6070466 79.4501423,67.1649662 C79.5763824,67.1006461 79.7112626,67.0555261 79.8365427,66.989286 C79.9123827,66.948966 79.9834228,66.8980859 80.0592629,66.8572859 C80.8623037,66.4238455 81.6519044,65.964485 82.4184652,65.4595245 C82.6171854,65.3332844 82.8139856,65.2036843 83.0083857,65.0712042 C83.6083863,64.6617638 84.1872669,64.2230433 84.7445474,63.7622429 C84.9413476,63.6024027 85.1357478,63.4401626 85.326308,63.2750424 C85.5797482,63.0561622 85.7938284,62.807522 86.0352687,62.5795218 C86.399589,62.2358414 86.7648694,61.8960011 87.1023097,61.5326407 C87.1920698,61.4361606 87.2991099,61.3512006 87.38743,61.2532805 C87.5386301,61.0843203 87.6495102,60.8918401 87.7949504,60.71904 C88.2811908,60.1435194 88.7357513,59.5526388 89.1543117,58.9391982 C89.2642318,58.7779181 89.4067919,58.6343979 89.511912,58.4707178 C89.6563922,58.2460776 89.7763923,58.0103973 89.9112724,57.7814371 C90.0283925,57.5836769 90.1464726,57.3878367 90.2563928,57.1867165 C90.6442331,56.4787159 91.0037535,55.7596752 91.3023138,55.0195144 C91.595594,54.2659137 91.8015142,53.504633 91.9666344,52.7423922 C92.0136745,52.524952 92.0472745,52.3099118 92.0837545,52.0919916 C92.1840746,51.499191 92.2455147,50.9083105 92.2690347,50.3188699 C92.2762347,50.1307097 92.2954347,49.9435095 92.2954347,49.7567894 C92.2954347,49.0593487 92.2555947,48.366228 92.1490346,47.6855873 Z" stroke="#7347F4" stroke-width="4" fill="url(#rehocn44t__qa535ahp3f)" transform="translate(172 16)"/>
        <path d="M54.1814299,76.3731991 C54.1771099,76.260399 54.1939099,76.1432789 54.1766299,76.0333588 C54.1473498,75.8471186 54.1007898,75.6656784 54.0369497,75.4909582 C54.0316697,75.4765582 54.0263897,75.4621582 54.0206297,75.4477582 L40.3382165,39.7122036 C40.4490966,40.0026039 40.4855766,40.3184442 40.4985366,40.6376445 C40.5023766,40.7336446 40.5086166,40.8286847 40.5028566,40.9261248 C40.4826966,41.2712451 40.4241366,41.6226055 40.2801364,41.9739658 C39.9738961,42.7698066 39.6177358,43.5483673 39.2346954,44.3163681 C39.1146953,44.5573283 38.9802952,44.7920486 38.853095,45.0301288 C38.5689348,45.5600493 38.2708545,46.0837298 37.9516542,46.5978103 C37.776454,46.8795706 37.5983738,47.1598908 37.4130936,47.4363711 C37.1841334,47.7786114 36.9460532,48.1155718 36.701733,48.4496521 C36.4862128,48.7434124 36.2673325,49.0352527 36.0402923,49.3222929 C35.7810921,49.6501332 35.5118118,49.9717336 35.2377315,50.2904539 C35.0337313,50.5275741 34.8263711,50.7627743 34.6146909,50.9946146 C33.8399702,51.8413354 33.0153294,52.6534962 32.1398085,53.4224569 C31.9679684,53.572697 31.7894082,53.7166972 31.614208,53.8635773 C30.9254074,54.4429379 30.2092467,54.9982984 29.465246,55.5253389 C29.2295657,55.6923791 29.0054055,55.8714193 28.7639653,56.0326994 C28.1188447,56.4560598 27.455964,56.8391002 26.7863634,57.2019806 C26.6231632,57.2903006 26.4580431,57.3728607 26.2938829,57.4578208 C25.4586821,57.8883812 24.6114813,58.2819816 23.7527604,58.6160619 C23.6826804,58.6434219 23.6126003,58.664542 23.5425202,58.690942 C22.4884392,59.0903024 21.4233182,59.4215027 20.3557972,59.6701429 C20.246837,59.695103 20.1373969,59.711903 20.0284368,59.735423 C19.4049162,59.8717431 18.7823556,59.9783032 18.161235,60.0608633 C17.9658748,60.0872633 17.7709947,60.1122234 17.5761145,60.1333434 C16.8522738,60.2096635 16.1308331,60.2629435 15.4185124,60.2643835 C14.6509916,60.2663035 13.8916309,60.2235835 13.1461902,60.1352634 C8.73402591,59.6120629 4.93530224,57.4525408 2.64474002,54.1674176 C1.8949793,53.1704567 1.30169872,52.0928556 0.868738306,50.9624545 L0.869698307,50.9648545 C0.869698307,50.9638945 0.868738306,50.9634145 0.868738306,50.9624545 L14.5516315,86.6980091 C14.984592,87.8284102 15.5778725,88.9060112 16.3276333,89.9029722 C18.6181955,93.1880954 22.4169191,95.3476174 26.8290834,95.8708179 C27.5745241,95.959138 28.3338849,96.0018581 29.1014056,96 C29.8146863,95.9984981 30.536607,95.945218 31.2614077,95.8684179 C31.4543679,95.8477779 31.6473281,95.8228179 31.8412483,95.7968979 C32.4642889,95.7143378 33.0878095,95.6072977 33.7127701,95.4704976 C33.8001302,95.4517775 33.8870102,95.4450575 33.9738903,95.4253775 C33.9954903,95.4200975 34.0170904,95.4104975 34.0386904,95.4052175 C35.1052514,95.1570573 36.1698924,94.8263369 37.2234935,94.4269766 C37.2710135,94.4092165 37.3194936,94.4015365 37.3670136,94.3828165 C37.3905336,94.3736965 37.4130936,94.3602565 37.4361337,94.3516165 C38.2943745,94.0175362 39.1396553,93.6244158 39.9743761,93.1938554 C40.0612562,93.1492153 40.1524563,93.1194553 40.2388564,93.0733752 C40.3175765,93.0316152 40.3924565,92.9788152 40.4706966,92.9365751 C41.1402973,92.5736948 41.8022179,92.1911344 42.4468585,91.768254 C42.5721386,91.6842539 42.6959788,91.6002538 42.8198189,91.5148137 C42.934539,91.4356137 43.0343791,91.3415336 43.1481392,91.2608935 C43.8926199,90.733373 44.6078206,90.1789724 45.2971013,89.5991319 C45.4113414,89.5031318 45.5404615,89.4215317 45.6532616,89.3240916 C45.7132617,89.2717716 45.7627017,89.2103315 45.8227018,89.1575315 C46.6982226,88.3890507 47.5214234,87.5788099 48.2956642,86.7320891 C48.3623842,86.659129 48.4425443,86.596729 48.5083044,86.5232889 C48.6537445,86.3610488 48.7814246,86.1877686 48.9225448,86.0231284 C49.195665,85.7053681 49.4639853,85.3856878 49.7227056,85.0583275 C49.9497458,84.7708072 50.168626,84.4794469 50.3846262,84.1847266 C50.6294264,83.8506463 50.8670267,83.513686 51.0959869,83.1714457 C51.196307,83.0216855 51.3100671,82.8796054 51.4070272,82.7284052 C51.4895873,82.6002451 51.5534273,82.463925 51.6335874,82.3343249 C51.9537477,81.8192844 52.252788,81.2951239 52.5369483,80.7637633 C52.6641484,80.5261631 52.7975885,80.2928829 52.9175886,80.0528827 C53.300149,79.2844019 53.6563094,78.5053612 53.9630297,77.7095204 C54.1075098,77.35768 54.1655898,77.0072797 54.1857499,76.6616794 C54.1915099,76.5632793 54.1852699,76.4701592 54.1814299,76.3731991" fill="#FFF" transform="translate(172 16)"/>
        <path d="M54.1814299,76.3731991 C54.1771099,76.260399 54.1939099,76.1432789 54.1766299,76.0333588 C54.1473498,75.8471186 54.1007898,75.6656784 54.0369497,75.4909582 C54.0316697,75.4765582 54.0263897,75.4621582 54.0206297,75.4477582 L40.3382165,39.7122036 C40.4490966,40.0026039 40.4855766,40.3184442 40.4985366,40.6376445 C40.5023766,40.7336446 40.5086166,40.8286847 40.5028566,40.9261248 C40.4826966,41.2712451 40.4241366,41.6226055 40.2801364,41.9739658 C39.9738961,42.7698066 39.6177358,43.5483673 39.2346954,44.3163681 C39.1146953,44.5573283 38.9802952,44.7920486 38.853095,45.0301288 C38.5689348,45.5600493 38.2708545,46.0837298 37.9516542,46.5978103 C37.776454,46.8795706 37.5983738,47.1598908 37.4130936,47.4363711 C37.1841334,47.7786114 36.9460532,48.1155718 36.701733,48.4496521 C36.4862128,48.7434124 36.2673325,49.0352527 36.0402923,49.3222929 C35.7810921,49.6501332 35.5118118,49.9717336 35.2377315,50.2904539 C35.0337313,50.5275741 34.8263711,50.7627743 34.6146909,50.9946146 C33.8399702,51.8413354 33.0153294,52.6534962 32.1398085,53.4224569 C31.9679684,53.572697 31.7894082,53.7166972 31.614208,53.8635773 C30.9254074,54.4429379 30.2092467,54.9982984 29.465246,55.5253389 C29.2295657,55.6923791 29.0054055,55.8714193 28.7639653,56.0326994 C28.1188447,56.4560598 27.455964,56.8391002 26.7863634,57.2019806 C26.6231632,57.2903006 26.4580431,57.3728607 26.2938829,57.4578208 C25.4586821,57.8883812 24.6114813,58.2819816 23.7527604,58.6160619 C23.6826804,58.6434219 23.6126003,58.664542 23.5425202,58.690942 C22.4884392,59.0903024 21.4233182,59.4215027 20.3557972,59.6701429 C20.246837,59.695103 20.1373969,59.711903 20.0284368,59.735423 C19.4049162,59.8717431 18.7823556,59.9783032 18.161235,60.0608633 C17.9658748,60.0872633 17.7709947,60.1122234 17.5761145,60.1333434 C16.8522738,60.2096635 16.1308331,60.2629435 15.4185124,60.2643835 C14.6509916,60.2663035 13.8916309,60.2235835 13.1461902,60.1352634 C8.73402591,59.6120629 4.93530224,57.4525408 2.64474002,54.1674176 C1.8949793,53.1704567 1.30169872,52.0928556 0.868738306,50.9624545 L0.869698307,50.9648545 C0.869698307,50.9638945 0.868738306,50.9634145 0.868738306,50.9624545 L14.5516315,86.6980091 C14.984592,87.8284102 15.5778725,88.9060112 16.3276333,89.9029722 C18.6181955,93.1880954 22.4169191,95.3476174 26.8290834,95.8708179 C27.5745241,95.959138 28.3338849,96.0018581 29.1014056,96 C29.8146863,95.9984981 30.536607,95.945218 31.2614077,95.8684179 C31.4543679,95.8477779 31.6473281,95.8228179 31.8412483,95.7968979 C32.4642889,95.7143378 33.0878095,95.6072977 33.7127701,95.4704976 C33.8001302,95.4517775 33.8870102,95.4450575 33.9738903,95.4253775 C33.9954903,95.4200975 34.0170904,95.4104975 34.0386904,95.4052175 C35.1052514,95.1570573 36.1698924,94.8263369 37.2234935,94.4269766 C37.2710135,94.4092165 37.3194936,94.4015365 37.3670136,94.3828165 C37.3905336,94.3736965 37.4130936,94.3602565 37.4361337,94.3516165 C38.2943745,94.0175362 39.1396553,93.6244158 39.9743761,93.1938554 C40.0612562,93.1492153 40.1524563,93.1194553 40.2388564,93.0733752 C40.3175765,93.0316152 40.3924565,92.9788152 40.4706966,92.9365751 C41.1402973,92.5736948 41.8022179,92.1911344 42.4468585,91.768254 C42.5721386,91.6842539 42.6959788,91.6002538 42.8198189,91.5148137 C42.934539,91.4356137 43.0343791,91.3415336 43.1481392,91.2608935 C43.8926199,90.733373 44.6078206,90.1789724 45.2971013,89.5991319 C45.4113414,89.5031318 45.5404615,89.4215317 45.6532616,89.3240916 C45.7132617,89.2717716 45.7627017,89.2103315 45.8227018,89.1575315 C46.6982226,88.3890507 47.5214234,87.5788099 48.2956642,86.7320891 C48.3623842,86.659129 48.4425443,86.596729 48.5083044,86.5232889 C48.6537445,86.3610488 48.7814246,86.1877686 48.9225448,86.0231284 C49.195665,85.7053681 49.4639853,85.3856878 49.7227056,85.0583275 C49.9497458,84.7708072 50.168626,84.4794469 50.3846262,84.1847266 C50.6294264,83.8506463 50.8670267,83.513686 51.0959869,83.1714457 C51.196307,83.0216855 51.3100671,82.8796054 51.4070272,82.7284052 C51.4895873,82.6002451 51.5534273,82.463925 51.6335874,82.3343249 C51.9537477,81.8192844 52.252788,81.2951239 52.5369483,80.7637633 C52.6641484,80.5261631 52.7975885,80.2928829 52.9175886,80.0528827 C53.300149,79.2844019 53.6563094,78.5053612 53.9630297,77.7095204 C54.1075098,77.35768 54.1655898,77.0072797 54.1857499,76.6616794 C54.1915099,76.5632793 54.1852699,76.4701592 54.1814299,76.3731991 Z" stroke="#7347F4" stroke-width="4" transform="translate(172 16)"/>
        <path d="M63.2669267,0 C64.0157274,-0.00140276735 64.7554081,0.0389172716 65.4816488,0.122437352 C69.8933331,0.645157858 73.6920567,2.80515995 75.9830989,6.09028312 C78.7954217,9.83044674 79.4045423,14.6971714 77.6194205,19.2840559 C76.2840592,22.5960591 74.0299771,25.624382 71.0616542,28.0267843 C70.3238935,28.6368649 69.5477327,29.2090255 68.7355719,29.724066 C63.3878868,33.2491894 57.1282007,35.0314311 50.2459541,35.0458311 C46.3267503,35.0544711 42.2045063,34.4890306 37.9353822,33.3456695 C34.2705786,32.3650285 30.8260953,31.8787881 27.6110522,31.8855081 C22.4116871,31.8970281 17.8147227,33.1992693 13.8734389,35.7927118 C8.73647391,39.1887151 5.37023066,45.205041 8.99087416,50.0847257 C10.2523154,51.9264875 12.3590374,53.1389686 14.8137598,53.4380089 C15.2270402,53.485529 15.6513606,53.508569 16.084321,53.507609 C18.8793637,53.501849 22.0248068,52.501048 24.7468894,50.7168863 C28.7145732,48.0269637 31.7332962,44.3314401 33.3057777,40.1631161 C33.9331383,38.6751146 35.5214598,37.7146337 37.1472214,37.7112737 C37.4793817,37.7103137 37.813942,37.7496737 38.1417824,37.8331938 C40.0689842,38.3424743 41.0145851,40.1851961 40.2801844,41.9741578 C38.1413024,47.5316032 34.0872184,52.465528 28.7640133,56.0328914 C24.5990493,58.7655341 19.8600047,60.2554555 15.4185604,60.2646374 C14.6510396,60.2664955 13.8916789,60.2237755 13.1462382,60.1354554 C8.73407391,59.6122549 4.93535024,57.4527328 2.64478802,54.1676096 C-0.167534696,50.427446 -0.776655285,45.5602413 1.00798644,40.9733569 C2.68558806,36.8055128 5.80799108,33.1287093 9.89615504,30.4954267 C15.2275202,26.9837433 21.4896062,25.1981416 28.3737729,25.1837416 C32.2977767,25.1751016 36.4238607,25.7424621 40.6944248,26.8930232 C44.3592284,27.8736642 47.8037117,28.3599047 51.0187548,28.3531847 C56.2181198,28.3421446 60.8146043,27.0394234 64.7563681,24.4459809 C69.9163731,21.0307776 73.2614963,15.0144518 69.6662928,10.096847 C68.3813316,8.27428524 66.2726896,7.08052408 63.8160472,6.80068381 C63.4056468,6.75316376 62.9837264,6.73012374 62.553166,6.73108374 C59.7710833,6.73684375 56.6227602,7.73764472 53.8829176,9.52228644 C49.9152337,12.211729 46.9157108,15.9264526 45.3240293,20.0755766 C44.7144287,21.5606981 43.1131472,22.524059 41.4950656,22.527419 C41.1643453,22.528379 40.833145,22.488539 40.5091446,22.4054989 C38.5800228,21.9154184 37.6363419,20.0534966 38.3688226,18.2837349 C40.7961849,12.3830892 44.6597087,7.65892464 49.8845137,4.22500132 C54.0461177,1.49811868 58.8187623,0.00963724332 63.2669267,0" fill="#FFF" transform="translate(172 16)"/>
        <path d="M63.2669267,0 C64.0157274,-0.00140276735 64.7554081,0.0389172716 65.4816488,0.122437352 C69.8933331,0.645157858 73.6920567,2.80515995 75.9830989,6.09028312 C78.7954217,9.83044674 79.4045423,14.6971714 77.6194205,19.2840559 C76.2840592,22.5960591 74.0299771,25.624382 71.0616542,28.0267843 C70.3238935,28.6368649 69.5477327,29.2090255 68.7355719,29.724066 C63.3878868,33.2491894 57.1282007,35.0314311 50.2459541,35.0458311 C46.3267503,35.0544711 42.2045063,34.4890306 37.9353822,33.3456695 C34.2705786,32.3650285 30.8260953,31.8787881 27.6110522,31.8855081 C22.4116871,31.8970281 17.8147227,33.1992693 13.8734389,35.7927118 C8.73647391,39.1887151 5.37023066,45.205041 8.99087416,50.0847257 C10.2523154,51.9264875 12.3590374,53.1389686 14.8137598,53.4380089 C15.2270402,53.485529 15.6513606,53.508569 16.084321,53.507609 C18.8793637,53.501849 22.0248068,52.501048 24.7468894,50.7168863 C28.7145732,48.0269637 31.7332962,44.3314401 33.3057777,40.1631161 C33.9331383,38.6751146 35.5214598,37.7146337 37.1472214,37.7112737 C37.4793817,37.7103137 37.813942,37.7496737 38.1417824,37.8331938 C40.0689842,38.3424743 41.0145851,40.1851961 40.2801844,41.9741578 C38.1413024,47.5316032 34.0872184,52.465528 28.7640133,56.0328914 C24.5990493,58.7655341 19.8600047,60.2554555 15.4185604,60.2646374 C14.6510396,60.2664955 13.8916789,60.2237755 13.1462382,60.1354554 C8.73407391,59.6122549 4.93535024,57.4527328 2.64478802,54.1676096 C-0.167534696,50.427446 -0.776655285,45.5602413 1.00798644,40.9733569 C2.68558806,36.8055128 5.80799108,33.1287093 9.89615504,30.4954267 C15.2275202,26.9837433 21.4896062,25.1981416 28.3737729,25.1837416 C32.2977767,25.1751016 36.4238607,25.7424621 40.6944248,26.8930232 C44.3592284,27.8736642 47.8037117,28.3599047 51.0187548,28.3531847 C56.2181198,28.3421446 60.8146043,27.0394234 64.7563681,24.4459809 C69.9163731,21.0307776 73.2614963,15.0144518 69.6662928,10.096847 C68.3813316,8.27428524 66.2726896,7.08052408 63.8160472,6.80068381 C63.4056468,6.75316376 62.9837264,6.73012374 62.553166,6.73108374 C59.7710833,6.73684375 56.6227602,7.73764472 53.8829176,9.52228644 C49.9152337,12.211729 46.9157108,15.9264526 45.3240293,20.0755766 C44.7144287,21.5606981 43.1131472,22.524059 41.4950656,22.527419 C41.1643453,22.528379 40.833145,22.488539 40.5091446,22.4054989 C38.5800228,21.9154184 37.6363419,20.0534966 38.3688226,18.2837349 C40.7961849,12.3830892 44.6597087,7.65892464 49.8845137,4.22500132 C54.0461177,1.49811868 58.8187623,0.00963724332 63.2669267,0 Z" stroke="#7347F4" stroke-width="4" transform="translate(172 16)"/>
      </g>
    </g>
    <path d="M189.666667,14 C190.771236,14 191.666667,14.8954305 191.666667,16 L191.666,19.333 L195,19.3333333 C196.104569,19.3333333 197,20.2287638 197,21.3333333 L197,22.6666667 C197,23.7712362 196.104569,24.6666667 195,24.6666667 L191.666,24.666 L191.666667,28 C191.666667,29.1045695 190.771236,30 189.666667,30 L188.333333,30 C187.228764,30 186.333333,29.1045695 186.333333,28 L186.333,24.666 L183,24.6666667 C181.895431,24.6666667 181,23.7712362 181,22.6666667 L181,21.3333333 C181,20.2287638 181.895431,19.3333333 183,19.3333333 L186.333,19.333 L186.333333,16 C186.333333,14.8954305 187.228764,14 188.333333,14 L189.666667,14 Z" fill="url(#rehocn44t__o1ejhdj1ig)"/>
  </g>
</svg>
