<svg xmlns="http://www.w3.org/2000/svg" xmlns:xlink="http://www.w3.org/1999/xlink" viewBox="0 0 316 190" class="design-iconfont">
  <defs>
    <linearGradient x1="50%" y1="100%" x2="50%" y2="0%" id="sf5aixl80__3flwz4lhrb">
      <stop stop-color="#9286B5" offset="0%"/>
      <stop stop-color="#C4BBDB" offset="100%"/>
    </linearGradient>
    <rect id="sf5aixl80__n7xl8ynkea" x="0" y="0" width="316" height="190" rx="12"/>
  </defs>
  <g fill="none" fill-rule="evenodd">
    <mask id="sf5aixl80__voislssvlc" fill="#fff">
      <use xlink:href="#sf5aixl80__n7xl8ynkea"/>
    </mask>
    <use fill="#F9F9F9" xlink:href="#sf5aixl80__n7xl8ynkea"/>
    <path d="M289.19295,17 C292.438182,16.9939205 295.643889,17.1686638 298.791349,17.530632 C317.911176,19.7960539 334.37449,29.1573012 344.303653,43.3947181 C356.491997,59.6042378 359.131868,80.6961681 351.395317,100.575297 C345.607986,114.929209 335.839005,128.053678 322.974571,138.465465 C319.777185,141.109497 316.413377,143.589188 312.893548,145.821325 C289.71718,161.098881 262.588285,168.82295 232.761271,168.885358 C215.775808,168.922803 197.910388,166.472237 179.408402,161.517016 C163.525486,157.26701 148.597417,155.159689 134.663721,155.188813 C112.130158,155.23874 92.2073439,160.882532 75.1261881,172.122269 C52.8630618,186.84023 38.274078,212.914424 53.9656087,234.062522 C59.4325771,242.044546 68.5629136,247.299326 79.2014511,248.595339 C80.9925697,248.801286 82.8315347,248.901139 84.7079447,248.896979 C96.8213987,248.872015 110.453455,244.534637 122.250707,236.802247 C139.446278,225.144374 152.529141,209.12832 159.344129,191.063193 C162.063051,184.614334 168.946688,180.451699 175.992587,180.437137 C177.432139,180.432977 178.882092,180.603559 180.302922,180.965528 C188.655234,183.172702 192.75338,191.158886 189.570556,198.912079 C180.300841,222.997528 162.73082,244.380697 139.660546,259.841317 C121.609981,271.684335 101.071405,278.141515 81.8226003,278.181309 C78.4962371,278.189362 75.2052386,278.004217 71.9745682,277.621446 C52.8526604,275.353944 36.3893469,265.994777 26.4622642,251.75736 C14.2739203,235.54784 11.6340485,214.45383 19.3685191,194.574701 C26.6390878,176.511654 40.1712908,160.576731 57.8890114,149.164331 C80.99465,133.945023 108.133946,126.206392 137.969281,126.143983 C154.975547,126.106538 172.85761,128.565426 191.365836,133.55185 C207.248752,137.801857 222.176821,139.909177 236.110517,139.880054 C258.64408,139.832207 278.564814,134.186335 295.64805,122.946597 C318.011029,108.145425 332.508481,82.0712313 316.927205,60.7587917 C311.358303,52.8599792 302.219645,47.6863299 291.572787,46.4735283 C289.79415,46.2675809 287.965586,46.1677276 286.099578,46.1718881 C274.042291,46.1968515 260.397753,50.5342294 248.523531,58.2686999 C231.32796,69.9244929 218.328308,86.0237579 211.430109,104.005674 C208.788157,110.442051 201.848352,114.617168 194.835738,114.63173 C193.402427,114.63589 191.967036,114.463227 190.562849,114.103339 C182.202215,111.979376 178.11239,103.909981 181.286893,96.2399991 C191.806854,70.6671518 208.551005,50.1930639 231.194822,35.310761 C249.230825,23.4927064 269.915021,17.0417669 289.19295,17 Z" stroke="url(#sf5aixl80__3flwz4lhrb)" stroke-width="6" opacity=".3" mask="url(#sf5aixl80__voislssvlc)"/>
  </g>
</svg>
